<svg width="143" height="148" viewBox="0 0 143 148" fill="none" xmlns="http://www.w3.org/2000/svg">
<g clip-path="url(#clip0_99_872)">
<path d="M134.327 13.353C134.9 12.7461 135.612 12.0757 136.058 11.3798C136.073 11.3565 136.208 11.2083 136.229 11.1857C135.978 10.9847 135.79 10.9778 135.48 11.0138C134.237 11.1581 132.476 11.919 131.23 12.3318L123.526 14.8383C114.775 17.6552 106.041 20.5237 97.3234 23.4438L90.3631 25.7833C88.8786 26.279 87.3357 26.7293 85.896 27.3437C85.5433 28.1734 85.3056 29.0526 84.9331 29.871C85.0541 29.037 85.3423 28.2472 85.5969 27.4467C84.3559 27.8061 77.0195 30.5189 76.4362 30.4177C76.4113 30.2521 76.3794 30.142 76.4497 29.9836C76.8273 29.7062 84.739 27.0992 85.7696 26.7722C85.9959 26.0258 86.5372 23.7632 86.9112 23.2626L87.0312 23.2191C87.1319 23.4671 86.2813 26.1271 86.1392 26.6448C97.6312 22.6852 109.165 18.8506 120.739 15.1408L131.035 11.7777C132.215 11.3973 134.023 10.692 135.176 10.4416C135.593 10.351 136.094 10.3577 136.485 10.543C136.914 10.7456 137.218 11.1715 137.365 11.6115C137.509 12.0434 137.488 12.4648 137.416 12.9076C137.144 14.5951 136.654 16.2895 136.241 17.9496L134.204 26.1469L127.595 52.0257C126.548 56.0417 125.398 60.0545 124.435 64.0899C125.117 63.9002 128.597 62.81 128.974 62.9718C128.195 63.427 125.459 64.0111 124.354 64.3695C123.949 66.132 123.454 67.8731 123.013 69.6268L120.4 80.1265L114.147 105.974L110.805 120.018L109.731 124.799C109.491 125.863 109.292 126.964 108.908 127.987C108.868 128.096 108.826 128.203 108.782 128.31C108.738 128.417 108.691 128.523 108.642 128.628C108.594 128.733 108.543 128.837 108.49 128.94C108.437 129.042 108.382 129.144 108.325 129.245C108.268 129.345 108.209 129.445 108.148 129.543C108.086 129.641 108.023 129.738 107.958 129.833C107.893 129.929 107.826 130.023 107.757 130.116C107.688 130.209 107.617 130.3 107.545 130.39C107.472 130.48 107.398 130.569 107.321 130.656C107.245 130.743 107.167 130.828 107.087 130.912C107.007 130.995 106.926 131.078 106.843 131.158C106.76 131.238 106.675 131.317 106.589 131.394C106.502 131.471 106.414 131.546 106.325 131.619C106.236 131.693 106.145 131.764 106.052 131.834C105.96 131.904 105.866 131.971 105.771 132.037C105.676 132.103 105.58 132.167 105.482 132.229C105.373 132.296 105.263 132.36 105.151 132.422C105.039 132.483 104.925 132.542 104.81 132.598C104.695 132.654 104.579 132.708 104.462 132.758C104.344 132.808 104.225 132.856 104.106 132.9C103.986 132.945 103.865 132.986 103.743 133.025C103.621 133.064 103.498 133.099 103.375 133.132C103.251 133.164 103.127 133.194 103.001 133.221C102.876 133.247 102.751 133.27 102.625 133.291C102.498 133.311 102.372 133.328 102.245 133.342C102.118 133.357 101.99 133.368 101.863 133.375C101.735 133.383 101.607 133.388 101.479 133.39C101.352 133.391 101.224 133.39 101.096 133.385C100.968 133.38 100.841 133.373 100.713 133.362C100.586 133.351 100.459 133.337 100.332 133.32C100.205 133.303 100.079 133.282 99.9533 133.259C99.8276 133.236 99.7025 133.209 99.5781 133.18C99.4006 133.138 99.2246 133.091 99.0502 133.038C98.8759 132.984 98.7036 132.925 98.5332 132.86C98.363 132.795 98.1952 132.724 98.0298 132.647C97.8643 132.57 97.7018 132.488 97.542 132.4C97.3822 132.312 97.2256 132.219 97.0722 132.121C96.9188 132.022 96.7689 131.918 96.6225 131.809C96.4762 131.701 96.3338 131.587 96.1954 131.468C96.0568 131.35 95.9225 131.227 95.7924 131.099C94.4821 129.814 93.261 128.011 92.1191 126.557L84.7776 117.146L72.9068 102.073C70.6728 99.2328 68.3913 96.4062 66.2584 93.49C63.0045 96.8079 59.8623 100.236 56.6471 103.591L53.6148 106.746C52.9138 107.465 52.1207 108.182 51.52 108.988C52.3412 113.643 53.3603 118.282 54.3411 122.907L43.5256 135.468C41.6302 137.653 39.8124 139.952 37.8263 142.054C37.6511 142.239 37.4879 142.437 37.2411 142.523C37.138 142.505 37.0746 142.519 37.0043 142.431C36.672 142.015 34.6401 133.229 34.3759 132.114C34.1704 131.369 34.0207 130.61 33.8056 129.866C33.6575 129.269 33.5935 128.519 33.3076 127.977C32.8986 127.202 31.9612 126.45 31.3318 125.844C29.8982 124.477 28.4818 123.092 27.0826 121.689C26.4909 121.1 25.7575 120.5 25.2767 119.822C25.2881 119.592 25.4778 119.421 25.6163 119.25C22.1799 118.699 18.4598 117.77 15.0413 117.01C14.2535 116.835 12.6312 116.662 11.9694 116.289L11.9229 116.099C11.9925 115.843 12.1067 115.684 12.2888 115.491C12.6654 115.091 13.1049 114.741 13.4979 114.356C14.8024 113.073 16.1138 111.797 17.432 110.528C21.5957 106.495 25.808 102.473 29.8517 98.3215C32.3264 98.6751 34.8003 99.1814 37.2659 99.6037C39.3231 99.9561 41.4839 100.215 43.5001 100.752C44.5694 99.704 45.5764 98.6001 46.6176 97.5251C48.2494 95.8694 49.8695 94.2023 51.4778 92.5237C53.9512 89.9987 56.3783 87.4234 58.8136 84.8617C58.1172 84.1357 57.3376 83.4711 56.598 82.7879C55.1407 81.4295 53.668 80.0879 52.1799 78.7632L43.4248 70.7625C40.1958 67.8342 36.9874 64.8835 33.7995 61.9105C32.3075 60.5315 30.1621 58.8478 28.9768 57.3049C28.8769 57.175 28.7809 57.0423 28.6888 56.9069C28.5968 56.7713 28.5088 56.6332 28.425 56.4925C28.3411 56.3516 28.2614 56.2085 28.186 56.0631C28.1107 55.9177 28.0397 55.7701 27.9731 55.6204C27.9064 55.4708 27.8441 55.3194 27.7864 55.166C27.7287 55.0126 27.6756 54.8577 27.6271 54.7013C27.5786 54.5448 27.5348 54.387 27.4955 54.228C27.4564 54.0689 27.4219 53.9088 27.3922 53.7476C27 51.7071 27.4725 49.656 28.635 47.9501C28.7351 47.802 28.84 47.6575 28.9498 47.5163C29.0595 47.3753 29.1737 47.2381 29.2926 47.1046C29.4115 46.9711 29.5347 46.8417 29.6622 46.7165C29.7896 46.5912 29.9211 46.4703 30.0565 46.3537C30.192 46.2372 30.3313 46.1253 30.4743 46.0179C30.6171 45.9107 30.7635 45.8083 30.9133 45.7108C31.063 45.6132 31.2158 45.5207 31.3716 45.4333C31.5276 45.3459 31.6862 45.2638 31.8476 45.1869C32.6802 44.7957 33.6351 44.5484 34.5077 44.2555C36.0276 43.7467 37.5445 43.2291 39.0584 42.7029L55.5265 37.0897L68.8675 32.561L72.8047 31.2175C73.7699 30.8892 74.7556 30.5129 75.7598 30.3255C75.8263 29.7195 75.8244 28.5887 76.1289 28.0849C76.1553 28.9357 75.9826 29.8184 75.9377 30.672C75.71 31.6566 75.8944 32.935 75.8978 33.9473L75.8701 40.227C75.8729 47.0407 75.7327 53.8492 75.7817 60.6643C75.8806 60.258 75.9307 59.7873 76.0788 59.3997C76.1504 59.2124 76.2105 59.134 76.3892 59.0507L76.5618 59.1449C76.583 59.2017 76.624 59.2549 76.6253 59.3155C76.6353 59.7743 75.8972 62.6596 75.7908 63.4755C75.6184 64.7974 75.6593 66.191 75.6509 67.522C77.7662 65.3143 80.135 63.2901 82.3495 61.1776C84.381 59.2398 86.8983 56.4135 89.2161 54.9095C89.848 54.4995 90.5847 54.2849 91.3346 54.2274C92.6572 54.126 93.75 54.4922 94.7519 55.3604C96.4054 53.5729 98.1316 51.8435 99.8015 50.0693L122.674 25.9221L130.068 18.1086C131.506 16.5742 133.048 15.021 134.327 13.353ZM134.447 14.2279C121.471 28.1491 108.393 41.9753 95.2158 55.7066C96.049 56.8285 96.661 58.0661 96.462 59.5103C96.3735 60.1531 96.0883 60.7197 95.7379 61.2569C94.7717 62.7383 93.4606 64.02 92.3235 65.3688C91.9939 65.7598 91.7425 66.2138 91.4175 66.5996C91.0472 67.0395 90.6096 67.4237 90.234 67.8607C89.4786 68.7394 88.8076 69.6848 88.0258 70.5428C86.8895 71.7898 85.6258 72.9399 84.5213 74.2117C86.4515 73.7344 88.4204 73.4014 90.3591 72.9526L105.78 69.2228C110.88 67.9549 115.912 66.4492 120.987 65.0949C121.928 64.8335 122.867 64.5618 123.803 64.28C124.145 62.7512 124.582 61.2317 124.976 59.7151L127.371 50.57L133.676 25.8988L135.458 18.6334C135.941 16.7395 136.542 14.7569 136.836 12.8283C136.899 12.4082 136.945 12.0831 136.743 11.6918L136.647 11.6615C135.869 12.4075 135.101 13.3701 134.447 14.2279ZM75.8185 33.5914C75.7841 32.6653 75.7457 31.7411 75.7611 30.8142C71.6014 32.3382 67.3489 33.675 63.1494 35.0912L43.1427 41.9222C40.6458 42.7837 38.1446 43.6325 35.6392 44.4689C34.347 44.9061 32.8585 45.2744 31.6601 45.9287C30.2521 46.6975 29.1345 47.9452 28.4576 49.3919C27.6473 51.1235 27.6303 53.1548 28.2946 54.9372C28.6448 55.8769 29.1717 56.7153 29.8444 57.4563C31.0396 58.7731 32.4952 59.9452 33.8109 61.1445L40.2266 67.0522C44.5726 71.0615 48.9407 75.0468 53.3308 79.008C55.2993 80.7942 57.2282 82.6216 59.2305 84.3706L61.0672 82.4555C63.7116 79.8424 66.2573 77.1284 68.8721 74.4847L72.8601 70.4195C73.7046 69.5539 74.5838 68.7021 75.3653 67.7789C75.3454 65.5269 75.4894 63.3139 75.5761 61.0672L75.612 50.8105C75.7177 50.2954 75.6893 49.7016 75.7108 49.171C75.7908 47.1979 75.7466 45.2159 75.7429 43.2412C75.7371 40.0244 75.8345 36.8061 75.8185 33.5914ZM95.0307 56.4935C94.2043 55.5676 93.2815 54.9267 91.9957 54.8347C90.2077 54.7068 88.9697 55.7302 87.7201 56.8483C86.4336 57.9992 85.2468 59.2704 83.9917 60.4568C81.6439 62.6759 79.2237 64.8435 76.9195 67.1058C74.6238 69.3599 72.4223 71.7081 70.1604 73.9957C64.9655 79.2494 59.8323 84.5627 54.7609 89.9356L43.0166 102.074C38.9183 106.4 34.7904 110.698 30.6329 114.967C29.0998 116.556 27.6085 118.21 26.0521 119.772C27.5216 121.393 29.1183 122.956 30.7226 124.444C31.0943 124.808 31.4594 125.196 31.8556 125.533C32.4146 126.053 32.9543 126.6 33.502 127.132C35.0506 125.318 36.7962 123.647 38.4489 121.926L47.1483 112.79L72.2742 86.14L82.0253 75.9485C83.8555 74.0479 85.7333 72.1789 87.51 70.2277C88.3658 69.2882 89.1357 68.2609 89.9749 67.3026C89.5883 67.3883 89.3167 67.4152 88.9627 67.2116L88.9656 67.1086C89.3545 66.6765 90.152 66.5501 90.7007 66.3933C91.9612 64.7895 94.9933 61.8009 95.652 60.1809C96.0543 59.1916 95.9099 58.232 95.5154 57.2737C95.3733 57.0038 95.1959 56.7498 95.0307 56.4935ZM120.831 65.336C117.84 66.0781 114.878 66.9783 111.905 67.7874L97.3747 71.5909L89.9191 73.4351C89.2013 73.6077 87.6865 73.8246 87.1092 74.0984C86.2038 74.2578 84.7791 74.3882 83.9964 74.8617C83.1064 75.4005 80.8168 78.0397 79.9122 78.9856C76.1395 82.9085 72.4052 86.8676 68.7092 90.8628L68.6083 90.9573C67.9225 91.6597 67.2532 92.3774 66.6003 93.1103C67.7818 94.4876 68.8593 95.9636 69.9748 97.3954L74.7156 103.417L87.6733 119.902L93.0906 126.822C94.1276 128.141 95.1549 129.624 96.3597 130.79C96.466 130.891 96.5752 130.989 96.6876 131.083C96.7999 131.177 96.9151 131.268 97.033 131.355C97.1509 131.442 97.2715 131.525 97.3946 131.605C97.5178 131.684 97.6433 131.76 97.7711 131.831C97.8989 131.903 98.0289 131.971 98.1609 132.034C98.2929 132.098 98.4268 132.157 98.5625 132.213C98.6984 132.268 98.8357 132.319 98.9746 132.366C99.1136 132.412 99.2538 132.455 99.3953 132.493C101.277 133.016 103.232 132.822 104.934 131.848C105.029 131.795 105.123 131.739 105.216 131.681C105.309 131.623 105.401 131.563 105.491 131.502C105.581 131.44 105.671 131.377 105.758 131.311C105.846 131.246 105.932 131.178 106.017 131.109C106.102 131.04 106.185 130.969 106.267 130.897C106.349 130.824 106.429 130.75 106.508 130.674C106.587 130.598 106.664 130.52 106.739 130.441C106.815 130.361 106.889 130.281 106.961 130.198C107.033 130.116 107.103 130.032 107.171 129.947C107.24 129.861 107.306 129.774 107.371 129.686C107.436 129.598 107.499 129.508 107.56 129.418C107.621 129.327 107.68 129.235 107.737 129.141C107.794 129.048 107.849 128.953 107.903 128.858C107.956 128.762 108.007 128.665 108.056 128.567C108.105 128.47 108.152 128.371 108.197 128.271C108.241 128.171 108.284 128.07 108.325 127.969C108.667 127.101 108.839 126.148 109.048 125.241L109.956 121.246L112.629 109.685L117.179 90.9241C119.27 82.1096 121.465 73.3209 123.763 64.558L120.831 65.336ZM40.5039 103.891C41.366 102.997 42.245 102.11 43.0747 101.186L33.682 99.5669C32.4958 99.3563 31.2641 99.2209 30.0949 98.9372C27.9832 100.862 26.0109 102.951 23.96 104.941C20.213 108.579 16.4228 112.189 12.7232 115.873C15.5838 116.589 18.4863 117.177 21.3698 117.795C22.9423 118.132 24.6186 118.621 26.2152 118.768C27.2371 117.588 28.3721 116.511 29.4411 115.374C30.3118 114.632 31.4187 113.285 32.2649 112.417L40.5039 103.891ZM48.0436 112.683L36.8941 124.351C35.8369 125.397 34.8495 126.517 33.854 127.621C34.3621 130.033 35.037 132.438 35.6307 134.832C36.1968 137.115 36.684 139.435 37.3532 141.689C38.9836 140.029 40.4395 138.12 41.9781 136.37C45.9397 131.87 49.8559 127.33 53.7268 122.751C52.7304 118.357 51.9033 113.919 51 109.504C49.9839 110.533 49.0359 111.63 48.0436 112.683Z" fill="black"/>
<path d="M134.447 14.2278C135.101 13.37 135.869 12.4074 136.647 11.6614L136.743 11.6917C136.945 12.083 136.899 12.4081 136.836 12.8282C136.542 14.7568 135.941 16.7394 135.458 18.6333L133.676 25.8987L127.371 50.5699L124.976 59.715C124.582 61.2316 124.145 62.7511 123.803 64.2799C122.867 64.5618 121.928 64.8334 120.987 65.0948C120.87 64.6833 122.697 57.6905 123.02 56.9866C123.207 56.932 123.375 56.8725 123.552 56.7916C123.636 56.5895 123.602 56.5233 123.564 56.3126L123.404 56.2351C123.307 56.0106 123.366 55.7897 123.415 55.5596C123.724 54.1042 124.155 52.6662 124.545 51.2308L126.184 45.0503C128.1 37.7109 130.005 30.3616 132.029 23.0515L133.74 16.7885C133.955 16.0215 134.446 15.013 134.447 14.2278Z" fill="white"/>
<path d="M75.9497 33.3769C77.4336 32.6596 79.2611 32.212 80.8386 31.6795L88.8432 28.8923L118.721 18.7915C122.486 17.507 126.208 16.1136 129.956 14.7846C131.332 14.2968 132.882 13.5208 134.327 13.353C133.048 15.021 131.507 16.5742 130.068 18.1086L122.674 25.9221L99.8016 50.0693C98.1317 51.8435 96.4055 53.5729 94.752 55.3604C93.75 54.4922 92.6573 54.126 91.3346 54.2274C90.5848 54.285 89.8481 54.4995 89.2162 54.9096C86.8984 56.4135 84.381 59.2398 82.3496 61.1776C80.135 63.2901 77.7662 65.3143 75.651 67.522C75.6594 66.1911 75.6185 64.7974 75.7909 63.4755C75.8972 62.6596 76.6354 59.7743 76.6254 59.3155C76.6241 59.2549 76.5831 59.2017 76.5618 59.1449L76.3893 59.0507C76.2106 59.134 76.1505 59.2124 76.0789 59.3997C75.9308 59.7873 75.8807 60.258 75.7818 60.6643C75.7327 53.8492 75.8729 47.0407 75.8701 40.227L75.8978 33.9474C75.8945 32.935 75.71 31.6566 75.9378 30.672C75.9464 31.5736 75.9504 32.4753 75.9497 33.3769ZM84.124 31.9805C83.7734 32.727 83.2705 33.8082 83.2593 34.6366C83.3444 34.805 83.3838 34.8229 83.5453 34.9259C83.9104 34.492 84.4774 32.8322 84.4086 32.261C84.3948 32.1474 84.3183 32.103 84.2278 32.041C84.1947 32.0183 84.1585 32.0006 84.124 31.9805ZM82.1619 37.8926C81.8924 38.3946 81.0271 40.8191 81.1141 41.3126C81.2318 41.4304 81.326 41.4888 81.4774 41.5574C81.7566 41.0234 82.609 38.635 82.5263 38.1118C82.4053 38.0145 82.3058 37.9512 82.1619 37.8926ZM79.9886 44.5642C79.6467 45.2893 78.9434 47.105 79.02 47.8751C79.1447 48.0431 79.1789 48.0526 79.3758 48.1306C79.6115 47.5459 80.4758 45.2141 80.3671 44.7229C80.2357 44.6275 80.1476 44.5957 79.9886 44.5642ZM77.9904 51.2914C77.7078 52.1174 76.8747 54.3185 76.9598 55.0754C77.0797 55.1747 77.1872 55.2412 77.3277 55.3083C77.6236 54.7291 78.3957 52.0666 78.3693 51.4739C78.2432 51.3534 78.159 51.3295 77.9904 51.2914Z" fill="#75FBA0"/>
<path d="M95.2159 55.7065C108.393 41.9752 121.471 28.149 134.447 14.2278C134.446 15.013 133.955 16.0215 133.74 16.7885L132.029 23.0514C130.005 30.3616 128.1 37.7109 126.184 45.0503L124.545 51.2308C124.155 52.6662 123.724 54.1042 123.415 55.5595C123.366 55.7897 123.307 56.0106 123.404 56.2351L123.564 56.3126C123.012 56.3094 121.892 56.4844 121.527 56.9296C121.457 57.0144 121.454 57.0305 121.409 57.1183L121.441 57.2738C121.711 57.4092 121.969 57.3654 122.248 57.2769C122.509 57.1939 122.766 57.089 123.02 56.9866C122.697 57.6904 120.87 64.6833 120.987 65.0948C115.912 66.449 110.88 67.9548 105.78 69.2227L90.3592 72.9525C88.4205 73.4013 86.4516 73.7343 84.5214 74.2115C85.6259 72.9398 86.8896 71.7897 88.0258 70.5427C88.8076 69.6847 89.4787 68.7393 90.2341 67.8606C90.6097 67.4236 91.0472 67.0394 91.4176 66.5995C91.7426 66.2136 91.994 65.7597 92.3236 65.3687C93.4607 64.0199 94.7717 62.7381 95.738 61.2568C96.0883 60.7196 96.3736 60.153 96.462 59.5102C96.6611 58.066 96.0491 56.8284 95.2159 55.7065ZM117.801 58.0149C117.073 58.2089 115.183 58.6164 114.694 59.1102C114.673 59.3027 114.701 59.3135 114.807 59.4802C114.868 59.5042 114.943 59.5423 115.007 59.5533C115.704 59.3314 117.735 58.8483 118.172 58.3761C118.176 58.193 118.149 58.1946 118.054 58.0482C117.969 58.0326 117.887 58.0111 117.801 58.0149ZM111.237 60.2169C110.606 60.3907 108.157 61.0189 107.871 61.4018C107.862 61.5302 107.835 61.5272 107.928 61.6329C108.027 61.7469 107.982 61.7092 108.124 61.7694C108.919 61.5458 110.887 61.1429 111.445 60.6304C111.474 60.5136 111.508 60.5002 111.437 60.3915C111.374 60.293 111.337 60.2681 111.237 60.2169ZM104.409 62.3287C103.475 62.6296 102.099 62.9025 101.336 63.4975L101.303 63.6305C101.441 63.7719 101.489 63.8157 101.694 63.8442C101.726 63.8485 101.757 63.8448 101.789 63.845C102.649 63.5749 104.203 63.2409 104.88 62.7172L104.923 62.5914C104.821 62.4323 104.791 62.3662 104.59 62.3264C104.535 62.3154 104.465 62.3242 104.409 62.3287ZM97.8711 64.3794C97.0172 64.6584 95.7479 64.8074 95.0425 65.3538C94.9644 65.5313 94.9844 65.5259 95.054 65.7103C95.1596 65.7493 95.2153 65.7708 95.3297 65.7696C95.9069 65.609 97.9607 65.1677 98.2556 64.7932C98.2146 64.5944 98.2305 64.5232 98.0709 64.3903L97.8711 64.3794Z" fill="#75FBA0"/>
<path d="M75.8185 33.5914C65.6192 36.9773 55.445 40.4374 45.2959 43.9714C42.5199 44.8963 39.7503 45.8403 36.9873 46.8033C35.5549 47.2987 33.998 47.7307 32.651 48.429C31.9026 48.8168 31.301 49.5116 30.9295 50.2625C30.358 51.4178 30.3402 52.7671 30.7564 53.9754C30.9736 54.6061 31.3119 55.1543 31.7761 55.6338C32.4735 56.3541 33.2729 56.9872 34.0088 57.6685L39.1486 62.4025L50.1775 72.4499C52.617 74.6417 55.0104 76.8945 57.4281 79.1117C58.5609 80.1507 59.6762 81.2766 60.8812 82.2269L61.0672 82.4555L59.2305 84.3707C57.2282 82.6216 55.2993 80.7942 53.3308 79.008C48.9407 75.0468 44.5726 71.0615 40.2266 67.0522L33.8109 61.1445C32.4952 59.9453 31.0396 58.7731 29.8444 57.4563C29.1717 56.7153 28.6448 55.877 28.2946 54.9373C27.6303 53.1548 27.6473 51.1235 28.4576 49.3919C29.1345 47.9453 30.2521 46.6975 31.6601 45.9288C32.8585 45.2744 34.347 44.9062 35.6392 44.4689C38.1446 43.6326 40.6458 42.7837 43.1427 41.9223L63.1494 35.0913C67.3489 33.675 71.6014 32.3382 75.7611 30.8142C75.7457 31.7412 75.7841 32.6653 75.8185 33.5914Z" fill="white"/>
<path d="M83.5454 34.9258C83.3838 34.8229 83.3444 34.805 83.2593 34.6365C83.2706 33.8082 83.7734 32.727 84.124 31.9805C84.1585 32.0005 84.1947 32.0183 84.2278 32.041C84.3184 32.1029 84.3948 32.1473 84.4086 32.261C84.4774 32.8321 83.9104 34.4919 83.5454 34.9258Z" fill="black"/>
<path d="M60.8812 82.2268C59.6762 81.2765 58.5609 80.1506 57.4281 79.1116C55.0104 76.8944 52.617 74.6416 50.1775 72.4498L39.1487 62.4024L34.0088 57.6684C33.2729 56.9871 32.4735 56.354 31.7761 55.6337C31.3119 55.1542 30.9737 54.606 30.7564 53.9753C30.3403 52.767 30.358 51.4177 30.9296 50.2624C31.301 49.5115 31.9027 48.8167 32.651 48.4289C33.998 47.7306 35.555 47.2986 36.9873 46.8032C39.7504 45.8402 42.5199 44.8962 45.2959 43.9713C55.445 40.4373 65.6192 36.9772 75.8185 33.5913C75.8345 36.8061 75.7371 40.0243 75.7429 43.2411C75.7466 45.2159 75.7908 47.1978 75.7109 49.1709C75.6893 49.7015 75.7177 50.2954 75.612 50.8104L75.5223 50.6222C75.4671 50.7196 75.4262 50.8132 75.3874 50.9182C75.3395 50.9421 75.2814 50.9518 75.2437 50.9897C74.6842 51.5534 61.7365 79.5665 61.0276 81.654C60.9643 81.8412 60.9155 82.0321 60.8812 82.2268Z" fill="url(#paint0_linear_99_872)"/>
<path d="M81.4774 41.5573C81.326 41.4888 81.2318 41.4303 81.1142 41.3126C81.0271 40.819 81.8924 38.3946 82.162 37.8926C82.3058 37.9512 82.4053 38.0145 82.5263 38.1117C82.609 38.635 81.7566 41.0234 81.4774 41.5573Z" fill="black"/>
<path d="M79.3758 48.1305C79.1789 48.0526 79.1446 48.0431 79.0199 47.875C78.9433 47.105 79.6466 45.2893 79.9885 44.5642C80.1476 44.5957 80.2356 44.6275 80.367 44.7229C80.4757 45.214 79.6115 47.5459 79.3758 48.1305Z" fill="black"/>
<path d="M75.3875 50.9184C75.4263 50.8133 75.4672 50.7197 75.5224 50.6223L75.612 50.8105L75.5762 61.0672C75.5391 61.2159 75.5469 61.1535 75.5401 61.3105C75.5334 61.4645 75.5627 61.391 75.462 61.5139C75.3226 59.9544 75.3586 58.3643 75.3537 56.7996C75.3475 54.8406 75.3227 52.8764 75.3875 50.9184Z" fill="white"/>
<path d="M60.8812 82.2268C60.9155 82.0321 60.9643 81.8412 61.0276 81.654C61.7365 79.5665 74.6842 51.5534 75.2437 50.9897C75.2814 50.9518 75.3395 50.9421 75.3874 50.9182C75.3227 52.8763 75.3474 54.8405 75.3536 56.7994C75.3586 58.3642 75.3225 59.9542 75.462 61.5137C75.5626 61.3908 75.5333 61.4644 75.5401 61.3104C75.5468 61.1534 75.539 61.2158 75.5761 61.0671C75.4894 63.3139 75.3454 65.5268 75.3653 67.7789C74.5838 68.702 73.7046 69.5538 72.8601 70.4194L68.8721 74.4846C66.2573 77.1284 63.7116 79.8423 61.0673 82.4554L60.8812 82.2268Z" fill="#15ADFF"/>
<path d="M77.3276 55.3082C77.1871 55.2411 77.0796 55.1746 76.9598 55.0752C76.8747 54.3184 77.7078 52.1173 77.9903 51.2913C78.1589 51.3293 78.2431 51.3532 78.3693 51.4738C78.3956 52.0665 77.6235 54.729 77.3276 55.3082Z" fill="black"/>
<path d="M26.0521 119.772C27.6085 118.21 29.0999 116.556 30.633 114.967C34.7905 110.698 38.9184 106.4 43.0166 102.074L54.761 89.9355C59.8324 84.5626 64.9656 79.2493 70.1605 73.9956C72.4223 71.708 74.6239 69.3598 76.9196 67.1057C79.2238 64.8434 81.644 62.6757 83.9918 60.4566C85.2469 59.2703 86.4337 57.9991 87.7201 56.8481C88.9698 55.73 90.2077 54.7067 91.9957 54.8346C93.2816 54.9266 94.2044 55.5674 95.0307 56.4934C94.3058 57.6443 93.2278 58.5765 92.3042 59.5704L87.0018 65.261C81.2395 71.4392 75.4262 77.569 69.5621 83.6505L40.6544 113.992C38.1262 116.594 35.6745 119.27 33.1516 121.879C32.3439 122.714 31.5964 123.684 30.7226 124.444C29.1183 122.956 27.5217 121.393 26.0521 119.772Z" fill="white"/>
<path d="M123.02 56.9868C122.766 57.0892 122.509 57.194 122.247 57.2771C121.969 57.3656 121.71 57.4094 121.44 57.274L121.409 57.1185C121.454 57.0307 121.457 57.0146 121.526 56.9298C121.892 56.4846 123.012 56.3096 123.564 56.3128C123.602 56.5234 123.636 56.5896 123.552 56.7918C123.375 56.8726 123.207 56.9321 123.02 56.9868Z" fill="black"/>
<path d="M95.0308 56.4934C95.196 56.7498 95.3734 57.0038 95.5155 57.2736C94.349 58.1052 93.47 59.6102 92.5908 60.7328C91.704 61.8446 90.8034 62.9452 89.8892 64.0344C88.8346 65.2787 87.6774 66.4268 86.5824 67.634C85.4369 68.897 84.36 70.2202 83.2153 71.4842C80.6018 74.3704 77.878 77.1455 75.213 79.9828L51.8902 104.705L38.5962 118.647C36.9831 120.343 35.3499 122.019 33.6964 123.675C33.0973 124.276 32.5106 125.004 31.8557 125.533C31.4595 125.196 31.0944 124.808 30.7227 124.444C31.5964 123.684 32.3439 122.714 33.1517 121.879C35.6746 119.27 38.1263 116.594 40.6544 113.992L69.5621 83.6506C75.4263 77.569 81.2395 71.4392 87.0018 65.2611L92.3042 59.5705C93.2278 58.5766 94.3058 57.6443 95.0308 56.4934Z" fill="#F0F0F3"/>
<path d="M31.8557 125.533C32.5106 125.004 33.0973 124.277 33.6964 123.675C35.3499 122.019 36.9831 120.343 38.5962 118.647L51.8902 104.705L75.213 79.9829C77.878 77.1456 80.6018 74.3705 83.2153 71.4843C84.36 70.2203 85.4369 68.8971 86.5824 67.6341C87.6774 66.4269 88.8346 65.2788 89.8892 64.0345C90.8034 62.9453 91.704 61.8447 92.5908 60.7329C93.47 59.6103 94.349 58.1053 95.5155 57.2737C95.91 58.232 96.0544 59.1916 95.6521 60.181C94.9934 61.8009 91.9613 64.7895 90.7008 66.3934C90.1521 66.5501 89.3546 66.6765 88.9657 67.1086L88.9628 67.2116C89.3168 67.4152 89.5884 67.3883 89.975 67.3026C89.1358 68.2609 88.3659 69.2882 87.5101 70.2277C85.7334 72.1789 83.8556 74.0479 82.0254 75.9485L72.2743 86.14L47.1484 112.79L38.449 121.926C36.7963 123.647 35.0507 125.318 33.5021 127.132C32.9543 126.6 32.4147 126.053 31.8557 125.533Z" fill="white"/>
<path d="M115.007 59.5535C114.943 59.5425 114.868 59.5044 114.807 59.4804C114.701 59.3137 114.672 59.3028 114.694 59.1104C115.183 58.6166 117.073 58.209 117.8 58.0151C117.887 58.0113 117.969 58.0328 118.054 58.0483C118.149 58.1948 118.176 58.1932 118.172 58.3763C117.735 58.8484 115.704 59.3315 115.007 59.5535Z" fill="black"/>
<path d="M108.124 61.7696C107.982 61.7094 108.027 61.7471 107.928 61.6331C107.835 61.5273 107.862 61.5304 107.871 61.402C108.158 61.019 110.606 60.3909 111.237 60.217C111.337 60.2683 111.374 60.2932 111.437 60.3917C111.508 60.5003 111.474 60.5138 111.445 60.6306C110.887 61.1431 108.919 61.5459 108.124 61.7696Z" fill="black"/>
<path d="M101.789 63.8452C101.757 63.845 101.725 63.8487 101.694 63.8445C101.489 63.8159 101.441 63.7721 101.303 63.6307L101.336 63.4977C102.099 62.9027 103.475 62.6298 104.409 62.3289C104.465 62.3244 104.535 62.3156 104.59 62.3266C104.791 62.3664 104.821 62.4325 104.923 62.5916L104.88 62.7174C104.203 63.2411 102.649 63.5751 101.789 63.8452Z" fill="black"/>
<path d="M95.3297 65.7697C95.2153 65.7708 95.1596 65.7493 95.054 65.7104C94.9844 65.5259 94.9643 65.5313 95.0424 65.3538C95.7479 64.8074 97.0172 64.6584 97.871 64.3794L98.0708 64.3904C98.2305 64.5232 98.2145 64.5944 98.2555 64.7932C97.9607 65.1678 95.9068 65.609 95.3297 65.7697Z" fill="black"/>
<path d="M120.831 65.3361L123.763 64.5581C121.465 73.321 119.27 82.1097 117.179 90.9241L112.63 109.685L109.956 121.246L109.048 125.241C108.839 126.148 108.667 127.101 108.325 127.969C108.284 128.07 108.241 128.171 108.197 128.271C108.152 128.371 108.105 128.47 108.056 128.568C108.007 128.665 107.956 128.762 107.903 128.858C107.85 128.954 107.794 129.048 107.737 129.141C107.68 129.235 107.621 129.327 107.56 129.418C107.499 129.509 107.436 129.598 107.371 129.686C107.306 129.774 107.24 129.861 107.171 129.947C107.103 130.032 107.033 130.116 106.961 130.198C106.889 130.281 106.815 130.361 106.74 130.441C106.664 130.52 106.587 130.598 106.508 130.674C106.43 130.75 106.349 130.824 106.267 130.897C106.185 130.969 106.102 131.04 106.017 131.109C105.932 131.178 105.846 131.246 105.758 131.311C105.671 131.377 105.582 131.44 105.491 131.502C105.401 131.564 105.309 131.623 105.216 131.681C105.123 131.739 105.029 131.795 104.934 131.848C103.232 132.822 101.277 133.016 99.3954 132.493C99.2539 132.455 99.1137 132.412 98.9747 132.366C98.8358 132.319 98.6985 132.268 98.5628 132.213C98.427 132.157 98.2931 132.098 98.161 132.034C98.029 131.971 97.899 131.903 97.7712 131.831C97.6434 131.76 97.5179 131.684 97.3947 131.605C97.2716 131.525 97.151 131.442 97.0331 131.355C96.9152 131.268 96.8001 131.177 96.6877 131.083C96.5753 130.989 96.4661 130.891 96.3598 130.79C95.155 129.624 94.1277 128.141 93.0907 126.822L87.6734 119.902L74.7157 103.417L69.9749 97.3955C68.8594 95.9636 67.7819 94.4876 66.6003 93.1104C67.2533 92.3775 67.9226 91.6598 68.6084 90.9574C69.1799 91.6328 69.6481 92.4323 70.1743 93.1464C71.2158 94.5393 72.2765 95.9174 73.3565 97.2807C79.4694 105.036 85.4669 112.889 91.6446 120.592C93.1073 122.416 94.5119 124.288 95.9599 126.124C96.6436 126.991 97.303 127.928 98.0891 128.703C98.6995 129.305 99.4083 129.737 100.241 129.95C101.502 130.271 102.924 130.089 104.038 129.408C105.011 128.814 105.6 127.972 105.97 126.904C106.55 125.231 106.858 123.358 107.262 121.63C108.244 117.427 109.123 113.195 110.151 109.004L120.831 65.3361Z" fill="white"/>
<path d="M87.1093 74.0983C87.6866 73.8246 89.2013 73.6076 89.9191 73.4351L97.3747 71.5908L111.905 67.7874C114.878 66.9782 117.84 66.078 120.831 65.3359L110.151 109.004C109.123 113.195 108.244 117.427 107.262 121.629C106.858 123.358 106.55 125.23 105.97 126.904C105.6 127.972 105.011 128.814 104.038 129.408C102.924 130.088 101.501 130.271 100.241 129.949C99.4082 129.737 98.6994 129.304 98.089 128.703C97.3029 127.928 96.6435 126.991 95.9598 126.124C94.5118 124.288 93.1072 122.416 91.6446 120.592C85.4669 112.889 79.4694 105.036 73.3564 97.2805C72.2764 95.9172 71.2157 94.5392 70.1742 93.1463C69.648 92.4322 69.1799 91.6327 68.6083 90.9572L68.7092 90.8627C68.8908 90.8409 69.0783 90.8145 69.2446 90.7337C69.7202 90.5019 70.173 90.1983 70.64 89.9466C72.4892 88.9504 74.2955 87.92 76.1042 86.8535L84.1144 82.2133C86.6629 80.7512 89.2063 79.2682 91.7736 77.8397C95.4025 75.8207 99.0805 73.8361 102.58 71.6C100.208 72.2298 88.139 74.7903 86.2998 74.4243C86.5236 74.3664 86.8532 74.3179 87.0323 74.1676C87.0589 74.1455 87.0836 74.1215 87.1093 74.0983Z" fill="url(#paint1_linear_99_872)"/>
<path d="M43.4249 70.7625L52.18 78.7631C53.668 80.0878 55.1407 81.4294 56.5981 82.7878C57.3377 83.471 58.1173 84.1356 58.8137 84.8616C56.3783 87.4233 53.9512 89.9986 51.4779 92.5236C51.4115 92.257 49.0027 89.1656 48.6002 88.6007C46.7634 86.0236 44.9042 83.4477 43.1772 80.7952C42.2255 79.3335 41.3531 77.8292 40.4384 76.3483C40.3181 76.1537 40.2475 76.0866 40.0304 76.0248C40.3499 75.7145 40.6552 75.3881 40.9644 75.0678L40.1545 74.2448C41.0013 72.929 42.5839 72.0815 43.4249 70.7625Z" fill="#F0F0F3"/>
<path d="M68.7092 90.8628C72.4051 86.8676 76.1395 82.9085 79.9122 78.9855C80.8169 78.0397 83.1064 75.4005 83.9965 74.8617C84.7792 74.3881 86.2039 74.2578 87.1093 74.0984C87.0836 74.1215 87.0589 74.1456 87.0324 74.1677C86.8532 74.318 86.5236 74.3665 86.2998 74.4243C88.1391 74.7904 100.208 72.2298 102.58 71.6001C99.0806 73.8362 95.4025 75.8207 91.7736 77.8397C89.2063 79.2683 86.6629 80.7513 84.1144 82.2133L76.1042 86.8535C74.2956 87.9201 72.4893 88.9504 70.64 89.9467C70.173 90.1983 69.7203 90.502 69.2446 90.7337C69.0784 90.8146 68.8909 90.841 68.7092 90.8628Z" fill="#15ADFF"/>
<path d="M40.1544 74.2449L40.9643 75.0678C40.6551 75.3882 40.3498 75.7145 40.0303 76.0248C39.73 75.7853 39.471 75.5169 39.2061 75.2404C39.5128 74.9007 39.8374 74.575 40.1544 74.2449Z" fill="black"/>
<path d="M34.7385 79.6477C35.0439 79.3234 35.3838 79.0222 35.7063 78.7146C36.0124 78.886 36.292 79.2531 36.5382 79.5059C36.2173 79.8339 35.8771 80.1346 35.5325 80.437C35.2121 80.202 34.9877 79.953 34.7385 79.6477Z" fill="black"/>
<path d="M30.1477 84.2878C30.4493 83.9206 30.7905 83.5986 31.1325 83.27L31.9666 84.06L30.957 85.0379C30.6923 84.995 30.3266 84.4869 30.1477 84.2878Z" fill="black"/>
<path d="M25.5573 88.8832C25.8627 88.5524 26.2018 88.2451 26.5255 87.9319C26.8409 88.0595 27.1566 88.4295 27.4106 88.6598C27.1049 89.01 26.7512 89.3185 26.4117 89.6355L26.2926 89.6589C25.9927 89.4542 25.7842 89.1625 25.5573 88.8832Z" fill="black"/>
<path d="M20.9906 93.523C21.2836 93.1746 21.6019 92.8672 21.934 92.5564C22.2769 92.6208 22.609 93.0489 22.847 93.2931C22.4987 93.6121 22.1736 93.9219 21.8808 94.2937C21.536 94.0999 21.2699 93.7993 20.9906 93.523Z" fill="black"/>
<path d="M16.483 98.1032C16.8558 97.7288 17.2351 97.3804 17.642 97.0432L18.352 97.8651C17.9641 98.2207 17.6178 98.5831 17.2798 98.9863C17.0227 98.6847 16.7505 98.3956 16.483 98.1032Z" fill="black"/>
<path d="M40.504 103.891C37.8392 103.407 35.149 103.045 32.474 102.618C31.3539 102.439 30.211 102.323 29.1091 102.048C26.904 103.815 24.8325 105.755 22.6766 107.582C21.0935 108.923 19.529 110.271 17.98 111.652C17.3768 112.19 16.6714 112.7 16.1535 113.32C19.5519 113.801 22.9445 114.321 26.3312 114.878C26.9223 114.97 28.8178 115.124 29.2443 115.261C29.3453 115.293 29.3668 115.317 29.4412 115.374C28.3722 116.511 27.2372 117.588 26.2153 118.768C24.6186 118.622 22.9424 118.132 21.3699 117.795C18.4864 117.177 15.5839 116.589 12.7233 115.873C16.4228 112.189 20.2131 108.579 23.9601 104.942C26.011 102.951 27.9832 100.862 30.095 98.9373C31.2642 99.221 32.4958 99.3563 33.6821 99.567L43.0748 101.187C42.2451 102.11 41.3661 102.997 40.504 103.891Z" fill="white"/>
<path d="M11.8445 102.736L12.9178 101.715C13.243 101.84 13.5095 102.222 13.7383 102.476C13.4052 102.841 13.0275 103.178 12.6727 103.522C12.35 103.415 12.0619 102.989 11.8445 102.736Z" fill="black"/>
<path d="M29.1091 102.048C30.211 102.323 31.3538 102.439 32.474 102.618C35.1489 103.045 37.8391 103.407 40.504 103.891L32.265 112.417C31.4187 113.285 30.3119 114.632 29.4412 115.374C29.3668 115.317 29.3452 115.293 29.2443 115.261C28.8177 115.124 26.9222 114.97 26.3312 114.878C22.9445 114.321 19.5519 113.801 16.1534 113.32C16.6714 112.7 17.3767 112.19 17.98 111.652C19.529 110.271 21.0935 108.923 22.6765 107.582C24.8325 105.755 26.9039 103.815 29.1091 102.048Z" fill="url(#paint2_linear_99_872)"/>
<path d="M7.17126 107.357L8.26511 106.323C8.55525 106.405 8.85356 106.821 9.05621 107.041C8.7181 107.429 8.338 107.777 7.96512 108.131C7.69711 108.042 7.36332 107.57 7.17126 107.357Z" fill="black"/>
<path d="M48.0437 112.683C49.0359 111.631 49.984 110.533 51 109.504C51.9034 113.919 52.7304 118.357 53.7268 122.751C49.8559 127.33 45.9397 131.87 41.9782 136.37C40.4395 138.12 38.9836 140.029 37.3532 141.689C36.6841 139.435 36.1969 137.115 35.6307 134.832C35.037 132.438 34.3622 130.033 33.854 127.621C34.8495 126.517 35.837 125.397 36.8941 124.351C37.3293 125.141 37.7654 127.355 38.0213 128.374C38.6919 131.046 39.3079 133.751 40.1224 136.383C41.7549 134.429 43.4654 132.496 45.1709 130.603C47.0218 128.549 48.9177 126.491 50.5601 124.264C50.2745 122.599 48.6284 113.54 48.0437 112.683Z" fill="white"/>
<path d="M36.8942 124.351L48.0437 112.683C48.6284 113.54 50.2745 122.599 50.5601 124.264C48.9178 126.491 47.0218 128.549 45.171 130.603C43.4655 132.496 41.755 134.429 40.1224 136.383C39.3079 133.751 38.692 131.046 38.0214 128.374C37.7655 127.355 37.3294 125.141 36.8942 124.351Z" fill="#A3E8FB"/>
<path d="M76.6885 118.531L76.5398 118.561C76.4078 118.494 76.2572 118.426 76.1575 118.314C76.0535 118.197 75.9893 118.034 75.9972 117.877C76.0207 117.41 76.3596 117.16 76.6699 116.859C77.1524 116.942 77.3275 117.219 77.6116 117.583C77.3226 117.923 77.0137 118.226 76.6885 118.531Z" fill="black"/>
<path d="M24.0612 120.229C25.1586 121.649 27.0719 123.32 28.3869 124.623C30.1672 126.387 31.8394 128.307 33.8056 129.866C34.0207 130.61 34.1704 131.369 34.3759 132.114C32.5498 131.853 30.6937 131.722 28.8571 131.556L22.0769 130.94C22.3822 128.793 22.8325 126.656 23.2105 124.519C23.4448 123.197 23.5844 121.46 24.0612 120.229Z" fill="#15ADFF"/>
<path d="M71.3479 122.25C71.6715 121.907 72.0228 121.586 72.3644 121.26C72.6462 121.377 72.9455 121.79 73.1621 122.016C72.8801 122.419 72.5303 122.752 72.1597 123.071C71.8057 122.926 71.5591 122.552 71.3479 122.25Z" fill="black"/>
<path d="M66.9032 126.591C67.1896 126.207 67.4915 125.905 67.8468 125.587C68.2147 125.778 68.466 126.131 68.7275 126.443C68.4382 126.785 68.152 127.048 67.7973 127.316C67.4367 127.272 67.1313 126.849 66.9032 126.591Z" fill="black"/>
<path d="M62.5157 130.898C62.784 130.541 63.0768 130.266 63.4177 129.982C63.7452 130.053 64.0513 130.522 64.263 130.771C63.9802 131.117 63.6734 131.415 63.3482 131.72C62.97 131.555 62.7589 131.215 62.5157 130.898Z" fill="black"/>
<path d="M58.1161 135.393C58.4442 135.078 58.7823 134.798 59.1448 134.522C59.4885 134.632 59.7112 134.989 59.9184 135.267C59.5905 135.638 59.2259 135.965 58.8602 136.298C58.4698 136.089 58.3141 135.777 58.1161 135.393Z" fill="black"/>
<path d="M54.1267 140.804C54.053 140.794 54.025 140.794 53.9485 140.759C53.7194 140.657 53.5869 140.539 53.4758 140.323C53.4899 139.808 54.0202 139.392 54.3549 139.046C54.704 139.13 54.9448 139.489 55.1726 139.748C54.8456 140.119 54.4807 140.459 54.1267 140.804Z" fill="black"/>
<path d="M49.1116 145.561C49.0407 145.519 48.9698 145.477 48.9023 145.429C48.6917 145.281 48.5937 145.142 48.5546 144.884C48.6611 144.326 49.2132 143.963 49.6135 143.6C49.8959 143.796 50.0787 144.026 50.2869 144.293C49.9945 144.788 49.5348 145.181 49.1116 145.561Z" fill="black"/>
</g>
<defs>
<linearGradient id="paint0_linear_99_872" x1="59.3912" y1="82.1839" x2="52.1845" y2="37.5295" gradientUnits="userSpaceOnUse">
<stop stop-color="#409AFF"/>
<stop offset="1" stop-color="#6BC8FD"/>
</linearGradient>
<linearGradient id="paint1_linear_99_872" x1="70.4349" y1="102.946" x2="124.457" y2="96.0337" gradientUnits="userSpaceOnUse">
<stop stop-color="#3389FD"/>
<stop offset="1" stop-color="#6CCCFF"/>
</linearGradient>
<linearGradient id="paint2_linear_99_872" x1="30.7169" y1="114.544" x2="26.1591" y2="103.362" gradientUnits="userSpaceOnUse">
<stop stop-color="#9AD2F5"/>
<stop offset="1" stop-color="#C8F4F6"/>
</linearGradient>
<clipPath id="clip0_99_872">
<rect width="150" height="150" fill="white"/>
</clipPath>
</defs>
</svg>
