<svg width="33" height="32" viewBox="0 0 33 32" fill="none" xmlns="http://www.w3.org/2000/svg">
<path d="M12.4049 28.0242C11.6942 28.7349 10.7525 29.125 9.7508 29.125C8.74909 29.125 7.80744 28.7349 7.09919 28.0266L0.864324 21.7563C0.377752 21.2668 0.379949 20.4753 0.869451 19.9885C1.35895 19.5017 2.15046 19.5042 2.63703 19.9937L8.86945 26.2615C9.10309 26.4949 9.41681 26.625 9.7508 26.625C10.0845 26.625 10.3985 26.4949 10.6346 26.2588L16.8643 19.9937C17.3511 19.5042 18.1426 19.5017 18.6321 19.9885C18.8778 20.2329 19.0008 20.554 19.0008 20.875C19.0008 21.1938 18.8797 21.5125 18.6373 21.7563L12.4049 28.0242ZM8.5008 1.25L8.5008 21.6875C8.5008 22.3779 9.06037 22.9375 9.7508 22.9375C10.4412 22.9375 11.0008 22.3779 11.0008 21.6875L11.0008 1.25C11.0008 0.55957 10.4412 0 9.7508 0C9.06037 0 8.5008 0.55957 8.5008 1.25ZM14.3643 10.2437C13.8778 10.7332 13.8799 11.5247 14.3695 12.0115C14.859 12.4983 15.6505 12.4958 16.137 12.0063L22.367 5.74121C22.6028 5.50513 22.9168 5.375 23.2508 5.375C23.5845 5.375 23.8985 5.50513 24.1321 5.73853L30.3643 12.0063C30.8511 12.4958 31.6426 12.4983 32.1321 12.0115C32.3778 11.7671 32.5008 11.446 32.5008 11.125C32.5008 10.8064 32.3797 10.4875 32.1373 10.2437L25.9024 3.97339C25.1942 3.26514 24.2525 2.875 23.2508 2.875C22.2491 2.875 21.3074 3.26514 20.5965 3.97583L14.3643 10.2437ZM23.2508 9.0625C22.5604 9.0625 22.0008 9.62207 22.0008 10.3125V30.75C22.0008 31.4404 22.5604 32 23.2508 32C23.9412 32 24.5008 31.4404 24.5008 30.75V10.3125C24.5008 9.62207 23.9412 9.0625 23.2508 9.0625Z" fill="#CFCFCF"/>
</svg>
