<svg width="18" height="17" viewBox="0 0 18 17" fill="none" xmlns="http://www.w3.org/2000/svg">
<path d="M9.71679 8.00002L17.2998 0.417002C17.5667 0.150025 17.5667 -0.282825 17.2998 -0.549767C17.0328 -0.81671 16.5999 -0.816744 16.333 -0.549767L8.74998 7.03325L1.167 -0.549767C0.900026 -0.816744 0.467175 -0.816744 0.200233 -0.549767C-0.06671 -0.282791 -0.0667442 0.15006 0.200233 0.417002L7.78321 7.99998L0.200233 15.583C-0.0667442 15.85 -0.0667442 16.2828 0.200233 16.5498C0.333704 16.6832 0.508669 16.75 0.683634 16.75C0.8586 16.75 1.03353 16.6832 1.16704 16.5498L8.74998 8.96679L16.333 16.5498C16.4664 16.6832 16.6414 16.75 16.8164 16.75C16.9913 16.75 17.1663 16.6832 17.2998 16.5498C17.5667 16.2828 17.5667 15.8499 17.2998 15.583L9.71679 8.00002Z" fill="#A0A0A0"/>
</svg>
