<svg width="150" height="148" viewBox="0 0 150 148" fill="none" xmlns="http://www.w3.org/2000/svg">
<g clip-path="url(#clip0_99_828)">
<path d="M101.413 115.721C100.501 114.386 99.7207 113.025 99.1336 111.513C94.0724 114.234 89.0492 117.025 84.0639 119.883L63.1338 131.656L52.2049 137.856C51.184 138.431 48.9154 139.91 47.9211 140.162C47.277 140.185 46.5827 140.094 46.0892 139.641C45.45 139.054 44.277 136.63 43.7889 135.763L39.1035 127.435L14.2219 84.0123L7.69302 72.6353C6.68777 70.8896 5.54433 69.18 4.63376 67.3869C4.46345 67.0514 4.31993 66.7057 4.3101 66.3238C4.29652 65.7962 4.54589 65.2018 4.91886 64.8306C5.51233 64.2399 7.98728 63.0068 8.86381 62.5063C13.295 59.9769 17.7413 57.4745 22.2027 54.999L74.4805 25.685L86.0102 19.1915L89.9986 16.9291C90.5789 16.6009 91.1615 16.2024 91.7684 15.929C92.0973 15.7807 92.4591 15.7259 92.8178 15.7308C93.3994 15.7387 93.9777 15.9351 94.393 16.3545C95.0863 17.0545 96.0592 19.0234 96.6403 19.9883C98.9063 23.7508 101.077 27.5765 103.3 31.3652C104.325 33.1119 105.375 35.1875 106.59 36.7809C107.101 37.45 108.189 37.8556 108.883 38.3324C109.543 38.7851 110.185 39.3297 110.749 39.8961C113.641 42.8036 114.51 45.9763 114.493 49.9658C115.99 52.2401 117.294 54.7004 118.652 57.0632L124.364 66.8352L131.418 78.8629C132.721 81.0884 134.109 83.3165 135.303 85.6006C135.448 85.8782 135.548 86.1637 135.524 86.4808C135.497 86.8333 135.341 87.162 135.064 87.3852C134.239 88.0495 133.09 88.5448 132.16 89.0641C130.447 90.0208 128.812 91.0491 127.296 92.3011C130.071 94.9639 132.146 98.1755 132.915 101.986C133.1 102.9 133.117 103.801 133.261 104.709C133.3 104.957 133.419 104.981 133.612 105.122C133.594 105.145 133.58 105.17 133.56 105.191C133.417 105.335 133.294 105.376 133.254 105.6C133.192 105.952 133.231 106.383 133.217 106.745C133.195 107.268 133.128 107.793 133.05 108.311C132.546 111.689 131.05 115.197 128.658 117.676C126.009 120.422 122.515 121.848 118.811 122.461C117.843 122.622 116.872 122.779 115.888 122.789C115.355 122.795 114.908 122.804 114.506 122.414C114.988 122.318 115.544 122.351 116.037 122.334C117.061 122.3 118.032 122.225 119.032 121.989C119.703 121.019 120.427 120.149 120.946 119.073C121.237 118.471 122.187 115.998 122.484 115.7L122.619 115.7L122.68 115.832C122.462 117.487 120.591 120.58 119.572 121.91C122.434 121.434 125.364 120.174 127.508 118.188C127.365 117.853 127.217 117.517 127.04 117.199C125.448 114.342 122.275 111.953 119.134 111.086C115.309 110.03 112.361 110.759 109.009 112.676C109.652 114.796 110.433 116.948 111.528 118.88C111.989 119.693 112.681 120.413 113.057 121.259L112.99 121.408L113.067 121.412C113.041 121.403 112.918 121.365 112.896 121.355C112.465 121.154 111.987 120.401 111.738 120.008C110.326 117.786 109.4 115.388 108.673 112.869C106.641 114.066 105.023 115.772 103.57 117.602C106.187 120.092 109.155 121.455 112.645 122.238C112.343 122.462 112.151 122.512 111.777 122.454C111.176 122.36 110.553 122.121 109.974 121.934C106.436 120.789 103.647 118.664 101.413 115.721ZM105.345 36.4536C102.912 34.0536 100.039 32.4013 96.5542 32.4128C93.1024 32.4243 89.312 34.0776 86.9053 36.5494C85.682 37.8058 84.7878 39.4081 83.8032 40.8528C81.885 43.6382 79.9992 46.4452 78.1458 49.2739L72.684 57.3938C71.5884 59.0053 70.3954 60.6086 69.4096 62.2891C70.0322 62.525 70.6454 62.7577 71.2393 63.0615C73.0899 64.1014 74.7191 65.5836 76.4187 66.8526L87.0663 51.1911L90.7452 45.7286C91.3358 44.8649 91.9092 43.9473 92.5722 43.1386C92.9338 42.6972 93.3986 42.3357 93.8976 42.0607C93.9681 42.0213 94.0395 41.9836 94.1118 41.9478C94.1842 41.9119 94.2574 41.8778 94.3314 41.8456C94.4055 41.8132 94.4803 41.7828 94.5558 41.7543C94.6314 41.7258 94.7077 41.6992 94.7845 41.6745C94.8614 41.6497 94.9388 41.6268 95.0168 41.6059C95.0949 41.585 95.1734 41.5661 95.2524 41.5491C95.3313 41.5321 95.4106 41.517 95.4904 41.504C95.5701 41.4909 95.6501 41.4798 95.7304 41.4707C95.8105 41.4616 95.891 41.4545 95.9716 41.4495C96.0522 41.4444 96.1329 41.4413 96.2136 41.4402C96.2945 41.4392 96.3752 41.4401 96.4559 41.443C96.5367 41.4459 96.6173 41.4509 96.6977 41.4578C96.7782 41.4648 96.8584 41.4738 96.9384 41.4846C97.0185 41.4956 97.0982 41.5085 97.1776 41.5234C97.257 41.5383 97.336 41.5551 97.4145 41.574C97.493 41.5928 97.571 41.6136 97.6486 41.6362C97.9584 41.7291 98.2097 41.8688 98.4762 42.0498C99.3078 42.614 100.079 43.3056 100.876 43.9214C101.937 44.7404 103.126 45.527 104.081 46.4605C104.441 46.8123 104.668 47.1514 104.908 47.5873C105.401 48.9604 105.5 50.3749 104.862 51.7272C104.255 53.0148 102.612 55.0004 101.765 56.3386C102.607 56.4222 103.401 56.591 104.214 56.8227C106.057 57.3514 107.706 58.5789 108.989 59.9688C109.312 59.6437 109.626 59.3102 109.931 58.9684C112.619 55.9072 114.333 52.1525 114.025 48.0188C114.016 47.9059 114.005 47.793 113.992 47.6802C113.98 47.5675 113.966 47.455 113.951 47.3427C113.935 47.2303 113.918 47.1181 113.9 47.0062C113.881 46.8943 113.861 46.7827 113.84 46.6713C113.818 46.56 113.795 46.449 113.771 46.3382C113.747 46.2275 113.721 46.1171 113.693 46.0072C113.666 45.8971 113.637 45.7874 113.606 45.6782C113.576 45.569 113.544 45.4602 113.51 45.3518C113.477 45.2434 113.442 45.1355 113.406 45.0281C113.37 44.9207 113.332 44.8137 113.293 44.7073C113.254 44.6008 113.213 44.495 113.171 44.3897C113.129 44.2843 113.085 44.1796 113.04 44.0755C112.995 43.9713 112.949 43.8678 112.902 43.7649C112.854 43.662 112.805 43.5598 112.754 43.4582C112.704 43.3566 112.652 43.2558 112.599 43.1556C112.546 43.0555 112.491 42.9561 112.435 42.8573C112.379 42.7587 112.322 42.6608 112.264 42.5636C112.205 42.4665 112.145 42.3701 112.084 42.2746C112.023 42.1791 111.961 42.0844 111.897 41.9906C111.833 41.8967 111.768 41.8038 111.702 41.7117C111.636 41.6196 111.569 41.5284 111.5 41.4382C111.431 41.3479 111.361 41.2586 111.29 41.1703C111.219 41.0819 111.147 40.9945 111.074 40.9081C111 40.8216 110.926 40.7362 110.85 40.6519C110.774 40.5675 110.697 40.4841 110.619 40.4018C110.541 40.3195 110.462 40.2382 110.382 40.1581C110.302 40.0779 110.22 39.9988 110.138 39.9209C110.056 39.8429 109.972 39.766 109.888 39.6903C109.803 39.6145 109.718 39.54 109.631 39.4666C109.545 39.3932 109.458 39.321 109.369 39.25C109.281 39.1789 109.192 39.109 109.101 39.0404C109.011 38.9717 108.92 38.9043 108.828 38.8382C107.724 38.043 106.474 37.4351 105.444 36.5406L105.345 36.4536ZM104.849 49.3529C104.778 48.1633 104.403 47.2831 103.497 46.4802C102.467 45.568 101.282 44.7796 100.185 43.9479C99.4004 43.3533 98.6521 42.5573 97.759 42.134C97.2172 41.8772 96.6091 41.811 96.0167 41.8543C94.7236 41.9491 93.5587 42.6125 92.7431 43.6044C91.9893 44.5212 91.3631 45.5976 90.6988 46.5848L86.8597 52.2668L80.5852 61.5168C79.3203 63.3795 78.0232 65.2302 76.812 67.1283C77.7052 67.9188 78.6576 68.645 79.6029 69.3714C81.9222 71.2557 83.213 73.327 83.6912 76.3227C83.7216 76.5061 83.7475 76.6901 83.7687 76.8747C83.79 77.0593 83.8068 77.2444 83.819 77.4298C83.8313 77.6153 83.839 77.8009 83.8421 77.9868C83.8453 78.1726 83.8438 78.3584 83.8379 78.5441C83.8319 78.73 83.8214 78.9155 83.8064 79.1008C83.7913 79.2859 83.7718 79.4707 83.7476 79.6551C83.7236 79.8394 83.6951 80.0229 83.662 80.2059C83.6289 80.3887 83.5913 80.5706 83.5493 80.7517C83.5072 80.9327 83.4608 81.1126 83.41 81.2915C83.3591 81.4703 83.3039 81.6477 83.2445 81.8238C83.1849 81.9999 83.1211 82.1744 83.053 82.3473C82.9849 82.5203 82.9127 82.6914 82.8362 82.8607C82.7598 83.0302 82.6793 83.1976 82.5947 83.363C82.51 83.5286 82.4213 83.6918 82.3287 83.8529C82.236 84.014 82.1394 84.1728 82.0389 84.3292C81.9385 84.4856 81.8343 84.6394 81.7263 84.7907C82.0073 84.6208 82.3093 84.4523 82.5526 84.2304C83.1794 83.6583 83.6543 82.7484 84.1309 82.0438L86.6308 78.3568C91.071 71.8112 95.4498 65.2248 99.7672 58.5975C100.718 57.1504 101.657 55.6861 102.636 54.2585C103.201 53.4341 103.877 52.6256 104.35 51.7451C104.766 50.9702 104.82 50.2089 104.849 49.3529ZM103.334 57.0288C102.714 56.8999 102.111 56.7937 101.479 56.7449L96.5926 64.1934C95.7102 65.5353 94.7154 66.8739 93.983 68.3031C93.0101 69.3994 91.8276 71.4309 90.9684 72.7183L85.5273 80.7837C84.7392 81.9659 83.9857 83.4244 82.9758 84.4252C82.4441 84.9521 81.8165 85.2587 81.0909 85.4154C80.0665 85.6368 79.229 85.4917 78.3569 84.9282C77.2795 84.2323 76.257 83.3947 75.2283 82.6254C74.1787 81.8403 72.9115 81.0783 72.0433 80.0975C71.6412 79.6432 71.3996 79.2282 71.2758 78.6306C71.037 77.4773 71.4529 76.5915 72.072 75.6542C70.8803 74.8264 69.7434 73.8955 68.5902 73.0135C68.0223 72.5792 67.442 72.0599 66.7937 71.7533C66.4584 71.5948 66.1013 71.5655 65.7367 71.6154C64.9931 71.7174 64.4349 72.0594 63.9991 72.6643C62.4734 74.7821 62.1257 77.9849 62.5455 80.4974C63.3323 85.2048 66.0581 86.9964 69.6556 89.5526C71.0344 90.5324 72.3758 91.565 73.7564 92.5398C76.1911 94.2591 79.6127 94.7733 82.5075 94.2481C82.6532 94.2215 82.7983 94.1922 82.9429 94.1604C83.0875 94.1286 83.2315 94.0941 83.3748 94.057C83.5183 94.02 83.661 93.9804 83.8029 93.9382C83.9449 93.8961 84.086 93.8514 84.2264 93.8041C84.3667 93.757 84.5061 93.7073 84.6447 93.655C84.7833 93.6028 84.9209 93.548 85.0575 93.4908C85.194 93.4337 85.3295 93.3741 85.464 93.3121C85.5985 93.25 85.7318 93.1855 85.8639 93.1187C85.9961 93.0519 86.127 92.9828 86.2566 92.9112C86.3863 92.8397 86.5147 92.7659 86.6417 92.6897C86.7687 92.6136 86.8943 92.5352 87.0185 92.4546C87.1427 92.3739 87.2654 92.2911 87.3866 92.206C87.5078 92.1209 87.6275 92.0337 87.7456 91.9444C87.8637 91.8551 87.9801 91.7637 88.0949 91.6702C88.2097 91.5766 88.3228 91.481 88.4343 91.3835C88.5456 91.2859 88.6552 91.1864 88.763 91.0848C90.0879 89.8149 91.0707 88.1683 92.0864 86.649L95.5689 81.4354L109.325 61.2953C108.08 59.0496 105.724 57.7313 103.334 57.0288ZM78.7272 69.2658C77.3886 68.1726 76.0263 67.1153 74.6658 66.0501C72.3504 64.2373 70.9994 63.0745 68.0155 62.4679C66.8296 62.227 65.6586 62.1364 64.4532 62.258C61.1769 62.5883 57.9304 64.0029 55.8359 66.6074C54.6925 68.0292 53.7162 69.6558 52.6918 71.1663L46.2619 80.7281L39.5461 90.7031C38.9431 91.5959 38.3589 92.5026 37.7507 93.3914C36.9353 94.5824 36.097 95.7227 35.4994 97.0466C35.3821 97.3022 35.2734 97.5615 35.1734 97.8244C35.0735 98.0873 34.9825 98.3532 34.9002 98.6222C34.8179 98.8911 34.7447 99.1625 34.6807 99.4363C34.6165 99.7102 34.5615 99.9858 34.5157 100.263C34.47 100.541 34.4335 100.82 34.4063 101.1C34.3791 101.379 34.3613 101.66 34.3528 101.941C34.3444 102.222 34.3454 102.503 34.3556 102.784C34.3659 103.065 34.3855 103.346 34.4145 103.626C34.7075 106.3 35.9224 109.168 38.0683 110.883L38.1449 110.943C38.5309 111.391 39.2535 111.793 39.735 112.16C41.1135 113.21 42.4847 114.271 43.8485 115.34C44.9272 115.226 45.8886 115.001 46.7359 114.277C48.7978 112.513 48.3245 109.808 48.4821 107.401L46.3319 105.93C44.9176 104.963 43.5153 104.079 43.1703 102.252C43.0254 101.485 43.0905 100.721 43.4302 100.011C43.9399 98.9447 44.7298 97.9579 45.3901 96.9758C46.8111 94.8533 48.2479 92.7416 49.7006 90.6407C53.6136 84.8959 57.3891 79.0557 61.3272 73.3281C62.1852 72.0802 63.0087 71.2126 64.5737 70.953C65.6644 70.7721 66.6591 71.0459 67.5544 71.6746C68.4786 72.3237 69.3528 73.0543 70.2517 73.7381C71.4289 74.6334 72.9222 75.5137 73.8419 76.6674C74.2826 77.2201 74.5326 77.8054 74.6595 78.4998C74.5531 79.4358 74.2442 80.124 73.7331 80.9017L74.911 81.8005C74.9184 81.8093 74.9248 81.8191 74.9334 81.8266C75.8003 82.5859 78.0406 84.3224 79.0368 84.7738C79.5038 84.9855 80.0231 85.0917 80.5352 85.03C80.9023 84.9859 81.1462 84.8812 81.3658 84.5768C83.0085 82.2997 83.6486 79.3751 83.2497 76.6233C82.7542 73.2048 81.4282 71.2962 78.7272 69.2658ZM116.622 72.5695C116.372 72.3136 116.126 72.052 115.872 71.8015C114.445 73.3107 113.107 74.9184 111.729 76.4729C110.016 78.4042 108.252 80.3132 106.639 82.3289C107.173 82.3545 107.708 82.3864 108.243 82.3858C109.435 82.3942 110.713 82.495 111.895 82.3788C112.185 83.077 111.977 98.0837 111.999 100.265C112.811 100.261 113.627 100.275 114.438 100.254C115.543 100.163 116.696 100.216 117.806 100.219L117.861 100.3C117.822 100.419 117.79 100.496 117.724 100.605C117.014 100.698 116.225 100.633 115.506 100.635C114.203 100.636 112.899 100.648 111.595 100.671C111.615 98.4496 111.622 96.2286 111.616 94.0075C110.864 95.196 110.26 96.4176 109.594 97.651C108.453 96.8396 106.985 95.1959 105.944 94.1702C105.374 93.5868 104.793 92.9891 104.159 92.4744C100.666 95.8754 98.7709 100.08 98.5228 104.949L100.993 104.957L107.715 104.958C107.754 103.636 108.31 99.1841 109.203 98.1673L109.306 98.1648C109.509 98.5362 109.176 99.2093 109.057 99.5938C108.514 101.357 108.248 103.122 108.099 104.956L124.08 105.02C124.079 102.365 123.266 99.5144 122.207 97.1011L122.138 97.1667C121.922 97.3681 121.759 97.5643 121.451 97.5539L121.43 97.4327C121.563 97.1506 121.807 97.011 122.053 96.8342C121.448 95.7473 120.813 94.7008 120.092 93.6865C120.035 95.9833 120.249 98.3295 120.079 100.615C119.692 100.632 119.293 100.66 118.906 100.647C118.624 100.637 118.134 100.583 117.935 100.373C118.27 100.103 119.264 100.213 119.705 100.221C119.745 98.3953 119.7 96.5654 119.696 94.7387C119.689 90.6295 119.664 86.5009 119.74 82.3936L125.641 82.3918C124.712 81.2516 123.653 80.1898 122.658 79.1049C120.666 76.9081 118.654 74.7296 116.622 72.5695ZM62.0264 80.0433C61.7703 77.2992 62.1103 74.2072 63.9485 72.0065C64.119 71.8025 64.309 71.6169 64.5018 71.4342C63.7782 71.6537 62.9876 71.8662 62.4777 72.4675C61.4448 73.6857 60.3273 75.5931 59.4137 76.9523L53.08 86.397C51.0215 89.4709 48.9452 92.5326 46.851 95.5823C45.8825 97.0214 44.7544 98.4934 43.9449 100.025C43.5087 100.85 43.4057 101.577 43.6805 102.497C43.9563 103.419 44.5684 104.098 45.3493 104.633C47.5385 106.178 49.6657 107.813 51.8561 109.353C52.3599 109.708 52.9341 109.978 53.5584 109.851C53.6293 109.837 53.6995 109.82 53.7689 109.8C53.8384 109.78 53.907 109.757 53.9746 109.731C54.0421 109.706 54.1085 109.677 54.1738 109.646C54.239 109.615 54.3028 109.581 54.3652 109.544C54.4276 109.508 54.4884 109.469 54.5476 109.427C54.6068 109.386 54.6641 109.342 54.7196 109.296C54.7751 109.249 54.8287 109.201 54.8801 109.15C54.9317 109.099 54.981 109.047 55.0281 108.992C55.5783 108.357 56.0086 107.559 56.475 106.859L59.2404 102.73C62.2685 98.2205 65.3639 93.7372 68.2843 89.1571C67.5466 88.5118 66.6881 87.989 65.9259 87.3665C63.5784 85.4491 62.5183 82.98 62.0264 80.0433ZM120.107 88.4056L120.105 90.417L120.106 92.9888C120.891 94.1491 121.633 95.2753 122.29 96.5156C123.653 95.1856 124.979 93.6038 126.472 92.4335C126.6 92.322 126.554 92.3922 126.601 92.2183C126.344 91.7998 125.876 91.4882 125.488 91.1961C123.819 89.9392 122.089 89.0632 120.107 88.4056ZM111.61 90.5547L111.606 88.473C108.965 88.9857 106.491 90.5167 104.461 92.2319L106.201 93.8579C107.288 94.9259 108.356 95.9966 109.476 97.0316C110.097 95.8045 110.747 94.4934 111.613 93.4211C111.624 92.4662 111.611 91.5096 111.61 90.5547ZM100.994 105.367L98.5133 105.381C98.5685 109.087 99.5943 112.524 101.773 115.538C102.123 116.023 102.491 116.612 102.921 117.025C102.995 117.096 103.071 117.144 103.158 117.196C103.326 117.139 103.252 117.186 103.376 117.049C103.932 116.528 104.431 115.92 104.957 115.366C106.04 114.225 107.233 113.227 108.578 112.411C107.949 110.107 107.743 107.721 107.708 105.343C105.483 105.274 103.22 105.33 100.994 105.367ZM92.6441 16.1365C92.3182 16.1917 92.0428 16.271 91.7489 16.4248C88.3692 18.1957 85.1035 20.2275 81.7697 22.0876L22.6889 55.2126C18.3558 57.6191 14.037 60.0512 9.73255 62.5089C8.3425 63.3017 6.89564 64.0311 5.53018 64.8612C5.35688 64.9667 5.19999 65.0879 5.07888 65.2523C4.84332 65.5721 4.69844 66.1053 4.77995 66.4981C4.98546 67.489 8.92289 73.9242 9.69804 75.3345C10.0411 75.1283 10.3819 74.9125 10.7312 74.7174L75.4177 38.1889L91.1464 29.302L96.212 26.5265C97.1476 26.0047 98.1384 25.5042 98.9926 24.8567C98.059 23.135 97.001 21.4788 96.0085 19.7906C95.438 18.8201 94.9304 17.6707 94.2352 16.7934C94.0248 16.5281 93.7566 16.3048 93.4285 16.2033C93.1826 16.1273 92.8997 16.1308 92.6441 16.1365ZM99.1736 25.2626C98.1081 25.9845 96.9538 26.5814 95.8287 27.2046L90.985 29.8861L77.8861 37.2662L33.6194 62.2533L18.7247 70.671C16.8059 71.7456 14.8941 72.8326 12.9895 73.9321C11.9897 74.4997 10.9323 75.0281 9.96835 75.6518C11.323 78.2824 12.8877 80.8117 14.3614 83.3775L24.2549 100.546L38.2837 125.139L43.5061 134.381C44.3032 135.801 45.0396 137.29 45.8858 138.677C46.1535 139.116 46.5334 139.539 47.0391 139.695C47.7387 139.912 48.3462 139.576 48.9368 139.238L82.1779 120.472C87.7683 117.338 93.3084 114.073 98.9908 111.108C97.5778 105.932 97.8308 101.078 100.552 96.3503C102.779 92.4807 106.705 89.3052 111.044 88.1553C111.231 88.1059 111.419 88.0588 111.608 88.0141L111.614 82.8323C109.625 82.7629 107.629 82.7739 105.638 82.7606L112.067 75.4836C113.332 74.0506 114.698 72.638 115.844 71.1127C118.088 73.3521 120.214 75.764 122.346 78.1117C123.768 79.6779 125.252 81.204 126.635 82.8021C124.823 82.824 123.01 82.8271 121.198 82.8114L120.116 82.8168L120.121 87.9644C122.756 88.8925 124.912 90.0708 126.98 91.9853C127.669 91.4321 128.378 90.9069 129.108 90.4095C129.838 89.9121 130.587 89.444 131.354 89.0053C132.358 88.4245 133.442 87.9111 134.399 87.2597C134.6 87.123 135.056 86.8234 135.087 86.5877C135.122 86.3222 135.051 86.1055 134.933 85.8691C134.234 84.4655 133.392 83.1008 132.603 81.7451L128.657 75.0055L120.663 61.3504C118.547 57.7936 116.475 54.2118 114.445 50.6052C113.701 54.6774 112.195 57.4026 109.281 60.3247C109.468 60.6616 109.658 60.9946 109.813 61.3475C105.339 68.0916 100.669 74.7161 96.1232 81.4132L92.3573 87.0433C91.4245 88.4446 90.5315 89.9686 89.335 91.1636C89.2243 91.273 89.1118 91.3804 88.9974 91.4857C88.8828 91.5911 88.7664 91.6944 88.6483 91.7956C88.5301 91.8967 88.4101 91.9957 88.2884 92.0926C88.1666 92.1895 88.0431 92.2841 87.9179 92.3765C87.7928 92.469 87.6661 92.5592 87.5376 92.6471C87.4092 92.735 87.2793 92.8205 87.1478 92.9037C87.0164 92.9869 86.8835 93.0677 86.7491 93.1461C86.6147 93.2247 86.479 93.3007 86.3419 93.3742C86.2049 93.4477 86.0665 93.5188 85.9269 93.5875C85.7872 93.6562 85.6464 93.7222 85.5043 93.7857C85.3623 93.8493 85.2192 93.9102 85.0749 93.9686C84.9308 94.027 84.7856 94.0829 84.6394 94.1361C84.4932 94.1893 84.346 94.2398 84.1981 94.2877C84.05 94.3356 83.9012 94.3809 83.7514 94.4235C83.6018 94.4661 83.4515 94.5059 83.3004 94.543C83.1494 94.5802 82.9977 94.6147 82.8453 94.6464C80.6751 95.0879 78.4979 94.9183 76.3862 94.2874L66.6251 108.554C64.9483 110.982 63.1497 114.091 61.0117 116.052C60.9055 116.151 60.7976 116.248 60.6879 116.344C60.5783 116.439 60.4669 116.533 60.3539 116.624C60.241 116.716 60.1264 116.805 60.0103 116.893C59.8942 116.98 59.7766 117.066 59.6574 117.149C59.5382 117.232 59.4176 117.313 59.2956 117.392C59.1735 117.471 59.0501 117.548 58.9253 117.623C58.8005 117.697 58.6744 117.77 58.5471 117.84C58.4197 117.91 58.2912 117.978 58.1615 118.044C58.0317 118.109 57.9008 118.173 57.7688 118.233C57.6369 118.295 57.5039 118.353 57.3698 118.409C57.2357 118.466 57.1006 118.519 56.9646 118.571C56.8287 118.622 56.6918 118.671 56.5541 118.718C56.4163 118.764 56.2778 118.809 56.1386 118.85C55.9993 118.892 55.8593 118.931 55.7186 118.968C55.578 119.005 55.4367 119.039 55.2948 119.071C55.1529 119.102 55.0105 119.131 54.8675 119.158C51.4136 119.784 47.755 118.729 44.9139 116.742C43.6183 115.836 42.4266 114.78 41.1696 113.821C37.5825 111.084 34.937 109.357 34.1045 104.558C33.6636 102.016 33.9838 99.4835 34.9889 97.1091C35.7031 95.4221 36.8262 93.9651 37.8431 92.4546L41.7953 86.5816L51.2965 72.4517C52.5257 70.6403 53.7137 68.7887 54.9809 67.0048C56.9924 64.1731 60.0482 62.5171 63.4382 61.9542C65.3148 61.6426 67.0789 61.7837 68.9312 62.1793L80.636 44.764L83.6885 40.2336C84.6843 38.747 85.5975 37.1898 86.9037 35.9491C88.8961 34.0562 91.5254 32.7391 94.2173 32.204C97.3338 31.5846 100.321 32.2004 102.952 33.9685C103.895 34.6028 104.775 35.3415 105.636 36.0824C104.814 34.8186 99.404 25.4 99.1736 25.2626ZM72.3755 75.9104C71.8363 76.9532 71.4723 77.6304 71.8534 78.8105C72.0699 79.4808 72.5291 80.2604 73.1905 80.5719C73.3338 80.6395 73.2706 80.6373 73.3984 80.5993C73.8673 79.7469 74.3832 78.9307 74.0712 77.9201C73.805 77.0585 73.0934 76.4118 72.3755 75.9104ZM68.6287 89.4209C65.4719 94.2789 62.266 99.1042 59.011 103.897C58.2557 105.017 57.4921 106.132 56.7507 107.262C56.2747 107.986 55.8435 108.794 55.256 109.435C54.8491 109.879 54.2828 110.178 53.6964 110.304C52.9577 110.463 52.2775 110.225 51.6684 109.811C50.7207 109.168 49.8721 108.381 48.9298 107.726C48.8182 110.183 49.1341 112.756 47.1145 114.572C46.304 115.301 45.4089 115.551 44.3748 115.791C46.036 116.981 47.6086 117.864 49.5772 118.457C52.8904 119.216 55.973 118.954 58.9061 117.112C59.1769 116.941 59.4412 116.76 59.6992 116.57C59.9571 116.379 60.2079 116.18 60.4515 115.972C60.6952 115.764 60.931 115.547 61.1592 115.322C61.3874 115.097 61.6072 114.864 61.8186 114.623C63.3951 112.803 64.6752 110.599 66.0399 108.609L71.8029 100.23C73.1737 98.2154 74.5043 96.1605 75.9384 94.1909C73.3077 93.2233 70.9905 90.9654 68.6287 89.4209ZM127 92.5621C125.411 93.9125 123.97 95.4164 122.5 96.8919C123.698 99.5119 124.371 102.122 124.476 105.008L128.503 104.994C129.958 104.991 131.42 105.02 132.874 104.979C132.767 100.207 130.566 95.9466 127.155 92.6833C127.068 92.6 127.102 92.6288 127 92.5621ZM108.213 105.353C107.954 105.656 108.126 106.728 108.158 107.142C108.289 108.833 108.553 110.568 108.933 112.219C109.785 111.767 110.634 111.3 111.54 110.962C114.049 110.024 116.976 110.008 119.527 110.792C122.663 111.757 125.919 114.203 127.467 117.132C127.603 117.389 127.717 117.657 127.83 117.924C129.482 116.324 130.652 114.411 131.552 112.305C131.66 112.03 131.761 111.752 131.855 111.473C131.95 111.193 132.038 110.911 132.12 110.627C132.202 110.344 132.277 110.058 132.346 109.771C132.415 109.484 132.478 109.195 132.533 108.906C132.589 108.615 132.638 108.324 132.681 108.032C132.723 107.74 132.759 107.447 132.789 107.153C132.818 106.859 132.84 106.565 132.856 106.27C132.872 105.975 132.881 105.68 132.883 105.385L124.463 105.396C124.441 106.48 124.255 110.403 123.674 111.185L123.563 111.189L123.494 111.105L123.583 111.091L123.458 111.023C123.401 110.736 123.513 110.391 123.566 110.106C123.86 108.516 124.069 107.015 124.08 105.394L108.213 105.353Z" fill="black"/>
<path d="M9.69805 75.3344C8.9229 73.9241 4.98547 67.4889 4.77995 66.4981C4.69845 66.1052 4.84332 65.572 5.07888 65.2522C5.2 65.0879 5.35688 64.9666 5.53019 64.8611C6.89564 64.031 8.34251 63.3016 9.73256 62.5089C14.037 60.0512 18.3558 57.6191 22.6889 55.2125L81.7697 22.0875C85.1035 20.2275 88.3692 18.1956 91.7489 16.4247C92.0428 16.2709 92.3182 16.1917 92.6441 16.1365C92.8997 16.1307 93.1826 16.1272 93.4285 16.2033C93.7566 16.3048 94.0249 16.528 94.2352 16.7933C94.9304 17.6706 95.438 18.82 96.0085 19.7905C97.001 21.4787 98.059 23.1349 98.9926 24.8567C98.1384 25.5041 97.1476 26.0047 96.212 26.5264L91.1464 29.3019L75.4177 38.1888L10.7312 74.7173C10.382 74.9124 10.0411 75.1282 9.69805 75.3344ZM22.7885 59.9929C22.2833 60.213 21.8809 60.4641 21.6682 60.9964C21.5001 61.4167 21.528 61.8747 21.7314 62.2776C21.9383 62.6871 22.3168 62.9791 22.7565 63.1024C22.9817 63.1656 23.1991 63.1899 23.4307 63.1632C23.9828 62.9322 24.421 62.6353 24.646 62.0553C24.6647 62.0086 24.6809 61.961 24.6947 61.9125C24.7085 61.8641 24.72 61.8151 24.729 61.7656C24.7378 61.716 24.7442 61.6661 24.7481 61.6159C24.7522 61.5657 24.7536 61.5154 24.7525 61.465C24.7514 61.4147 24.7478 61.3646 24.7417 61.3146C24.7355 61.2646 24.727 61.215 24.7159 61.1659C24.7048 61.1168 24.6913 61.0683 24.6753 61.0206C24.6594 60.9727 24.6412 60.9259 24.6206 60.88C24.4389 60.4743 24.0765 60.1855 23.6589 60.0487C23.3727 59.9548 23.0847 59.9766 22.7885 59.9929ZM17.7286 62.8533C17.2432 63.0848 16.8778 63.3406 16.6884 63.8655C16.6699 63.9172 16.6541 63.9698 16.6411 64.0231C16.628 64.0765 16.6178 64.1304 16.6105 64.1848C16.6031 64.2393 16.5986 64.294 16.597 64.3489C16.5954 64.4038 16.5966 64.4587 16.6007 64.5135C16.6048 64.5683 16.6118 64.6227 16.6216 64.6767C16.6315 64.7308 16.6441 64.7842 16.6596 64.8369C16.675 64.8897 16.6931 64.9414 16.7139 64.9922C16.7348 65.0431 16.7583 65.0927 16.7844 65.141C16.9897 65.5204 17.3482 65.7907 17.7604 65.9091C18.0617 65.9956 18.339 65.9688 18.6458 65.9312C19.1174 65.72 19.4962 65.4413 19.6785 64.9374C19.6964 64.8868 19.7117 64.8355 19.7242 64.7833C19.7367 64.7311 19.7464 64.6784 19.7533 64.6253C19.7603 64.572 19.7644 64.5186 19.7658 64.4649C19.767 64.4113 19.7655 64.3577 19.7611 64.3042C19.7567 64.2507 19.7495 64.1975 19.7396 64.1448C19.7296 64.0922 19.7168 64.0401 19.7013 63.9886C19.6859 63.9373 19.6678 63.8869 19.647 63.8375C19.6261 63.788 19.6027 63.7397 19.5768 63.6928C19.5494 63.6427 19.5195 63.5941 19.4872 63.547C19.4548 63.5 19.4202 63.4548 19.3833 63.4112C19.3464 63.3677 19.3074 63.3261 19.2663 63.2865C19.2251 63.247 19.1821 63.2096 19.1372 63.1743C19.0923 63.1391 19.0457 63.1062 18.9975 63.0758C18.9492 63.0453 18.8996 63.0173 18.8485 62.9918C18.7973 62.9663 18.7451 62.9435 18.6917 62.9234C18.6383 62.9032 18.584 62.8858 18.5289 62.8711C18.2563 62.7982 18.0047 62.815 17.7286 62.8533ZM12.9034 65.637C12.3571 65.8757 11.9668 66.1584 11.7536 66.7373C11.7343 66.7889 11.7176 66.8415 11.7036 66.8949C11.6896 66.9482 11.6784 67.0022 11.6699 67.0568C11.6615 67.1113 11.6558 67.166 11.653 67.2211C11.6502 67.2763 11.6502 67.3314 11.6531 67.3865C11.6559 67.4417 11.6616 67.4965 11.67 67.551C11.6785 67.6055 11.6898 67.6595 11.7038 67.7129C11.7178 67.7662 11.7346 67.8187 11.754 67.8703C11.7734 67.922 11.7954 67.9725 11.82 68.022C12.0178 68.4101 12.3797 68.6844 12.7931 68.81C13.0459 68.8868 13.3042 68.8682 13.5646 68.8552C14.044 68.6764 14.4229 68.411 14.6481 67.9361C14.6719 67.886 14.693 67.8348 14.7115 67.7825C14.7298 67.7301 14.7454 67.6769 14.7581 67.6229C14.7709 67.5689 14.7807 67.5144 14.7876 67.4593C14.7946 67.4043 14.7985 67.3491 14.7995 67.2936C14.8006 67.2382 14.7987 67.1828 14.7938 67.1275C14.7889 67.0722 14.7812 67.0174 14.7705 66.9629C14.7598 66.9085 14.7462 66.8548 14.7298 66.8017C14.7134 66.7488 14.6942 66.6969 14.6722 66.6459C14.4953 66.2268 14.1428 65.9069 13.7206 65.745C13.4515 65.6419 13.188 65.6334 12.9034 65.637Z" fill="#15ADFF"/>
<path d="M42.0709 24.3244C42.592 24.3132 43.1195 24.3137 43.6373 24.2489C45.7817 23.9812 45.9927 22.7606 47.1443 21.292L47.197 21.2261C47.3496 22.1708 47.2651 22.9665 47.718 23.8634C48.3226 25.06 49.5629 25.7296 50.7903 26.1261C49.9749 26.1827 49.1142 26.2067 48.3292 26.457C46.8558 26.9268 46.2492 28.2018 45.5972 29.469C45.3927 28.7699 45.3929 27.9976 45.1707 27.276C44.672 25.6577 43.466 25.0536 42.0709 24.3244ZM46.8544 22.4766C45.9362 23.8524 45.3372 24.3808 43.6746 24.7259C44.8972 25.516 45.5091 26.5375 45.8149 27.944L45.9166 27.9755C46.4984 27.0704 47.1697 26.2511 48.2739 25.9855C48.5504 25.919 48.8363 25.8923 49.1187 25.866C47.986 25.1501 47.3287 24.4735 47.0177 23.1283C46.9666 22.9074 46.9216 22.6933 46.8544 22.4766Z" fill="black"/>
<path d="M43.6746 24.7258C45.3372 24.3807 45.9361 23.8523 46.8543 22.4766C46.9215 22.6932 46.9665 22.9074 47.0176 23.1283C47.3286 24.4734 47.9859 25.15 49.1186 25.8659C48.8362 25.8923 48.5503 25.9189 48.2739 25.9855C47.1697 26.251 46.4983 27.0703 45.9165 27.9754L45.8148 27.9439C45.509 26.5374 44.8971 25.516 43.6746 24.7258Z" fill="white"/>
<path d="M9.96826 75.6519C10.9322 75.0281 11.9897 74.4998 12.9894 73.9321C14.894 72.8326 16.8058 71.7456 18.7246 70.6711L33.6193 62.2534L77.886 37.2662L90.9849 29.8862L95.8286 27.2046C96.9537 26.5815 98.108 25.9846 99.1735 25.2627C99.404 25.4001 104.814 34.8186 105.636 36.0825C104.775 35.3416 103.895 34.6028 102.952 33.9686C100.321 32.2005 97.3337 31.5847 94.2172 32.204C91.5253 32.7391 88.8961 34.0563 86.9036 35.9492C85.5974 37.1899 84.6842 38.747 83.6884 40.2337L80.6359 44.764L68.9311 62.1794C67.0788 61.7837 65.3147 61.6427 63.4381 61.9543C60.0482 62.5172 56.9923 64.1732 54.9808 67.0049C53.7136 68.7888 52.5256 70.6403 51.2964 72.4518L41.7952 86.5816L37.843 92.4546C36.8261 93.9652 35.703 95.4221 34.9888 97.1092C33.9837 99.4835 33.6635 102.016 34.1045 104.558C34.9369 109.357 37.5824 111.084 41.1695 113.821C42.4265 114.78 43.6182 115.836 44.9138 116.742C47.7549 118.729 51.4135 119.784 54.8674 119.158C55.0104 119.131 55.1528 119.102 55.2947 119.071C55.4366 119.039 55.5779 119.005 55.7185 118.968C55.8592 118.931 55.9992 118.892 56.1385 118.85C56.2777 118.809 56.4163 118.765 56.5541 118.718C56.6918 118.671 56.8286 118.622 56.9645 118.571C57.1005 118.519 57.2356 118.466 57.3697 118.409C57.5038 118.353 57.6368 118.295 57.7687 118.234C57.9007 118.173 58.0316 118.109 58.1614 118.044C58.2911 117.978 58.4196 117.91 58.547 117.84C58.6743 117.77 58.8004 117.698 58.9252 117.623C59.05 117.548 59.1734 117.471 59.2954 117.392C59.4174 117.313 59.5381 117.232 59.6573 117.149C59.7765 117.066 59.8941 116.98 60.0102 116.893C60.1263 116.805 60.2409 116.716 60.3539 116.624C60.4669 116.533 60.5782 116.439 60.6878 116.344C60.7975 116.248 60.9054 116.151 61.0116 116.052C63.1497 114.091 64.9482 110.982 66.625 108.554L76.3861 94.2874C78.4979 94.9184 80.6751 95.088 82.8452 94.6465C82.9976 94.6147 83.1493 94.5803 83.3003 94.5431C83.4514 94.506 83.6018 94.4661 83.7514 94.4235C83.9011 94.381 84.05 94.3357 84.198 94.2877C84.346 94.2399 84.4931 94.1894 84.6394 94.1361C84.7856 94.0829 84.9307 94.0271 85.0749 93.9687C85.2191 93.9103 85.3622 93.8493 85.5042 93.7857C85.6463 93.7223 85.7872 93.6562 85.9268 93.5875C86.0665 93.5189 86.2048 93.4478 86.3418 93.3743C86.4789 93.3007 86.6146 93.2247 86.749 93.1462C86.8834 93.0678 87.0163 92.987 87.1478 92.9038C87.2792 92.8206 87.4091 92.735 87.5376 92.6471C87.666 92.5592 87.7927 92.469 87.9178 92.3766C88.043 92.2842 88.1665 92.1895 88.2883 92.0927C88.4101 91.9958 88.53 91.8968 88.6482 91.7956C88.7664 91.6944 88.8827 91.5912 88.9973 91.4858C89.1117 91.3804 89.2243 91.273 89.3349 91.1637C90.5314 89.9687 91.4244 88.4446 92.3572 87.0434L96.1231 81.4132C100.669 74.7161 105.338 68.0917 109.813 61.3475C109.657 60.9946 109.468 60.6617 109.281 60.3248C112.195 57.4027 113.701 54.6775 114.445 50.6052C116.475 54.2119 118.547 57.7936 120.663 61.3504L128.657 75.0056L132.603 81.7452C133.392 83.1009 134.234 84.4655 134.933 85.8691C135.05 86.1056 135.122 86.3222 135.087 86.5878C135.055 86.8235 134.6 87.123 134.399 87.2597C133.442 87.9111 132.358 88.4246 131.354 89.0054C130.587 89.444 129.838 89.9121 129.108 90.4096C128.378 90.9069 127.669 91.4322 126.98 91.9853C124.912 90.0709 122.756 88.8926 120.121 87.9645L120.116 82.8168L121.197 82.8114C123.01 82.8271 124.823 82.8241 126.635 82.8022C125.252 81.204 123.768 79.678 122.346 78.1118C120.214 75.7641 118.088 73.3522 115.843 71.1127C114.698 72.6381 113.332 74.0506 112.067 75.4837L105.638 82.7606C107.629 82.7739 109.624 82.7629 111.614 82.8324L111.608 88.0141C111.419 88.0588 111.231 88.1059 111.044 88.1553C106.705 89.3052 102.779 92.4807 100.552 96.3504C97.8307 101.078 97.5777 105.932 98.9907 111.108C93.3083 114.073 87.7683 117.338 82.1778 120.472L48.9367 139.238C48.3461 139.576 47.7386 139.912 47.039 139.695C46.5334 139.539 46.1534 139.116 45.8857 138.677C45.0395 137.29 44.3031 135.801 43.506 134.381L38.2836 125.139L24.2548 100.546L14.3613 83.3776C12.8876 80.8118 11.3229 78.2824 9.96826 75.6519Z" fill="white"/>
<path d="M31.8444 31.2657C32.668 31.2709 33.491 31.3029 34.2873 31.0536C35.6453 30.6285 36.3149 29.4945 36.9334 28.3115C37.15 28.6054 37.102 29.4437 37.1902 29.8565C37.5851 31.7026 38.8949 32.2792 40.3424 33.2265C39.6956 33.2363 39.0392 33.247 38.4095 33.4102C36.7907 33.8297 36.0968 35.0472 35.3112 36.3734C35.1429 36.2233 35.1323 34.8153 35.0297 34.4479C34.5524 32.7411 33.2645 32.0725 31.8444 31.2657ZM36.649 29.7179C35.8144 30.807 34.9484 31.4472 33.5594 31.6426C33.5103 31.6495 33.461 31.6552 33.4116 31.6615C34.3371 32.3186 34.9627 32.9371 35.3594 34.0331C35.4703 34.3389 35.5175 34.6738 35.6584 34.9657C36.5434 33.6956 37.4294 33.1325 38.933 32.842C37.8136 32.0981 37.2811 31.7097 36.8799 30.3819C36.8223 30.1912 36.7722 29.8741 36.649 29.7179Z" fill="black"/>
<path d="M33.4116 31.6613C33.461 31.655 33.5104 31.6493 33.5594 31.6424C34.9484 31.447 35.8144 30.8069 36.6491 29.7178C36.7723 29.8739 36.8224 30.1911 36.8799 30.3818C37.2812 31.7095 37.8136 32.098 38.9331 32.8418C37.4294 33.1323 36.5435 33.6954 35.6584 34.9656C35.5175 34.6736 35.4703 34.3388 35.3594 34.0329C34.9627 32.9369 34.3371 32.3185 33.4116 31.6613Z" fill="white"/>
<path d="M69.4095 62.2891C70.3954 60.6087 71.5884 59.0054 72.6839 57.3939L78.1457 49.274C79.9991 46.4453 81.8849 43.6382 83.8031 40.8529C84.7878 39.4081 85.6819 37.8059 86.9052 36.5495C89.3119 34.0777 93.1024 32.4243 96.5541 32.4129C100.039 32.4013 102.912 34.0537 105.345 36.4537C105.303 36.4543 105.26 36.4565 105.218 36.4557C104.586 36.4431 103.194 35.7021 102.46 35.5059C97.5706 34.1984 92.8072 34.3591 88.8302 37.8344C87.0205 39.4157 85.7724 41.7355 84.4182 43.7045L75.181 57.2339L72.6401 61.015C72.1875 61.6942 71.7625 62.4382 71.2393 63.0615C70.6453 62.7577 70.0321 62.5251 69.4095 62.2891Z" fill="white"/>
<path d="M105.345 36.4537L105.444 36.5407C106.474 37.4351 107.724 38.043 108.828 38.8383C108.92 38.9044 109.011 38.9718 109.101 39.0404C109.191 39.1091 109.281 39.179 109.369 39.25C109.458 39.321 109.545 39.3933 109.632 39.4667C109.718 39.54 109.803 39.6146 109.888 39.6904C109.972 39.7661 110.056 39.8429 110.138 39.9209C110.22 39.9989 110.301 40.0779 110.382 40.1581C110.462 40.2383 110.541 40.3195 110.619 40.4019C110.697 40.4842 110.774 40.5675 110.85 40.6519C110.925 40.7363 111 40.8217 111.073 40.9081C111.147 40.9945 111.219 41.0819 111.29 41.1703C111.361 41.2587 111.431 41.348 111.5 41.4382C111.569 41.5285 111.636 41.6196 111.702 41.7117C111.768 41.8038 111.833 41.8968 111.897 41.9906C111.961 42.0845 112.023 42.1792 112.084 42.2747C112.145 42.3702 112.205 42.4665 112.264 42.5637C112.322 42.6608 112.379 42.7587 112.435 42.8574C112.491 42.9561 112.546 43.0555 112.599 43.1556C112.652 43.2558 112.704 43.3567 112.754 43.4583C112.805 43.5598 112.854 43.6621 112.901 43.765C112.949 43.8678 112.995 43.9713 113.04 44.0755C113.085 44.1796 113.129 44.2844 113.171 44.3897C113.213 44.495 113.253 44.6009 113.293 44.7073C113.332 44.8138 113.37 44.9207 113.406 45.0281C113.442 45.1355 113.477 45.2435 113.51 45.3519C113.544 45.4603 113.576 45.569 113.606 45.6782C113.637 45.7875 113.666 45.8972 113.693 46.0072C113.721 46.1172 113.746 46.2275 113.771 46.3383C113.795 46.449 113.818 46.5601 113.84 46.6714C113.861 46.7827 113.881 46.8943 113.9 47.0063C113.918 47.1182 113.935 47.2303 113.951 47.3426C113.966 47.455 113.98 47.5675 113.992 47.6802C114.005 47.793 114.016 47.9059 114.025 48.0189C114.333 52.1525 112.619 55.9072 109.931 58.9685C109.626 59.3103 109.312 59.6437 108.989 59.9688C107.706 58.579 106.057 57.3514 104.214 56.8228C104.708 56.3306 105.139 55.8359 105.506 55.2404C106.49 53.6432 106.746 51.6025 106.297 49.7843C106.135 49.1301 105.647 47.8686 105.064 47.5124L104.908 47.5874C104.667 47.1514 104.441 46.8123 104.081 46.4606C103.126 45.5271 101.937 44.7404 100.876 43.9214C100.079 43.3056 99.3077 42.6141 98.4761 42.0498C98.2097 41.8689 97.9583 41.7292 97.6485 41.6363C97.5709 41.6136 97.4929 41.5929 97.4144 41.574C97.3359 41.5552 97.2569 41.5383 97.1775 41.5235C97.0981 41.5085 97.0184 41.4956 96.9383 41.4847C96.8583 41.4738 96.7781 41.4649 96.6977 41.4579C96.6172 41.4509 96.5366 41.446 96.4558 41.4431C96.3751 41.4401 96.2944 41.4392 96.2135 41.4403C96.1328 41.4414 96.0521 41.4444 95.9715 41.4495C95.8909 41.4546 95.8104 41.4617 95.7303 41.4708C95.65 41.4798 95.57 41.4909 95.4903 41.504C95.4105 41.5171 95.3312 41.5321 95.2523 41.5491C95.1733 41.5661 95.0948 41.5851 95.0168 41.606C94.9387 41.6269 94.8613 41.6497 94.7844 41.6745C94.7076 41.6992 94.6313 41.7258 94.5558 41.7543C94.4802 41.7829 94.4054 41.8133 94.3313 41.8456C94.2573 41.8778 94.1841 41.9119 94.1118 41.9479C94.0394 41.9837 93.968 42.0213 93.8975 42.0608C93.3985 42.3357 92.9337 42.6973 92.5721 43.1386C91.9091 43.9474 91.3357 44.8649 90.7451 45.7286L87.0662 51.1912L76.4187 66.8527C74.719 65.5837 73.0898 64.1014 71.2393 63.0615C71.7625 62.4382 72.1875 61.6942 72.6401 61.015L75.181 57.2339L84.4182 43.7045C85.7724 41.7354 87.0205 39.4157 88.8301 37.8344C92.8072 34.3591 97.5706 34.1984 102.46 35.5059C103.194 35.7021 104.586 36.4431 105.218 36.4557C105.26 36.4564 105.303 36.4542 105.345 36.4537Z" fill="#F0F0F3"/>
<path d="M76.812 67.1283C78.0231 65.2302 79.3203 63.3795 80.5852 61.5168L86.8597 52.2667L90.6987 46.5848C91.363 45.5976 91.9893 44.5212 92.7431 43.6044C93.5587 42.6125 94.7235 41.9491 96.0167 41.8543C96.6091 41.811 97.2171 41.8772 97.759 42.134C98.6521 42.5573 99.4003 43.3533 100.185 43.9479C101.282 44.7796 102.467 45.568 103.497 46.4802C104.403 47.2831 104.778 48.1633 104.849 49.3529C104.82 50.2089 104.766 50.9702 104.35 51.7451C103.877 52.6256 103.201 53.4341 102.636 54.2585C101.657 55.6861 100.718 57.1504 99.7671 58.5975C95.4498 65.2248 91.0709 71.8112 86.6307 78.3568L84.1308 82.0438C83.6543 82.7484 83.1794 83.6583 82.5526 84.2304C82.3093 84.4523 82.0072 84.6208 81.7263 84.7907C81.8343 84.6394 81.9385 84.4856 82.0389 84.3292C82.1394 84.1728 82.2359 84.014 82.3286 83.8529C82.4213 83.6918 82.51 83.5286 82.5946 83.363C82.6793 83.1976 82.7598 83.0302 82.8362 82.8607C82.9126 82.6914 82.9849 82.5203 83.053 82.3473C83.121 82.1744 83.1849 81.9998 83.2444 81.8238C83.3039 81.6477 83.3591 81.4703 83.41 81.2915C83.4607 81.1126 83.5072 80.9327 83.5493 80.7517C83.5913 80.5706 83.6288 80.3887 83.6619 80.2059C83.695 80.0229 83.7236 79.8394 83.7476 79.6551C83.7717 79.4707 83.7913 79.2859 83.8063 79.1008C83.8214 78.9155 83.8319 78.73 83.8378 78.5441C83.8438 78.3584 83.8452 78.1726 83.8421 77.9868C83.839 77.8009 83.8312 77.6153 83.8189 77.4298C83.8067 77.2444 83.79 77.0593 83.7687 76.8746C83.7474 76.6901 83.7216 76.5061 83.6912 76.3227C83.2129 73.327 81.9221 71.2557 79.6028 69.3714C78.6576 68.645 77.7051 67.9187 76.812 67.1283Z" fill="white"/>
<path d="M121.518 49.877C122.356 49.8723 123.222 49.8925 124.04 49.6817C125.615 49.2756 126.287 48.0676 127.039 46.7722C127.185 47.1008 127.13 48.2245 127.328 48.8514C127.85 50.5089 129.377 51.1864 130.796 51.9232C129.947 51.8933 129.061 51.8839 128.234 52.1056C126.707 52.5146 126.042 53.8051 125.329 55.0717C125.149 54.9194 125.165 53.5492 125.115 53.2376C125.069 52.9627 124.993 52.6962 124.888 52.4381C124.279 50.9639 122.877 50.4326 121.518 49.877ZM126.744 48.1109C125.871 49.3052 125.037 49.9704 123.554 50.1956C123.478 50.2071 123.402 50.2156 123.325 50.2244C123.974 50.6608 124.586 51.12 125.008 51.7936C125.206 52.1082 125.578 53.5707 125.683 53.6469C126.406 52.6227 127.101 51.8564 128.407 51.6321C128.647 51.5919 128.889 51.5612 129.132 51.54C127.651 50.4865 127.194 49.9228 126.744 48.1109Z" fill="black"/>
<path d="M104.908 47.5875L105.064 47.5125C105.647 47.8687 106.135 49.1302 106.297 49.7844C106.746 51.6026 106.49 53.6433 105.506 55.2405C105.139 55.836 104.708 56.3307 104.214 56.8228C103.401 56.5911 102.607 56.4224 101.765 56.3387C102.612 55.0006 104.255 53.015 104.862 51.7274C105.5 50.375 105.401 48.9606 104.908 47.5875Z" fill="white"/>
<path d="M123.325 50.2243C123.402 50.2155 123.478 50.207 123.554 50.1955C125.037 49.9703 125.871 49.3051 126.744 48.1108C127.194 49.9227 127.651 50.4864 129.132 51.5399C128.889 51.5611 128.647 51.5918 128.407 51.632C127.101 51.8563 126.406 52.6226 125.683 53.6468C125.578 53.5706 125.206 52.1081 125.008 51.7935C124.586 51.1199 123.974 50.6607 123.325 50.2243Z" fill="white"/>
<path d="M130.641 60.5365C131.211 60.0367 131.956 59.4703 132.247 58.7447C132.618 57.8195 132.027 56.8442 131.678 56.0049C132.116 56.1971 132.547 56.7167 132.94 57.0114C133.213 57.2159 133.51 57.3687 133.813 57.5219C134.844 57.486 135.751 57.0767 136.681 56.6727C136.169 57.3162 135.289 57.9024 134.964 58.6586C134.616 59.4697 135.173 60.5169 135.474 61.2812L135.484 61.4554C134.935 61.2684 134.465 60.4861 133.914 60.1892C132.822 59.6018 131.724 60.2351 130.641 60.5365ZM132.755 57.3688C132.884 58.0987 132.884 58.6425 132.458 59.2888C132.397 59.3812 132.326 59.4631 132.255 59.547C132.767 59.54 133.275 59.5157 133.759 59.7139C133.969 59.7996 134.391 60.1274 134.587 60.098L134.586 60.0323C134.439 59.425 134.322 58.8886 134.682 58.3218C134.807 58.1257 134.98 57.9525 135.139 57.7836C134.13 57.9089 133.668 57.8072 132.755 57.3688Z" fill="black"/>
<path d="M101.479 56.7449C102.111 56.7937 102.714 56.8999 103.334 57.0288C101.635 59.7758 99.8052 62.437 98.0049 65.1184C97.3132 66.1484 96.4629 67.6742 95.6921 68.5745C95.5336 68.7595 95.3874 68.8802 95.1454 68.9394C94.8978 68.9999 94.6632 68.9369 94.4531 68.8027C94.2477 68.6716 94.1169 68.5021 93.9829 68.3031C94.7153 66.8738 95.7101 65.5353 96.5925 64.1933L101.479 56.7449Z" fill="white"/>
<path d="M103.334 57.0288C105.724 57.7313 108.08 59.0496 109.325 61.2953L95.5689 81.4354L92.0864 86.649C91.0707 88.1683 90.0879 89.8149 88.763 91.0848C88.6552 91.1864 88.5456 91.2859 88.4343 91.3835C88.3228 91.4811 88.2097 91.5766 88.0949 91.6702C87.9801 91.7637 87.8637 91.8551 87.7456 91.9444C87.6275 92.0337 87.5078 92.121 87.3866 92.206C87.2654 92.2911 87.1427 92.3739 87.0185 92.4546C86.8943 92.5353 86.7687 92.6136 86.6417 92.6897C86.5147 92.7659 86.3863 92.8397 86.2566 92.9112C86.127 92.9828 85.9961 93.052 85.8639 93.1187C85.7318 93.1855 85.5985 93.25 85.464 93.3121C85.3295 93.3741 85.194 93.4337 85.0575 93.4908C84.9209 93.548 84.7833 93.6028 84.6447 93.655C84.5061 93.7073 84.3667 93.757 84.2263 93.8042C84.086 93.8514 83.9449 93.8961 83.8029 93.9382C83.661 93.9804 83.5183 94.02 83.3748 94.057C83.2315 94.0941 83.0875 94.1286 82.9429 94.1604C82.7983 94.1922 82.6532 94.2215 82.5075 94.2481C79.6127 94.7733 76.1911 94.2591 73.7564 92.5398C72.3758 91.565 71.0344 90.5324 69.6556 89.5526C66.058 86.9964 63.3323 85.2048 62.5455 80.4974C62.1257 77.9849 62.4734 74.7821 63.9991 72.6643C64.4348 72.0594 64.9931 71.7174 65.7367 71.6154C66.1013 71.5655 66.4584 71.5948 66.7937 71.7533C67.442 72.0599 68.0222 72.5792 68.5902 73.0135C69.7434 73.8955 70.8803 74.8264 72.072 75.6542C71.4529 76.5915 71.037 77.4773 71.2758 78.6306C71.3996 79.2282 71.6411 79.6432 72.0432 80.0975C72.9115 81.0783 74.1787 81.8403 75.2283 82.6253C76.257 83.3947 77.2795 84.2323 78.3569 84.9282C79.229 85.4917 80.0665 85.6368 81.0909 85.4154C81.8165 85.2587 82.4441 84.9521 82.9758 84.4252C83.9857 83.4244 84.7392 81.9659 85.5273 80.7837L90.9684 72.7183C91.8276 71.4309 93.0101 69.3994 93.9829 68.3031C94.117 68.5022 94.2478 68.6717 94.4532 68.8028C94.6632 68.937 94.8979 69 95.1454 68.9395C95.3874 68.8803 95.5336 68.7596 95.6921 68.5746C96.4629 67.6743 97.3133 66.1485 98.005 65.1184C99.8053 62.437 101.635 59.7758 103.334 57.0288Z" fill="#15ADFF"/>
<path d="M132.255 59.5471C132.326 59.4632 132.397 59.3813 132.458 59.2889C132.884 58.6426 132.884 58.0988 132.755 57.3689C133.668 57.8073 134.13 57.909 135.139 57.7837C134.98 57.9526 134.807 58.1258 134.682 58.3219C134.322 58.8887 134.439 59.4251 134.586 60.0324L134.587 60.098C134.391 60.1275 133.969 59.7997 133.759 59.714C133.275 59.5158 132.767 59.5401 132.255 59.5471Z" fill="white"/>
<path d="M23.4306 63.1633C23.199 63.19 22.9816 63.1657 22.7565 63.1025C22.3167 62.9792 21.9382 62.6873 21.7314 62.2777C21.5279 61.8748 21.5001 61.4168 21.6681 60.9965C21.8808 60.4642 22.2832 60.2131 22.7884 59.993C23.0846 59.9767 23.3726 59.9549 23.6588 60.0488C24.0765 60.1856 24.4389 60.4745 24.6205 60.8801C24.6411 60.926 24.6594 60.9728 24.6753 61.0207C24.6912 61.0685 24.7047 61.1169 24.7159 61.166C24.7269 61.2151 24.7355 61.2647 24.7416 61.3147C24.7477 61.3647 24.7513 61.4148 24.7525 61.4651C24.7536 61.5155 24.7521 61.5658 24.7481 61.616C24.7442 61.6662 24.7378 61.7161 24.7289 61.7657C24.7199 61.8152 24.7085 61.8642 24.6946 61.9126C24.6809 61.9611 24.6646 62.0087 24.646 62.0555C24.421 62.6354 23.9827 62.9323 23.4306 63.1633Z" fill="white"/>
<path d="M38.1449 110.943L38.0683 110.883C35.9224 109.168 34.7075 106.3 34.4145 103.626C34.3855 103.346 34.3659 103.066 34.3556 102.785C34.3454 102.503 34.3444 102.222 34.3528 101.941C34.3613 101.66 34.3792 101.38 34.4063 101.1C34.4336 100.82 34.47 100.541 34.5157 100.264C34.5615 99.986 34.6165 99.7103 34.6807 99.4365C34.7447 99.1627 34.8179 98.8913 34.9003 98.6223C34.9825 98.3534 35.0735 98.0875 35.1734 97.8246C35.2734 97.5617 35.3821 97.3024 35.4994 97.0467C36.097 95.7228 36.9354 94.5826 37.7507 93.3915C38.3589 92.5028 38.9431 91.5961 39.5461 90.7032L46.2619 80.7282L52.6918 71.1665C53.7162 69.6559 54.6925 68.0294 55.8359 66.6076C57.9304 64.0031 61.1769 62.5885 64.4532 62.2582C65.6586 62.1366 66.8296 62.2271 68.0155 62.4681C70.9994 63.0747 72.3504 64.2375 74.6658 66.0502C76.0263 67.1154 77.3886 68.1728 78.7272 69.266C78.7017 69.2875 78.6775 69.3105 78.651 69.3309C78.4008 69.5226 77.6721 69.502 77.3727 69.4412C75.9625 69.1551 74.3249 67.4355 73.1447 66.5879C69.1798 63.7406 63.8229 64.0532 59.7834 66.6013C58.5162 67.4006 57.4172 68.4356 56.4774 69.5986C55.0205 71.402 53.7862 73.4566 52.5064 75.3899L47.5243 82.762L41.0037 92.4597C40.0757 93.8475 39.0263 95.1941 38.1963 96.6413C37.4381 97.9634 36.8069 99.3325 36.4713 100.827C36.0093 102.885 36.0386 105.219 36.6541 107.242C36.9088 108.079 37.2718 108.872 37.6515 109.658C37.797 109.959 38.0413 110.321 38.1329 110.638C38.1663 110.754 38.1591 110.827 38.1449 110.943Z" fill="white"/>
<path d="M18.6458 65.9312C18.339 65.9689 18.0617 65.9957 17.7604 65.9091C17.3482 65.7908 16.9898 65.5205 16.7844 65.1411C16.7583 65.0928 16.7348 65.0432 16.7139 64.9923C16.6931 64.9415 16.675 64.8897 16.6596 64.837C16.6441 64.7843 16.6315 64.7309 16.6216 64.6768C16.6118 64.6227 16.6048 64.5684 16.6007 64.5136C16.5966 64.4588 16.5954 64.4039 16.597 64.3489C16.5986 64.294 16.6031 64.2394 16.6105 64.1849C16.6178 64.1305 16.628 64.0766 16.6411 64.0231C16.6541 63.9698 16.6699 63.9173 16.6884 63.8655C16.8778 63.3407 17.2432 63.0849 17.7286 62.8533C18.0047 62.8151 18.2563 62.7982 18.5289 62.8712C18.584 62.8858 18.6383 62.9033 18.6918 62.9235C18.7451 62.9436 18.7973 62.9664 18.8485 62.9919C18.8996 63.0174 18.9492 63.0454 18.9975 63.0758C19.0457 63.1063 19.0923 63.1392 19.1372 63.1744C19.1821 63.2097 19.2252 63.2471 19.2663 63.2866C19.3074 63.3262 19.3464 63.3677 19.3833 63.4113C19.4202 63.4548 19.4548 63.5001 19.4872 63.5471C19.5195 63.5941 19.5494 63.6427 19.5768 63.6928C19.6027 63.7398 19.6261 63.788 19.647 63.8375C19.6678 63.887 19.6859 63.9373 19.7013 63.9887C19.7169 64.0402 19.7296 64.0922 19.7396 64.1449C19.7495 64.1976 19.7567 64.2507 19.7611 64.3042C19.7655 64.3578 19.7671 64.4113 19.7658 64.4649C19.7644 64.5186 19.7603 64.5721 19.7533 64.6253C19.7464 64.6785 19.7367 64.7311 19.7242 64.7834C19.7117 64.8355 19.6964 64.8869 19.6785 64.9375C19.4962 65.4414 19.1174 65.72 18.6458 65.9312Z" fill="white"/>
<path d="M78.7272 69.2658C81.4282 71.2963 82.7542 73.2048 83.2497 76.6233C83.6486 79.3752 83.0085 82.2997 81.3658 84.5768C81.1462 84.8812 80.9023 84.986 80.5352 85.03C80.0231 85.0917 79.5038 84.9855 79.0368 84.7738C78.0406 84.3224 75.8003 82.586 74.9334 81.8266C74.9247 81.8191 74.9184 81.8093 74.911 81.8005C75.063 81.5313 75.1462 81.2204 75.1976 80.9166C75.3365 80.0978 75.1437 79.1795 74.6594 78.4998C74.5326 77.8054 74.2825 77.2201 73.8419 76.6674C72.9221 75.5137 71.4289 74.6335 70.2517 73.7382C69.3528 73.0544 68.4785 72.3237 67.5544 71.6746C66.659 71.0459 65.6644 70.7721 64.5737 70.953C63.0087 71.2126 62.1851 72.0802 61.3272 73.3281C57.3891 79.0557 53.6136 84.8959 49.7006 90.6407C48.2479 92.7416 46.8111 94.8533 45.3901 96.9758C44.7298 97.9579 43.9399 98.9447 43.4301 100.011C43.0904 100.721 43.0254 101.485 43.1703 102.252C43.5153 104.079 44.9175 104.963 46.3319 105.93L48.4821 107.401C48.3245 109.808 48.7978 112.513 46.7359 114.277C45.8886 115.001 44.9272 115.226 43.8485 115.34C42.4846 114.271 41.1134 113.21 39.7349 112.16C39.2534 111.793 38.5308 111.391 38.1448 110.943C38.1591 110.827 38.1662 110.754 38.1328 110.638C38.0413 110.321 37.7969 109.959 37.6515 109.658C37.2718 108.872 36.9088 108.079 36.6541 107.242C36.0385 105.219 36.0092 102.885 36.4713 100.827C36.8069 99.3323 37.4381 97.9633 38.1963 96.6411C39.0262 95.194 40.0757 93.8474 41.0036 92.4596L47.5242 82.7619L52.5063 75.3898C53.7861 73.4565 55.0204 71.4019 56.4774 69.5985C57.4172 68.4354 58.5161 67.4005 59.7834 66.6011C63.8228 64.053 69.1798 63.7404 73.1446 66.5878C74.3249 67.4354 75.9624 69.1549 77.3726 69.441C77.672 69.5018 78.4008 69.5225 78.651 69.3307C78.6775 69.3104 78.7017 69.2874 78.7272 69.2658Z" fill="#F0F0F3"/>
<path d="M13.5645 68.8552C13.3042 68.8683 13.0459 68.8869 12.7931 68.8101C12.3797 68.6844 12.0178 68.4102 11.82 68.022C11.7954 67.9726 11.7734 67.9221 11.754 67.8704C11.7345 67.8188 11.7178 67.7663 11.7038 67.713C11.6898 67.6595 11.6785 67.6056 11.67 67.5511C11.6615 67.4966 11.6559 67.4418 11.653 67.3866C11.6502 67.3315 11.6502 67.2764 11.653 67.2212C11.6558 67.1661 11.6614 67.1113 11.6699 67.0569C11.6783 67.0023 11.6895 66.9483 11.7035 66.895C11.7175 66.8416 11.7342 66.789 11.7536 66.7374C11.9668 66.1585 12.3571 65.8758 12.9034 65.6371C13.188 65.6335 13.4514 65.642 13.7206 65.7451C14.1428 65.907 14.4953 66.2269 14.6722 66.646C14.6942 66.6969 14.7134 66.7489 14.7298 66.8018C14.7462 66.8549 14.7597 66.9086 14.7705 66.963C14.7811 67.0175 14.7889 67.0723 14.7938 67.1276C14.7987 67.1829 14.8006 67.2383 14.7995 67.2937C14.7985 67.3492 14.7946 67.4044 14.7876 67.4594C14.7807 67.5145 14.7708 67.569 14.758 67.623C14.7453 67.677 14.7298 67.7302 14.7114 67.7825C14.693 67.8349 14.6719 67.8861 14.648 67.9362C14.4229 68.4111 14.0439 68.6765 13.5645 68.8552Z" fill="white"/>
<path d="M64.5017 71.4343C64.309 71.617 64.119 71.8026 63.9485 72.0066C62.1102 74.2073 61.7703 77.2993 62.0263 80.0434C62.5182 82.9801 63.5783 85.4492 65.9259 87.3666C66.688 87.9891 67.5466 88.5119 68.2843 89.1572C65.3638 93.7373 62.2684 98.2206 59.2403 102.73L56.475 106.859C56.0086 107.559 55.5782 108.357 55.028 108.992C54.9809 109.047 54.9316 109.099 54.8801 109.15C54.8286 109.201 54.7751 109.249 54.7195 109.296C54.6641 109.342 54.6067 109.386 54.5475 109.427C54.4884 109.469 54.4276 109.508 54.3652 109.544C54.3028 109.581 54.239 109.615 54.1737 109.646C54.1085 109.677 54.0421 109.706 53.9745 109.731C53.9069 109.757 53.8384 109.78 53.7688 109.8C53.6994 109.82 53.6292 109.837 53.5583 109.851C52.934 109.978 52.3598 109.708 51.856 109.354C49.6657 107.813 47.5384 106.178 45.3492 104.633C44.5683 104.098 43.9563 103.419 43.6805 102.497C43.4057 101.577 43.5086 100.85 43.9449 100.025C44.7543 98.4935 45.8824 97.0215 46.851 95.5824C48.9451 92.5327 51.0214 89.471 53.0799 86.3971L59.4136 76.9524C60.3272 75.5932 61.4448 73.6858 62.4776 72.4676C62.9875 71.8663 63.7781 71.6538 64.5017 71.4343Z" fill="white"/>
<path d="M115.872 71.8015C116.126 72.052 116.372 72.3136 116.622 72.5695C115.753 73.6865 114.782 74.7302 113.849 75.7944L110.641 79.5152C109.847 80.4296 108.885 81.3659 108.243 82.3859C107.708 82.3865 107.173 82.3545 106.639 82.3289C108.252 80.3133 110.016 78.4043 111.728 76.4729C113.107 74.9184 114.445 73.3107 115.872 71.8015Z" fill="white"/>
<path d="M116.622 72.5696C118.654 74.7297 120.666 76.9082 122.658 79.105C123.653 80.1898 124.712 81.2517 125.641 82.3919L119.74 82.3937C119.664 86.501 119.689 90.6296 119.696 94.7388C119.7 96.5655 119.745 98.3954 119.705 100.222C119.264 100.213 118.27 100.104 117.935 100.373C118.134 100.583 118.624 100.637 118.906 100.647C119.293 100.66 119.692 100.632 120.079 100.615C120.249 98.3296 120.035 95.9834 120.092 93.6866C120.813 94.7009 121.448 95.7474 122.053 96.8343C121.807 97.0111 121.563 97.1507 121.43 97.4328L121.451 97.554C121.759 97.5644 121.922 97.3682 122.137 97.1668L122.207 97.1012C123.266 99.5145 124.079 102.365 124.08 105.021L108.099 104.956C108.248 103.122 108.514 101.357 109.057 99.5939C109.176 99.2094 109.509 98.5363 109.306 98.1649L109.203 98.1674C108.31 99.1842 107.754 103.636 107.715 104.958L100.993 104.957C100.992 104.937 100.991 104.917 100.991 104.897C100.962 102.244 102.32 98.728 103.835 96.5773C104.453 95.7001 105.203 94.9416 105.944 94.1703C106.985 95.196 108.453 96.8397 109.594 97.6511C110.26 96.4177 110.864 95.1961 111.616 94.0076C111.622 96.2287 111.615 98.4497 111.595 100.671C112.899 100.648 114.203 100.636 115.506 100.635C116.225 100.633 117.013 100.698 117.724 100.605C117.79 100.496 117.822 100.419 117.861 100.3L117.806 100.219C116.696 100.216 115.543 100.163 114.438 100.254C114.368 98.6334 114.408 96.9926 114.407 95.3696L114.4 86.8864C114.398 85.5709 114.516 83.9831 114.425 82.7135C114.403 82.4158 114.35 82.1182 114.216 81.8491C114.066 81.5473 113.821 81.2945 113.492 81.1956C113.233 81.1178 112.953 81.1675 112.72 81.2973C112.319 81.5198 112.01 81.9415 111.895 82.3789C110.713 82.4951 109.435 82.3943 108.243 82.3859C108.885 81.366 109.847 80.4296 110.641 79.5153L113.849 75.7944C114.782 74.7302 115.753 73.6865 116.622 72.5696Z" fill="#75FBA0"/>
<path d="M73.3983 80.5994C73.2705 80.6373 73.3337 80.6395 73.1904 80.572C72.529 80.2604 72.0698 79.4808 71.8533 78.8105C71.4722 77.6304 71.8362 76.9532 72.3754 75.9104C73.0933 76.4118 73.8049 77.0585 74.0711 77.9202C74.3831 78.9308 73.8672 79.747 73.3983 80.5994Z" fill="white"/>
<path d="M74.6594 78.4998C75.1437 79.1794 75.3364 80.0977 75.1976 80.9166C75.1462 81.2204 75.063 81.5312 74.9109 81.8005L73.733 80.9017C74.2441 80.124 74.553 79.4358 74.6594 78.4998Z" fill="white"/>
<path d="M111.895 82.3788C112.01 81.9414 112.319 81.5197 112.72 81.2972C112.953 81.1674 113.233 81.1177 113.492 81.1955C113.821 81.2944 114.066 81.5472 114.216 81.849C114.35 82.1181 114.403 82.4157 114.425 82.7134C114.516 83.983 114.398 85.5709 114.4 86.8863L114.407 95.3695C114.408 96.9926 114.367 98.6333 114.438 100.254C113.627 100.275 112.811 100.261 111.999 100.265C111.977 98.0837 112.185 83.077 111.895 82.3788Z" fill="white"/>
<path d="M111.61 90.5548C109.639 91.4601 107.812 92.3635 106.201 93.8581L104.461 92.2321C106.491 90.5169 108.965 88.9858 111.606 88.4731L111.61 90.5548Z" fill="white"/>
<path d="M120.105 90.4171L120.107 88.4058C122.089 89.0633 123.819 89.9393 125.488 91.1963C125.876 91.4884 126.344 91.8 126.601 92.2185C126.554 92.3923 126.6 92.3222 126.472 92.4336C124.505 91.6062 122.231 90.6543 120.105 90.4171Z" fill="white"/>
<path d="M48.9297 107.726C49.872 108.381 50.7206 109.168 51.6684 109.811C52.2774 110.225 52.9576 110.463 53.6963 110.304C54.2827 110.178 54.849 109.879 55.2559 109.435C55.8435 108.794 56.2746 107.986 56.7506 107.262C57.492 106.132 58.2556 105.017 59.0109 103.897C62.2659 99.1041 65.4718 94.2788 68.6286 89.4209C70.9904 90.9654 73.3076 93.2233 75.9383 94.1909C74.5042 96.1605 73.1736 98.2154 71.8028 100.23L66.0398 108.609C64.6751 110.599 63.395 112.803 61.8186 114.623C61.6071 114.864 61.3873 115.097 61.1591 115.322C60.931 115.547 60.6951 115.764 60.4514 115.972C60.2078 116.18 59.957 116.379 59.6991 116.57C59.4412 116.76 59.1768 116.941 58.906 117.112C55.9729 118.954 52.8903 119.216 49.5771 118.457C47.6085 117.864 46.0359 116.981 44.3748 115.791C45.4088 115.551 46.304 115.301 47.1145 114.572C49.134 112.756 48.8181 110.183 48.9297 107.726Z" fill="#15ADFF"/>
<path d="M120.105 90.417C122.231 90.6542 124.505 91.606 126.472 92.4335C124.979 93.6038 123.653 95.1856 122.29 96.5156C121.633 95.2753 120.891 94.1491 120.106 92.9888L120.105 90.417Z" fill="#75FBA0"/>
<path d="M106.201 93.8579C107.812 92.3633 109.639 91.46 111.61 90.5547C111.611 91.5096 111.624 92.4662 111.613 93.4211C110.747 94.4934 110.097 95.8045 109.476 97.0316C108.356 95.9966 107.288 94.9259 106.201 93.8579Z" fill="#75FBA0"/>
<path d="M104.159 92.4744C104.793 92.9891 105.373 93.5868 105.944 94.1702C105.203 94.9415 104.453 95.7 103.835 96.5773C102.32 98.7279 100.962 102.244 100.991 104.897C100.991 104.917 100.992 104.937 100.993 104.957L98.5227 104.949C98.7708 100.08 100.665 95.8754 104.159 92.4744Z" fill="white"/>
<path d="M122.5 96.892C123.97 95.4165 125.411 93.9127 127 92.5623C127.102 92.6289 127.068 92.6002 127.155 92.6834C130.566 95.9468 132.767 100.208 132.873 104.979C131.42 105.021 129.958 104.991 128.503 104.994L124.476 105.008C124.371 102.122 123.698 99.5121 122.5 96.892Z" fill="#75FBA0"/>
<path d="M100.994 105.367C103.22 105.33 105.483 105.274 107.708 105.343C107.743 107.722 107.949 110.107 108.578 112.411C107.233 113.227 106.04 114.225 104.957 115.366C104.431 115.92 103.932 116.528 103.376 117.05C103.401 116.858 103.436 116.651 103.385 116.461C103.228 115.872 102.903 115.269 102.671 114.702C102.398 114.037 102.184 113.357 101.976 112.669C101.19 110.076 101.006 108.058 100.994 105.367Z" fill="#75FBA0"/>
<path d="M108.933 112.219C108.553 110.568 108.289 108.833 108.158 107.142C108.126 106.728 107.954 105.656 108.213 105.353L124.08 105.394C124.069 107.015 123.86 108.517 123.566 110.106C123.513 110.391 123.401 110.736 123.458 111.023L123.583 111.092L123.494 111.105L123.563 111.189L123.674 111.185C124.255 110.403 124.441 106.48 124.463 105.396L132.883 105.385C132.881 105.68 132.872 105.975 132.856 106.27C132.84 106.565 132.818 106.859 132.788 107.153C132.759 107.447 132.723 107.74 132.681 108.032C132.638 108.324 132.589 108.615 132.533 108.905C132.478 109.195 132.415 109.484 132.346 109.771C132.277 110.058 132.202 110.344 132.12 110.627C132.038 110.911 131.95 111.193 131.855 111.473C131.761 111.752 131.659 112.03 131.552 112.305C130.652 114.411 129.482 116.324 127.83 117.924C127.717 117.657 127.603 117.389 127.467 117.132C125.919 114.203 122.663 111.757 119.527 110.792C116.976 110.008 114.049 110.024 111.54 110.962C110.634 111.3 109.785 111.767 108.933 112.219Z" fill="#75FBA0"/>
<path d="M98.5132 105.381L100.994 105.367C101.006 108.058 101.19 110.076 101.976 112.669C102.184 113.357 102.398 114.037 102.671 114.702C102.903 115.269 103.228 115.872 103.385 116.461C103.436 116.651 103.401 116.858 103.376 117.05C103.252 117.186 103.326 117.139 103.158 117.196C103.071 117.144 102.995 117.096 102.921 117.026C102.491 116.612 102.123 116.023 101.773 115.538C99.5942 112.524 98.5684 109.087 98.5132 105.381Z" fill="white"/>
<path d="M112.645 122.238C109.155 121.455 106.187 120.092 103.57 117.602C105.023 115.772 106.641 114.066 108.673 112.869C109.4 115.388 110.326 117.786 111.738 120.008C111.987 120.401 112.465 121.154 112.896 121.355C112.918 121.365 113.041 121.403 113.067 121.412L112.99 121.408L113.057 121.259C112.681 120.413 111.989 119.693 111.528 118.88C110.433 116.948 109.652 114.796 109.009 112.676C112.361 110.759 115.309 110.03 119.134 111.086C122.275 111.953 125.448 114.342 127.04 117.199C127.217 117.517 127.365 117.853 127.507 118.188C125.364 120.174 122.434 121.434 119.572 121.91C120.591 120.58 122.462 117.487 122.68 115.832L122.619 115.7L122.483 115.7C122.187 115.998 121.237 118.471 120.946 119.073C120.427 120.149 119.702 121.019 119.032 121.989C118.032 122.225 117.061 122.3 116.037 122.335C115.544 122.351 114.988 122.318 114.506 122.414C113.885 122.332 113.27 122.273 112.645 122.238Z" fill="#75FBA0"/>
<path d="M101.413 115.721C99.5765 116.424 97.8144 117.577 96.0796 118.512C92.1268 120.607 88.2161 122.778 84.3475 125.025C82.0092 126.374 79.6352 127.656 77.285 128.982L61.155 138.049C59.3883 139.015 57.6345 140.003 55.8937 141.015C54.6404 141.745 53.2732 142.671 51.9235 143.202C51.2211 143.478 50.6838 143.562 49.9671 143.239C49.1143 142.854 48.1845 141.761 47.9342 140.834C47.8855 140.654 47.9156 140.574 47.9386 140.396C47.9501 140.306 47.9545 140.244 47.921 140.162C48.9153 139.91 51.1839 138.431 52.2048 137.856L63.1337 131.656L84.0638 119.884C89.0491 117.025 94.0723 114.234 99.1335 111.513C99.7207 113.025 100.501 114.386 101.413 115.721Z" fill="#F0F0F3"/>
</g>
<defs>
<clipPath id="clip0_99_828">
<rect width="150" height="150" fill="white"/>
</clipPath>
</defs>
</svg>
