<svg width="33" height="32" viewBox="0 0 33 32" fill="none" xmlns="http://www.w3.org/2000/svg">
<g clip-path="url(#clip0_99_1000)">
<circle cx="16.5" cy="16" r="16" fill="#009CF0"/>
<path fill-rule="evenodd" clip-rule="evenodd" d="M20.7667 31.4248C19.4083 31.7997 17.9776 32 16.5 32C15.2621 32 14.0571 31.8594 12.9 31.5934V30.5341V27.8674C8.50002 28.8007 7.56668 25.7341 7.56668 25.7341C6.90002 23.8674 5.83335 23.3341 5.83335 23.3341C4.36668 22.4008 5.96668 22.4007 5.96668 22.4007C7.56668 22.4007 8.36668 24.0007 8.36668 24.0007C9.83335 26.4008 12.1 25.7341 13.0333 25.3341C13.1667 24.2674 13.7 23.6007 14.1 23.2008C10.5 22.6674 6.76668 21.3341 6.76668 15.2008C6.76668 13.4674 7.30002 12.0008 8.36668 10.9341C8.23335 10.5341 7.70002 8.93409 8.50002 6.66742C8.50002 6.66742 9.83335 6.26742 12.9 8.26742C14.2333 7.86742 15.5667 7.73409 16.9 7.73409C18.2333 7.73409 19.5667 7.86742 20.9 8.26742C23.9667 6.26742 25.3 6.66742 25.3 6.66742C26.2333 8.93409 25.7 10.5341 25.4333 11.0674C26.3667 12.1341 27.0333 13.6008 27.0333 15.3341C27.0333 21.4674 23.3 22.8008 19.7 23.2008C20.2333 23.6007 20.7667 24.6674 20.7667 26.1341V30.5341V31.4248Z" fill="white"/>
</g>
<defs>
<clipPath id="clip0_99_1000">
<rect width="32" height="32" fill="white" transform="translate(0.5)"/>
</clipPath>
</defs>
</svg>
