<svg width="155" height="136" viewBox="0 0 155 136" fill="none" xmlns="http://www.w3.org/2000/svg">
<path fill-rule="evenodd" clip-rule="evenodd" d="M124.048 121.228C124.048 114.956 118.968 109.87 112.701 109.87H42.799C36.5318 109.87 31.4516 114.956 31.4516 121.228V125.537C31.4516 135.17 20.5417 139.937 15.0955 131.996C5.36518 117.81 0.5 101.04 0.5 81.685C0.5 59.5892 8.15152 40.4512 23.4557 24.2703C38.7593 8.0899 56.9009 0 77.8788 0C98.6853 0 116.741 8.0899 132.044 24.2703C147.348 40.4512 155 59.5892 155 81.685C155 100.451 150.192 116.988 140.575 131.294C135.146 139.372 124.048 134.643 124.048 124.907V121.228Z" fill="white"/>
<path d="M38.7189 48.7961C38.7189 44.9301 41.8529 41.7961 45.7189 41.7961C49.5849 41.7961 52.7189 44.9301 52.7189 48.7961V81.7961C52.7189 85.6621 49.5849 88.7961 45.7189 88.7961C41.8529 88.7961 38.7189 85.6621 38.7189 81.7961V48.7961Z" fill="#15ADFF"/>
<path d="M29.2189 72.2961C25.3529 72.2961 22.2189 69.1621 22.2189 65.2961C22.2189 61.4301 25.3529 58.2961 29.2189 58.2961H62.2189C66.0849 58.2961 69.2189 61.4301 69.2189 65.2961C69.2189 69.1621 66.0849 72.2961 62.2189 72.2961H29.2189Z" fill="#15ADFF"/>
<path d="M123.719 51.2961C123.719 55.1621 120.585 58.2961 116.719 58.2961C112.853 58.2961 109.719 55.1621 109.719 51.2961C109.719 47.4301 112.853 44.2961 116.719 44.2961C120.585 44.2961 123.719 47.4301 123.719 51.2961Z" fill="#75FBA0"/>
<path d="M123.719 79.2961C123.719 83.1621 120.585 86.2961 116.719 86.2961C112.853 86.2961 109.719 83.1621 109.719 79.2961C109.719 75.4302 112.853 72.2961 116.719 72.2961C120.585 72.2961 123.719 75.4302 123.719 79.2961Z" fill="#75FBA0"/>
<path d="M109.719 65.2961C109.719 69.1621 106.585 72.2961 102.719 72.2961C98.8529 72.2961 95.7189 69.1621 95.7189 65.2961C95.7189 61.4301 98.8529 58.2961 102.719 58.2961C106.585 58.2961 109.719 61.4301 109.719 65.2961Z" fill="#75FBA0"/>
<path d="M137.719 65.2961C137.719 69.1621 134.585 72.2961 130.719 72.2961C126.853 72.2961 123.719 69.1621 123.719 65.2961C123.719 61.4301 126.853 58.2961 130.719 58.2961C134.585 58.2961 137.719 61.4301 137.719 65.2961Z" fill="#75FBA0"/>
</svg>
