<svg width="240" height="240" viewBox="0 0 240 240" fill="none" xmlns="http://www.w3.org/2000/svg">
<g clip-path="url(#clip0_99_1577)">
<path d="M32.2977 48.2094C32.3228 47.7125 32.3898 47.2177 32.5586 46.7466C32.8972 45.8014 33.4436 45.2987 34.3412 44.8897C38.162 44.6766 36.6191 47.4247 37.825 48.1953C38.4932 48.6223 39.4192 48.3751 40.1455 48.9774C40.6325 49.3812 40.9079 50.1275 40.963 50.7441C41.0197 51.3814 40.8186 51.9612 40.3937 52.4377C39.6245 53.3 38.5808 53.5062 37.4898 53.5932C37.4359 54.1011 37.3979 54.6533 37.2268 55.1368C36.9003 56.059 36.2811 56.4992 35.4151 56.8854C34.7389 56.8756 34.1183 56.7877 33.5389 56.4106C32.5686 55.7792 32.3846 54.6411 32.1981 53.5906C31.2634 53.5491 30.4316 53.4174 29.6842 52.8115C29.1383 52.3693 28.79 51.7344 28.7425 51.0301C28.7373 50.9488 28.7362 50.8676 28.7392 50.7863C28.742 50.7051 28.7489 50.6241 28.7598 50.5435C28.7707 50.4629 28.7856 50.383 28.8043 50.304C28.8232 50.2247 28.8459 50.1467 28.8723 50.0698C28.8989 49.9929 28.9292 49.9176 28.9632 49.8436C28.9971 49.7697 29.0347 49.6977 29.076 49.6276C29.1171 49.5574 29.1615 49.4894 29.2093 49.4236C29.2573 49.3579 29.3083 49.2946 29.3624 49.2338C30.167 48.3167 31.1685 48.2586 32.2977 48.2094ZM34.4368 45.6005C33.7733 46.0264 33.3374 46.4747 33.1511 47.2615C33.0282 47.7788 33.0449 48.3378 33.0388 48.867C31.8524 48.9638 30.5474 48.9837 29.7015 49.9627C29.4953 50.2015 29.3155 50.5451 29.3338 50.8707C29.3631 51.3952 29.6687 51.8152 30.0756 52.1286C30.9393 52.7942 31.9628 52.8132 33.0008 52.913C33.0683 53.8409 33.0512 55.013 33.7963 55.6922C34.2217 56.0801 34.6736 56.1528 35.2286 56.2128C35.7962 55.9015 36.1867 55.5704 36.5722 55.0489C36.7041 54.3204 36.8171 53.589 36.9114 52.8547C37.9246 52.8162 38.995 52.8394 39.741 52.0264C40.0365 51.7044 40.2022 51.2858 40.1844 50.8468C40.1638 50.3377 39.905 49.8669 39.5181 49.542C38.7184 48.871 37.8299 48.8708 36.8392 48.8621C36.7775 48.1222 36.7478 47.3663 36.5926 46.6395C36.1178 46.1161 35.7346 45.657 34.9853 45.5982C34.8034 45.5841 34.6187 45.5921 34.4368 45.6005Z" fill="black"/>
<path d="M64.6675 66.8432C64.3518 64.6293 61.6799 46.6647 61.9478 46.1041L62.1828 46.1427L62.2316 45.9306L62.2869 46.0377C65.6314 45.7068 69.1398 45.9041 72.5096 45.8826L91.1839 45.6939L161.606 45.0616C164.289 45.0018 167.014 44.905 169.695 44.9861C170.181 47.046 170.354 49.2681 170.66 51.366C171.306 55.8086 171.92 60.2697 172.685 64.693C174.119 62.9465 177.135 59.1948 178.855 58.0363C179.656 57.4966 180.546 57.1586 181.495 56.9938C183.58 56.6317 186.564 57.0013 188.762 57.0011C191.338 57.0009 194.859 56.7182 197.295 56.9741C197.844 57.0318 198.236 57.1349 198.688 57.4619C200.771 58.9656 202.625 60.9864 204.532 62.7123L209.943 67.5648C211.13 68.6366 212.474 69.719 213.439 70.9975C213.997 71.7363 214.31 72.771 214.462 73.6788C214.496 73.8738 214.521 74.0699 214.538 74.2673C214.555 74.4645 214.564 74.662 214.564 74.86C214.564 75.058 214.556 75.2556 214.539 75.4527C214.522 75.6501 214.497 75.8462 214.464 76.0413C214.43 76.2364 214.388 76.4297 214.338 76.6211C214.288 76.8127 214.23 77.0017 214.163 77.1883C214.097 77.3748 214.023 77.5582 213.941 77.7384C213.859 77.9185 213.769 78.0948 213.672 78.2673C212.496 80.3948 209.041 83.8877 207.326 85.9066L191.476 104.428C189.067 107.262 186.366 110.016 184.226 113.055C186.01 124.831 188.162 136.585 190.243 148.314L197.573 190.016L199.809 202.784C200.122 204.546 201.387 210.202 201.196 211.6C200.962 211.85 200.803 211.924 200.459 211.975C199.702 212.089 198.866 212.065 198.099 212.108C196.502 212.195 194.906 212.292 193.311 212.401L173.22 213.588L123.633 216.58C114.829 217.063 106.027 217.597 97.2289 218.183C93.6936 218.383 90.1557 218.523 86.6232 218.775C86.2888 217.342 86.1582 215.792 85.9384 214.332C85.4678 211.303 85.0313 208.269 84.6289 205.23C82.6761 204.8 80.6933 204.513 78.7375 204.09C76.9056 203.694 75.0939 203.221 73.3025 202.671C71.511 202.12 69.7462 201.495 68.0082 200.793C67.4523 200.57 66.8993 200.34 66.3491 200.103C65.7989 199.866 65.2517 199.622 64.7075 199.372C64.1635 199.121 63.6225 198.864 63.0847 198.6C62.5471 198.335 62.0128 198.065 61.4818 197.787C60.9509 197.51 60.4235 197.226 59.8996 196.935C59.3757 196.645 58.8554 196.348 58.3389 196.044C57.8225 195.741 57.3099 195.431 56.8011 195.115C56.2922 194.798 55.7875 194.476 55.2868 194.147C54.786 193.818 54.2895 193.483 53.7971 193.142C53.3048 192.8 52.8167 192.453 52.333 192.1C51.8493 191.746 51.37 191.387 50.8951 191.022C50.4204 190.656 49.9503 190.285 49.4846 189.908C49.0192 189.531 48.5585 189.148 48.1025 188.76C47.6464 188.371 47.1953 187.977 46.7493 187.577C46.303 187.177 45.8618 186.772 45.4257 186.361C44.9896 185.951 44.5588 185.534 44.1332 185.113C43.7074 184.691 43.287 184.265 42.872 183.833C42.4568 183.401 42.0472 182.964 41.6432 182.522C41.2389 182.079 40.8403 181.632 40.4471 181.18C40.0542 180.728 39.6668 180.271 39.2851 179.809C38.9035 179.348 38.5277 178.881 38.1575 178.41C37.7875 177.939 37.4235 177.463 37.0653 176.983C36.7071 176.503 36.3549 176.018 36.0088 175.529C35.6627 175.04 35.3227 174.547 34.9888 174.05C34.655 173.552 34.3275 173.051 34.006 172.545C33.6848 172.04 33.3699 171.53 33.0613 171.017C32.7525 170.503 32.4503 169.986 32.1545 169.465C31.8589 168.944 31.5696 168.419 31.2868 167.891C31.0042 167.363 30.7282 166.831 30.4588 166.296C30.1893 165.761 29.9265 165.223 29.6706 164.681C29.4145 164.14 29.1653 163.595 28.9229 163.047C28.6804 162.5 28.4448 161.949 28.216 161.395C20.8771 144.112 21.4235 124.692 28.4087 107.404C29.5925 104.474 31.0539 101.778 32.4486 98.9542C33.8497 96.118 35.0872 93.2985 36.7386 90.5847C43.3527 79.7148 53.0228 71.7822 64.6675 66.8432ZM186.433 58.4341C184.446 57.6388 182.395 57.3182 180.36 58.1746C179.571 58.5065 178.901 58.9504 178.292 59.552C176.469 61.3532 174.827 63.4288 173.135 65.3552L164.172 75.502L140.092 102.76C137.361 105.923 134.601 109.062 131.813 112.176C130.292 113.887 128.793 115.753 127.091 117.282C125.677 116.42 124.352 115.054 123.113 113.948L116.279 107.779C115.128 106.727 113.99 105.498 112.633 104.713C111.689 104.167 110.723 103.878 109.634 103.809C107.702 103.795 106.03 104.22 104.605 105.61C102.834 107.339 101.257 109.333 99.5919 111.17C97.4919 113.486 90.7883 120.373 89.5937 122.776C89.7041 123.602 92.8564 126.381 93.6097 126.961C93.643 126.986 93.6779 127.01 93.7119 127.034C94.9733 128.432 96.4925 129.662 97.8568 130.964L107.144 139.843L117.759 150.101C119.491 151.777 121.185 153.955 123.272 155.185C124.846 156.113 126.439 156.426 128.227 155.91C129.6 155.514 130.568 154.666 131.53 153.661C134.405 150.659 137.05 147.4 139.822 144.299L168.32 111.79L187.216 90.3709C190.023 87.2522 192.807 84.1131 195.568 80.9535C196.812 79.5447 198.854 77.6153 199.703 76.0094C200.401 74.687 200.495 73.1125 200.039 71.6945C199.837 71.0648 199.552 70.521 199.133 70.0089C197.552 68.0772 195.376 66.3831 193.541 64.6881C191.597 62.8916 189.726 60.9386 187.684 59.2579C187.291 58.9342 186.89 58.6614 186.433 58.4341ZM44.4756 81.7874C42.6041 83.8401 40.8163 85.9349 39.2305 88.2194C31.2946 99.651 27.7712 113.931 28.4171 127.755C28.4507 128.357 28.4916 128.959 28.5397 129.561C28.5878 130.162 28.6432 130.763 28.7057 131.363C28.7683 131.963 28.8381 132.562 28.915 133.16C28.992 133.759 29.0762 134.356 29.1676 134.953C29.259 135.549 29.3576 136.144 29.4634 136.738C29.5692 137.332 29.6821 137.925 29.8021 138.516C29.9221 139.107 30.0492 139.697 30.1834 140.285C30.3176 140.873 30.4589 141.46 30.6074 142.045C30.7557 142.629 30.911 143.212 31.0735 143.793C31.2359 144.374 31.4053 144.953 31.5817 145.53C31.7581 146.107 31.9414 146.682 32.1315 147.255C32.3217 147.827 32.5188 148.397 32.7228 148.965C32.9268 149.533 33.1375 150.098 33.355 150.661C33.5726 151.224 33.797 151.784 34.0281 152.341C34.259 152.898 34.4968 153.453 34.7413 154.004C34.9857 154.556 35.2367 155.105 35.4943 155.65C35.752 156.196 36.0161 156.738 36.2868 157.277C36.5575 157.816 36.8347 158.352 37.1183 158.885C37.4019 159.417 37.6919 159.946 37.9883 160.472C38.2846 160.997 38.5872 161.519 38.8963 162.037C39.2052 162.555 39.5203 163.07 39.8415 163.581C40.1629 164.091 40.4903 164.598 40.8238 165.101C41.1574 165.603 41.497 166.102 41.8426 166.596C42.1881 167.091 42.5395 167.581 42.8968 168.067C43.2543 168.554 43.6175 169.035 43.9864 169.513C44.3553 169.99 44.73 170.463 45.1105 170.931C45.4908 171.399 45.8767 171.863 46.2683 172.322C46.6599 172.781 47.0569 173.235 47.4594 173.685C47.8619 174.134 48.2697 174.579 48.6828 175.018C49.0961 175.458 49.5146 175.893 49.9382 176.322C50.3617 176.752 50.7905 177.176 51.2244 177.595C51.6583 178.014 52.0972 178.428 52.5411 178.837C53.3432 179.574 54.1607 180.294 54.9939 180.996C55.827 181.697 56.675 182.381 57.5378 183.046C58.4006 183.711 59.2774 184.357 60.1682 184.984C61.0588 185.611 61.9627 186.219 62.8799 186.806C63.7969 187.394 64.7263 187.962 65.668 188.51C66.6096 189.058 67.5626 189.585 68.5271 190.091C69.4917 190.597 70.4668 191.083 71.4524 191.547C72.4378 192.011 73.4329 192.453 74.4376 192.874C77.2168 194.094 80.2996 195.179 83.2628 195.837C82.7633 192.674 82.3989 189.495 81.939 186.327L78.6971 164.134L70.4326 107.143L66.538 80.2115C66.1732 77.706 65.8245 75.1983 65.492 72.6883C65.2665 71.002 65.0957 69.2873 64.7511 67.6209C64.2703 67.8179 63.7924 68.0215 63.3172 68.2316C62.8422 68.442 62.3701 68.6587 61.9009 68.8818C61.4318 69.1051 60.9659 69.3348 60.5031 69.5709C60.0403 69.8071 59.5808 70.0496 59.1247 70.2984C58.6686 70.5471 58.216 70.8022 57.767 71.0636C57.3179 71.3248 56.8725 71.5923 56.4308 71.8659C55.9893 72.1395 55.5514 72.4191 55.1174 72.7049C54.6835 72.9905 54.2536 73.2822 53.8278 73.5798C53.4019 73.8773 52.9802 74.1807 52.5627 74.4899C52.1452 74.7991 51.732 75.1141 51.3231 75.4347C50.9143 75.7553 50.51 76.0815 50.1102 76.4132C49.7103 76.7451 49.3152 77.0823 48.9247 77.425C48.5342 77.7678 48.1485 78.1159 47.7676 78.4691C47.3868 78.8224 47.011 79.1809 46.64 79.5447C46.2689 79.9084 45.903 80.2773 45.5422 80.6512C45.1814 81.0251 44.8259 81.4038 44.4756 81.7874ZM152.766 87.1405L171.971 65.4285C171.032 60.7138 170.48 55.8421 169.814 51.0784C169.57 49.3342 169.431 47.4984 169.059 45.7806C160.14 45.7129 151.209 45.9433 142.289 46.0227L101.322 46.3551L71.5618 46.6553C68.5965 46.7059 65.6003 46.619 62.6418 46.7491C64.6911 59.4932 66.2635 72.332 68.0668 85.1141L75.3859 135.337L83.5522 192.07C84.7949 200.691 86.1936 209.313 87.2783 217.953C90.4623 217.728 93.6639 217.642 96.8521 217.449L125.466 215.711L200.451 211.235C199.994 207.684 199.22 204.135 198.593 200.608L195.668 183.857L187.149 135.392C185.924 128.223 184.506 121.052 183.479 113.855L182.608 114.867C176.033 122.33 169.165 129.602 162.811 137.252L161.871 138.302L154.383 146.65C152.111 149.188 148.912 153.369 146.12 154.989C144.465 155.949 142.709 156.178 140.831 156.277L131.866 156.731C129.825 156.844 127.479 157.243 125.458 156.903C124.273 156.703 123.282 156.235 122.276 155.592C120.195 154.085 118.31 151.787 116.389 150.027C115.338 148.709 113.83 147.519 112.607 146.341C110.211 144.033 107.863 141.655 105.407 139.413C101.617 135.625 97.6782 131.962 93.7932 128.271C92.3305 126.881 90.6528 125.568 89.3003 124.085C89.0127 123.77 88.7394 123.473 88.7061 123.028C88.6735 122.594 88.7875 122.288 89.0164 121.921C89.8009 120.664 90.9714 119.57 91.9466 118.456C94.5349 115.504 97.1659 112.59 99.8396 109.714C95.6532 109.789 91.4389 109.906 87.2631 110.214C86.8459 108.298 83.725 88.777 84.025 88.0333L84.5935 87.8746C84.7075 87.9951 84.7768 88.0919 84.8078 88.2588C85.3808 91.3459 85.7136 94.5278 86.1833 97.6384C86.7765 101.565 87.5028 105.505 87.9238 109.451C92.0612 109.378 96.2366 109.049 100.369 109.106C102.719 106.368 104.772 103.276 108.7 102.991C109.088 102.963 109.48 102.974 109.868 102.984C111.013 103.12 111.929 103.443 112.978 103.913C113.939 104.545 114.777 105.198 115.633 105.964L136.975 105.11C141.127 100.325 145.367 95.617 149.477 90.7952C146.203 90.8357 142.918 91.0415 139.644 91.154L121.759 91.7554L114.826 92.0563C113.615 92.1114 112.306 92.2848 111.103 92.1611L111.067 91.9851L111.123 91.8182C111.193 91.7697 111.251 91.6984 111.332 91.6724C112.006 91.4547 117.596 91.394 118.845 91.3441C129.253 90.9276 139.695 90.8214 150.091 90.1921L152.766 87.1405ZM67.8531 191.316C64.7957 189.756 61.6775 188.054 58.8327 186.134C58.4108 185.849 57.9918 185.559 57.5757 185.264C57.1598 184.97 56.7469 184.672 56.3371 184.369C55.9272 184.066 55.5205 183.759 55.1169 183.448C54.7135 183.137 54.3132 182.822 53.916 182.503C53.5189 182.183 53.1253 181.86 52.735 181.533C52.3445 181.205 51.9575 180.874 51.5739 180.538C51.1903 180.203 50.8102 179.864 50.4336 179.521C50.0569 179.177 49.6839 178.83 49.3145 178.48C48.945 178.129 48.5791 177.774 48.2169 177.416C47.8547 177.057 47.4962 176.695 47.1414 176.329C46.7867 175.964 46.4357 175.594 46.0885 175.221C45.7414 174.849 45.3981 174.472 45.0587 174.092C44.7193 173.712 44.3839 173.328 44.0523 172.941C43.7207 172.555 43.3932 172.164 43.0698 171.771C42.7462 171.377 42.4268 170.98 42.1114 170.58C41.7961 170.18 41.485 169.776 41.1779 169.37C40.8707 168.963 40.5678 168.553 40.2693 168.14C39.9707 167.728 39.6763 167.312 39.3861 166.893C39.0961 166.474 38.8104 166.052 38.529 165.627C38.2476 165.203 37.9706 164.775 37.6979 164.344C37.4253 163.914 37.1571 163.481 36.8935 163.045C36.6298 162.609 36.3706 162.17 36.1159 161.729C35.8612 161.288 35.611 160.844 35.3654 160.397C35.12 159.951 34.879 159.502 34.6426 159.051C34.4064 158.599 34.1747 158.145 33.9477 157.689C33.7207 157.233 33.4984 156.775 33.2809 156.314C33.0632 155.853 32.8503 155.39 32.6422 154.925C32.4342 154.46 32.231 153.993 32.0326 153.523C31.8342 153.054 31.6405 152.583 31.4516 152.11C31.2628 151.636 31.079 151.161 30.9001 150.684C30.721 150.207 30.547 149.728 30.3779 149.248C30.2087 148.767 30.0445 148.285 29.8853 147.801C26.0788 136.106 25.0766 123.505 27.8558 111.471C26.705 113.67 26.1514 116.396 25.5835 118.804C25.4034 119.548 25.236 120.294 25.0813 121.043C24.9264 121.792 24.7843 122.543 24.655 123.297C24.5256 124.051 24.409 124.807 24.3053 125.564C24.2015 126.322 24.1106 127.082 24.0325 127.842C23.9543 128.603 23.8892 129.365 23.837 130.128C23.7846 130.891 23.7453 131.655 23.7189 132.419C23.6926 133.184 23.6792 133.948 23.6785 134.713C23.6781 135.478 23.6905 136.243 23.7158 137.007C23.7413 137.772 23.7796 138.535 23.8309 139.299C23.8821 140.062 23.9463 140.824 24.0233 141.585C24.1003 142.346 24.1903 143.105 24.2931 143.863C24.3959 144.621 24.5114 145.377 24.6397 146.131C24.7682 146.885 24.9093 147.636 25.063 148.386C25.2169 149.135 25.3834 149.881 25.5625 150.625C25.7415 151.368 25.9332 152.109 26.1374 152.846C26.3414 153.583 26.558 154.316 26.7871 155.046C27.0338 155.838 27.2942 156.625 27.5682 157.408C27.8423 158.191 28.13 158.969 28.4312 159.741C28.7323 160.514 29.0468 161.281 29.3748 162.043C29.7028 162.805 30.0439 163.561 30.3983 164.311C30.7525 165.061 31.1197 165.804 31.4999 166.541C31.8802 167.278 32.2732 168.009 32.6788 168.732C33.0844 169.456 33.5025 170.172 33.9332 170.88C34.3638 171.589 34.8066 172.29 35.2616 172.984C35.7168 173.677 36.1838 174.362 36.6627 175.04C37.1416 175.717 37.6321 176.385 38.1343 177.045C38.6367 177.705 39.1503 178.357 39.6751 178.999C40.2001 179.641 40.7361 180.273 41.2832 180.897C41.83 181.52 42.3877 182.134 42.9561 182.738C43.5246 183.342 44.1033 183.936 44.6924 184.52C45.2814 185.104 45.8805 185.677 46.4896 186.24C47.0986 186.803 47.7173 187.355 48.3456 187.897C50.1325 189.424 52.0679 191.1 54.0934 192.303C63.0266 198.893 73.6878 202.571 84.5335 204.41C84.0153 201.885 83.8382 199.267 83.3959 196.722C78.2835 195.954 72.4918 193.553 67.8531 191.316ZM187.174 57.8263C187.201 57.861 187.224 57.898 187.253 57.9304C187.7 58.4263 188.487 58.742 189.002 59.2141C190.592 60.6707 192.103 62.2218 193.685 63.6911C195.419 65.3029 198.933 68.0941 200.125 69.9227C200.811 70.9741 201.129 72.2144 201.13 73.4629C201.13 74.882 200.705 76.1542 199.865 77.2945C198.83 78.7002 197.567 79.972 196.409 81.2805L190.529 87.9798C182.955 96.6244 175.337 105.231 167.675 113.798C165.952 115.754 164.297 117.768 162.586 119.734L141.388 143.848C138.053 147.581 134.865 151.599 131.3 155.105C130.994 155.406 130.683 155.701 130.365 155.989C134.318 155.793 138.371 155.778 142.3 155.349C144.075 155.128 145.661 154.529 147.031 153.352C149.554 151.184 151.737 148.355 153.961 145.879C158.834 140.482 163.66 135.041 168.437 129.558C178.265 118.555 187.949 107.424 197.488 96.1682L207.533 84.4398C209.138 82.5557 210.835 80.7027 212.365 78.7607C213.421 77.4198 213.916 75.764 213.684 74.0657C213.554 73.1139 213.21 72.0761 212.639 71.3005C211.78 70.1364 210.536 69.1605 209.462 68.197L204.057 63.3897C202.161 61.6778 200.316 59.62 198.244 58.138C198.097 58.0315 197.947 57.93 197.794 57.8336C195.617 57.7457 193.427 57.7902 191.248 57.7895C189.908 57.7891 188.503 57.6932 187.174 57.8263ZM135.954 105.758C129.325 105.861 122.705 106.299 116.077 106.434C117.983 108.062 119.793 109.8 121.679 111.45C123.445 113.056 125.225 114.67 127.084 116.168C128.257 114.892 136.079 106.509 136.244 105.826C136.046 105.731 136.144 105.746 135.954 105.758Z" fill="black"/>
<path d="M33.0386 48.8668C33.0447 48.3376 33.028 47.7786 33.1508 47.2614C33.3372 46.4746 33.7731 46.0262 34.4366 45.6004C34.6185 45.5919 34.8032 45.584 34.985 45.598C35.7343 45.6568 36.1175 46.116 36.5924 46.6393C36.7475 47.3661 36.7773 48.122 36.8389 48.8619C37.8297 48.8706 38.7182 48.8708 39.5179 49.5418C39.9048 49.8667 40.1636 50.3375 40.1842 50.8466C40.202 51.2856 40.0363 51.7042 39.7407 52.0262C38.9947 52.8393 37.9243 52.8161 36.9111 52.8545C36.8169 53.5889 36.7039 54.3203 36.572 55.0487C36.1865 55.5702 35.796 55.9014 35.2283 56.2126C34.6733 56.1526 34.2215 56.08 33.7961 55.6921C33.051 55.0129 33.0681 53.8407 33.0006 52.9129C31.9625 52.813 30.939 52.794 30.0754 52.1284C29.6685 51.815 29.3629 51.395 29.3336 50.8705C29.3153 50.545 29.495 50.2014 29.7013 49.9625C30.5472 48.9836 31.8522 48.9636 33.0386 48.8668Z" fill="white"/>
<path d="M152.766 87.1408L126.768 87.8427L116.468 88.1605C114.497 88.2295 112.527 88.3893 110.553 88.3628C110.669 89.583 110.878 90.7759 111.067 91.9853L111.102 92.1613L112.371 99.9857C112.583 101.259 112.962 102.625 112.978 103.913C111.929 103.443 111.013 103.12 109.868 102.985L108.932 102.836C108.483 101.357 108.376 99.0812 108.124 97.483C107.548 93.8256 106.859 90.1865 106.269 86.5312C101.369 86.7937 96.471 87.0956 91.5757 87.437C89.7527 87.565 86.2052 88.0438 84.5934 87.8748L84.0248 88.0335C83.7248 88.7772 86.8457 108.299 87.2629 110.215C91.4388 109.906 95.6531 109.789 99.8395 109.714C97.1657 112.59 94.5347 115.504 91.9464 118.457C90.9712 119.57 89.8007 120.664 89.0163 121.921C88.7873 122.288 88.6734 122.594 88.706 123.028C88.7393 123.473 89.0125 123.77 89.3001 124.085C90.6527 125.568 92.3304 126.881 93.7931 128.271C97.6781 131.962 101.617 135.625 105.407 139.413C101.45 139.738 96.8076 140.02 92.8774 140.055L92.3533 140.315C92.2171 140.875 95.463 159.606 95.8528 162.01C101.24 161.673 106.625 161.3 112.007 160.893C113.445 160.786 116.456 160.811 117.672 160.371L117.806 160.287C118.245 159.191 116.4 151.894 116.389 150.027C118.309 151.787 120.195 154.085 122.276 155.592C122.522 156.822 123.163 158.662 123.178 159.827L123.346 160.101C123.567 160.198 123.711 160.214 123.944 160.192C127.611 159.851 131.341 159.754 135.02 159.548L160.149 158.273C165.326 158.034 170.537 157.896 175.704 157.499C175.842 157.604 176.017 157.616 176.188 157.625C176.448 157.638 176.612 157.603 176.794 157.415C176.765 155.426 176.173 153.227 175.823 151.264C174.949 146.348 174.018 141.443 173.029 136.549C173.87 135.38 174.873 134.301 175.809 133.207L180.442 127.786C181.693 126.31 183.249 124.69 184.023 122.905C183.831 120.267 183.213 117.448 182.608 114.867L183.479 113.855C184.506 121.052 185.924 128.223 187.149 135.392L195.668 183.857L198.593 200.609C199.22 204.135 199.994 207.684 200.451 211.235L125.466 215.711L96.8519 217.45C93.6637 217.642 90.4621 217.728 87.2782 217.953C86.1935 209.313 84.7947 200.691 83.5521 192.07L75.3857 135.337L68.0667 85.1144C66.2634 72.3323 64.691 59.4934 62.6416 46.7493C65.6001 46.6192 68.5964 46.7062 71.5617 46.6555L101.322 46.3553L142.289 46.023C151.209 45.9435 160.14 45.7131 169.059 45.7809C169.431 47.4986 169.57 49.3345 169.814 51.0787C170.48 55.8423 171.032 60.7141 171.971 65.4287L152.766 87.1408ZM158.693 66.0137C158.586 63.8655 158.035 61.7481 157.931 59.609L80.0011 60.1138C80.4078 62.1782 80.7669 64.2508 81.0785 66.3316C81.1359 66.4424 81.2093 66.5177 81.2918 66.6102C83.2441 66.8612 85.6959 66.6599 87.7099 66.6595L101.467 66.6538L148.77 66.6297C150.528 66.6318 158.43 66.8582 159.509 66.5116L159.521 66.3224C159.207 66.0292 159.107 66.062 158.693 66.0137ZM98.5312 177.624L97.8937 177.668C97.7243 177.888 97.6769 178.036 97.7222 178.32C97.8004 178.815 97.9767 179.272 98.036 179.779L98.3447 181.484L100.456 193.668C100.807 195.7 101.018 198.064 101.668 200.01C102.326 200.36 103.41 200.092 104.138 200.019C106.487 199.994 108.834 199.713 111.176 199.576C115.852 199.332 120.525 199.061 125.197 198.762C124.945 196.252 124.338 193.73 123.874 191.249C122.927 186.183 121.902 181.094 121.115 176.002C119.586 176.17 118.037 176.21 116.502 176.34C110.516 176.824 104.526 177.252 98.5312 177.624ZM125.497 176.419C125.782 178.501 126.124 180.574 126.521 182.638L126.572 183.056C127.208 187.659 128.254 192.216 128.85 196.814L128.907 197.116C128.948 197.706 129.134 198.284 129.283 198.856C134.232 198.795 139.202 198.267 144.141 197.937C148.8 197.626 153.478 197.585 158.137 197.268C166.679 196.685 175.246 195.792 183.809 195.578L181.119 180.388C180.711 177.977 180.134 175.458 179.979 173.022C176.174 173.217 172.364 173.548 168.56 173.787L149.755 174.895C141.67 175.435 133.593 176.041 125.497 176.419ZM85.9589 76.6977C85.2267 76.7041 83.1079 76.5405 82.5745 76.8503L82.5614 77.1433C83.009 77.3976 139.109 77.2359 144.079 77.2253C144.826 77.2398 146.544 77.433 147.116 76.9956C146.773 76.6509 145.905 76.6729 145.425 76.6689L112.792 76.6825C103.852 76.686 94.8975 76.5742 85.9589 76.6977Z" fill="white"/>
<path d="M127.091 117.282C128.793 115.753 130.292 113.887 131.813 112.176C134.601 109.062 137.361 105.923 140.092 102.76L164.172 75.5021L173.135 65.3553C174.827 63.429 176.469 61.3534 178.292 59.5522C178.901 58.9506 179.571 58.5067 180.36 58.1748C182.395 57.3184 184.446 57.639 186.432 58.4342C186.383 58.4551 186.334 58.4769 186.285 58.4968C185.908 58.6494 185.441 58.6738 185.04 58.7401C183.647 58.97 182.288 59.2595 181.142 60.137C179.526 61.3747 178.222 63.1691 176.888 64.7C174.638 67.2807 172.388 69.8771 170.085 72.4093C161.262 82.1007 152.551 91.8917 143.952 101.782C138.951 107.463 133.869 113.064 128.965 118.829C128.382 118.252 127.81 117.688 127.091 117.282Z" fill="white"/>
<path d="M130.365 155.989C130.683 155.701 130.994 155.406 131.299 155.105C134.865 151.599 138.053 147.581 141.387 143.848L162.586 119.734C164.297 117.769 165.952 115.754 167.675 113.799C175.336 105.231 182.954 96.6245 190.529 87.98L196.409 81.2806C197.567 79.9721 198.829 78.7004 199.865 77.2946C200.705 76.1544 201.13 74.8822 201.13 73.463C201.129 72.2145 200.811 70.9742 200.125 69.9228C198.933 68.0942 195.419 65.303 193.684 63.6912C192.103 62.222 190.592 60.6709 189.002 59.2142C188.486 58.7422 187.7 58.4265 187.253 57.9305C187.224 57.8982 187.2 57.8612 187.174 57.8265C188.503 57.6934 189.908 57.7892 191.248 57.7897C193.427 57.7904 195.617 57.7459 197.794 57.8337C197.947 57.9302 198.097 58.0316 198.244 58.1382C200.316 59.6202 202.161 61.678 204.057 63.3898L209.462 68.1971C210.536 69.1606 211.78 70.1366 212.639 71.3007C213.21 72.0763 213.554 73.1141 213.684 74.0659C213.916 75.7641 213.421 77.42 212.365 78.7609C210.835 80.7029 209.138 82.5559 207.533 84.44L197.488 96.1684C187.949 107.425 178.265 118.555 168.437 129.559C163.659 135.042 158.834 140.482 153.96 145.879C151.736 148.355 149.554 151.184 147.03 153.352C145.661 154.529 144.075 155.128 142.3 155.349C138.371 155.778 134.317 155.793 130.365 155.989Z" fill="#F0F0F3"/>
<path d="M158.693 66.0137C150.746 66.0844 81.7937 65.9084 81.1874 66.2082L81.0784 66.3315C80.7668 64.2507 80.4077 62.1781 80.001 60.1137L157.93 59.6089C158.035 61.748 158.586 63.8654 158.693 66.0137Z" fill="#F0F0F3"/>
<path d="M81.0786 66.3315L81.1876 66.2082C81.7939 65.9084 150.747 66.0845 158.693 66.0137C159.107 66.062 159.207 66.0291 159.521 66.3223L159.509 66.5115C158.43 66.8581 150.528 66.6317 148.77 66.6296L101.467 66.6538L87.71 66.6594C85.696 66.6598 83.2442 66.8612 81.2919 66.6102C81.2094 66.5176 81.136 66.4423 81.0786 66.3315Z" fill="black"/>
<path d="M74.4375 192.875C73.4328 192.454 72.4377 192.011 71.4522 191.547C70.4666 191.083 69.4915 190.598 68.527 190.091C67.5624 189.585 66.6094 189.058 65.6678 188.51C64.7261 187.962 63.7967 187.395 62.8797 186.807C61.9625 186.219 61.0586 185.611 60.168 184.984C59.2772 184.357 58.4004 183.711 57.5376 183.046C56.6748 182.381 55.8268 181.698 54.9937 180.996C54.1606 180.294 53.343 179.574 52.541 178.837C52.0971 178.429 51.6582 178.015 51.2242 177.595C50.7903 177.176 50.3616 176.752 49.938 176.322C49.5144 175.893 49.096 175.458 48.6827 175.019C48.2696 174.579 47.8617 174.134 47.4592 173.685C47.0567 173.236 46.6597 172.781 46.2682 172.322C45.8766 171.863 45.4907 171.4 45.1103 170.931C44.7299 170.463 44.3552 169.99 43.9863 169.513C43.6174 169.035 43.2542 168.554 42.8967 168.068C42.5393 167.582 42.1879 167.091 41.8425 166.597C41.4968 166.102 41.1572 165.604 40.8236 165.101C40.4902 164.598 40.1628 164.091 39.8414 163.581C39.5201 163.07 39.205 162.556 38.8961 162.037C38.5871 161.519 38.2844 160.998 37.9882 160.472C37.6917 159.946 37.4017 159.417 37.1182 158.885C36.8346 158.352 36.5574 157.817 36.2866 157.278C36.016 156.738 35.7518 156.196 35.4942 155.65C35.2365 155.105 34.9855 154.556 34.7411 154.005C34.4966 153.453 34.2589 152.899 34.0279 152.341C33.7968 151.784 33.5725 151.224 33.3548 150.661C33.1373 150.098 32.9266 149.533 32.7227 148.965C32.5186 148.398 32.3215 147.827 32.1314 147.255C31.9412 146.682 31.7579 146.108 31.5815 145.531C31.4051 144.954 31.2357 144.375 31.0734 143.794C30.9109 143.213 30.7555 142.63 30.6072 142.045C30.4588 141.46 30.3175 140.874 30.1832 140.285C30.049 139.697 29.9219 139.108 29.8019 138.516C29.6819 137.925 29.569 137.332 29.4632 136.738C29.3575 136.144 29.2589 135.549 29.1675 134.953C29.076 134.356 28.9918 133.759 28.9148 133.161C28.8379 132.562 28.7682 131.963 28.7055 131.363C28.643 130.763 28.5877 130.162 28.5396 129.561C28.4914 128.959 28.4506 128.358 28.417 127.755C27.771 113.931 31.2944 99.6513 39.2303 88.2196C40.8161 85.9352 42.6039 83.8403 44.4754 81.7877C44.8257 81.4041 45.1813 81.0253 45.5421 80.6514C45.9028 80.2775 46.2688 79.9087 46.6399 79.5449C47.0108 79.1812 47.3867 78.8227 47.7675 78.4694C48.1484 78.1161 48.5341 77.768 48.9246 77.4252C49.315 77.0826 49.7102 76.7453 50.11 76.4134C50.5099 76.0817 50.9142 75.7556 51.3229 75.4349C51.7318 75.1143 52.145 74.7994 52.5625 74.4902C52.98 74.1809 53.4017 73.8776 53.8277 73.5801C54.2535 73.2824 54.6833 72.9908 55.1172 72.7052C55.5513 72.4194 55.9891 72.1397 56.4307 71.8661C56.8724 71.5925 57.3178 71.3251 57.7668 71.0638C58.2159 70.8024 58.6685 70.5473 59.1246 70.2986C59.5807 70.0497 60.0401 69.8072 60.5029 69.5711C60.9657 69.335 61.4317 69.1053 61.9007 68.882C62.3699 68.6589 62.8421 68.4422 63.3171 68.2319C63.7922 68.0217 64.2702 67.8181 64.751 67.6211C65.0955 69.2875 65.2664 71.0022 65.4918 72.6885C65.8242 75.1985 66.1728 77.7063 66.5378 80.2117L70.4324 107.143L78.697 164.134L81.9389 186.327C82.3987 189.495 82.7631 192.675 83.2626 195.838C80.2994 195.18 77.2167 194.094 74.4375 192.875Z" fill="#15ADFF"/>
<path d="M144.079 77.225C139.109 77.2355 83.0092 77.3973 82.5615 77.143L82.5746 76.85C83.1081 76.5402 85.2268 76.7038 85.959 76.6974C94.8976 76.5739 103.852 76.6857 112.792 76.6822L145.425 76.6686C145.906 76.6726 146.773 76.6506 147.116 76.9953C146.544 77.4327 144.826 77.2395 144.079 77.225Z" fill="black"/>
<path d="M84.5935 87.8749C86.2053 88.0439 89.7528 87.5651 91.5758 87.4371C96.4711 87.0957 101.369 86.7937 106.269 86.5312C106.86 90.1866 107.548 93.8257 108.124 97.4831C108.376 99.0813 108.484 101.357 108.932 102.836L109.868 102.985C109.48 102.975 109.088 102.964 108.7 102.991C104.772 103.276 102.719 106.368 100.369 109.106C96.2365 109.049 92.0612 109.379 87.9237 109.452C87.5028 105.505 86.7765 101.565 86.1833 97.6387C85.7136 94.5281 85.3808 91.3463 84.8077 88.2591C84.7768 88.0922 84.7074 87.9954 84.5935 87.8749Z" fill="white"/>
<path d="M110.553 88.3627C112.527 88.3891 114.497 88.2293 116.468 88.1604L126.768 87.8426L152.766 87.1406L150.091 90.1922C139.694 90.8215 129.252 90.9277 118.845 91.3441C117.596 91.3941 112.006 91.4548 111.332 91.6725C111.251 91.6985 111.192 91.7698 111.123 91.8183L111.067 91.9852C110.878 90.7758 110.669 89.5828 110.553 88.3627Z" fill="#F0F0F3"/>
<path d="M111.103 92.1613C112.306 92.2851 113.615 92.1117 114.826 92.0566L121.759 91.7556L139.644 91.1542C142.918 91.0417 146.203 90.836 149.477 90.7954C145.367 95.6172 141.127 100.325 136.975 105.111L115.633 105.964C114.777 105.198 113.939 104.545 112.978 103.913C112.962 102.625 112.583 101.259 112.371 99.9857L111.103 92.1613Z" fill="#F0F0F3"/>
<path d="M93.7117 127.034C93.6777 127.009 93.6428 126.986 93.6095 126.96C92.8562 126.381 89.7039 123.601 89.5935 122.776C90.7881 120.373 97.4917 113.486 99.5917 111.169C101.257 109.333 102.834 107.339 104.605 105.61C106.03 104.22 107.702 103.795 109.634 103.808C108.07 105.012 106.802 106.54 105.479 107.995L101.007 112.899C99.393 114.67 97.7923 116.453 96.2045 118.247C95.3137 119.242 94.3255 120.221 93.5631 121.32C93.2094 121.829 93.0013 122.51 92.9106 123.118C92.703 124.511 93.2233 125.766 93.7117 127.034Z" fill="white"/>
<path d="M116.077 106.434C122.705 106.299 129.325 105.862 135.954 105.758C136.144 105.747 136.046 105.731 136.244 105.826C136.079 106.509 128.257 114.892 127.084 116.169C125.225 114.67 123.445 113.056 121.679 111.451C119.793 109.8 117.983 108.062 116.077 106.434Z" fill="#F0F0F3"/>
<path d="M27.8557 111.471C25.0765 123.505 26.0787 136.106 29.8852 147.801C30.0444 148.285 30.2086 148.767 30.3779 149.248C30.5469 149.728 30.721 150.207 30.9 150.684C31.0789 151.161 31.2628 151.636 31.4515 152.11C31.6404 152.583 31.8341 153.054 32.0325 153.523C32.231 153.993 32.4342 154.46 32.6421 154.925C32.8503 155.39 33.0632 155.853 33.2808 156.314C33.4983 156.775 33.7206 157.233 33.9476 157.689C34.1747 158.145 34.4063 158.599 34.6425 159.051C34.8789 159.502 35.1199 159.951 35.3654 160.397C35.611 160.844 35.8611 161.288 36.1158 161.729C36.3705 162.17 36.6297 162.609 36.8935 163.045C37.1571 163.481 37.4252 163.914 37.6979 164.345C37.9705 164.775 38.2475 165.203 38.5289 165.628C38.8104 166.052 39.0961 166.474 39.3861 166.893C39.6762 167.312 39.9706 167.728 40.2692 168.14C40.5678 168.553 40.8707 168.963 41.1779 169.37C41.4849 169.776 41.7961 170.18 42.1114 170.58C42.4267 170.98 42.7461 171.377 43.0697 171.771C43.3932 172.164 43.7207 172.555 44.0522 172.942C44.3838 173.329 44.7193 173.712 45.0586 174.092C45.398 174.472 45.7413 174.849 46.0885 175.222C46.4357 175.594 46.7866 175.964 47.1413 176.33C47.4961 176.695 47.8547 177.057 48.2168 177.416C48.579 177.774 48.9449 178.129 49.3144 178.48C49.6838 178.83 50.0568 179.178 50.4336 179.521C50.8101 179.864 51.1902 180.203 51.5738 180.538C51.9574 180.874 52.3444 181.205 52.7349 181.533C53.1252 181.86 53.5189 182.184 53.9159 182.503C54.3131 182.822 54.7134 183.137 55.1168 183.448C55.5204 183.76 55.9272 184.066 56.337 184.369C56.7468 184.672 57.1597 184.97 57.5757 185.265C57.9918 185.559 58.4107 185.849 58.8326 186.134C61.6775 188.054 64.7956 189.756 67.853 191.316C67.8008 191.482 67.8277 191.556 67.6529 191.633C66.7168 192.043 56.2575 192.19 54.0933 192.303C52.0679 191.1 50.1324 189.424 48.3455 187.897C47.7172 187.355 47.0986 186.803 46.4895 186.24C45.8804 185.677 45.2814 185.104 44.6923 184.52C44.1032 183.936 43.5245 183.342 42.9561 182.738C42.3876 182.134 41.83 181.521 41.2831 180.897C40.7361 180.274 40.2 179.641 39.675 178.999C39.1502 178.357 38.6366 177.706 38.1343 177.046C37.6321 176.386 37.1415 175.717 36.6626 175.04C36.1837 174.363 35.7167 173.677 35.2615 172.984C34.8065 172.291 34.3637 171.589 33.9331 170.881C33.5025 170.172 33.0843 169.456 32.6787 168.732C32.2731 168.009 31.8801 167.279 31.4998 166.541C31.1197 165.804 30.7525 165.061 30.3982 164.311C30.0439 163.561 29.7027 162.805 29.3747 162.043C29.0468 161.281 28.7322 160.514 28.4311 159.741C28.1299 158.969 27.8422 158.191 27.5682 157.408C27.2941 156.625 27.0337 155.838 26.787 155.046C26.5579 154.316 26.3414 153.583 26.1373 152.846C25.9331 152.109 25.7414 151.369 25.5624 150.625C25.3833 149.881 25.2168 149.135 25.0629 148.386C24.9092 147.636 24.7681 146.885 24.6397 146.131C24.5114 145.377 24.3958 144.621 24.293 143.863C24.1902 143.105 24.1003 142.346 24.0232 141.585C23.9462 140.824 23.8821 140.062 23.8308 139.299C23.7796 138.536 23.7412 137.772 23.7157 137.007C23.6904 136.243 23.678 135.478 23.6785 134.713C23.6789 133.949 23.6924 133.184 23.7188 132.42C23.7452 131.655 23.7846 130.891 23.8369 130.128C23.8891 129.365 23.9543 128.603 24.0324 127.843C24.1105 127.082 24.2014 126.322 24.3052 125.565C24.4089 124.807 24.5255 124.051 24.6549 123.297C24.7843 122.544 24.9264 121.792 25.0812 121.043C25.2359 120.294 25.4033 119.548 25.5835 118.805C26.1514 116.396 26.705 113.67 27.8557 111.471Z" fill="#15ADFF"/>
<path d="M162.811 137.252C169.165 129.602 176.033 122.33 182.608 114.867C183.213 117.448 183.831 120.266 184.024 122.905C183.249 124.689 181.693 126.31 180.442 127.785L175.809 133.207C174.873 134.301 173.87 135.38 173.029 136.548C174.018 141.443 174.95 146.348 175.823 151.264C176.173 153.227 176.765 155.426 176.794 157.415C176.612 157.603 176.448 157.638 176.188 157.624C176.017 157.616 175.842 157.604 175.705 157.499L175.505 157.121C174.452 156.812 125.318 159.329 123.178 159.827C123.163 158.662 122.522 156.821 122.276 155.592C123.282 156.235 124.273 156.703 125.458 156.903C127.479 157.243 129.825 156.844 131.866 156.731L140.831 156.277C142.709 156.178 144.465 155.949 146.12 154.989C148.912 153.369 152.111 149.188 154.383 146.65L161.871 138.302C162.068 138.434 162.243 138.546 162.48 138.593C163.175 138.73 164.168 138.517 164.885 138.447C167.184 138.223 170.424 138.193 172.403 136.863C169.258 136.856 165.916 137.787 162.811 137.252Z" fill="#F0F0F3"/>
<path d="M203.012 136.275C203.043 135.799 203.06 135.28 203.226 134.828C203.545 133.963 204.165 133.546 204.961 133.151C205.036 133.141 205.11 133.13 205.185 133.121C205.994 133.024 206.812 133.148 207.453 133.686C208.286 134.385 208.463 135.355 208.563 136.372C209.388 136.447 210.043 136.495 210.732 137.01C211.32 137.449 211.718 138.073 211.812 138.808C211.823 138.893 211.83 138.98 211.832 139.066C211.835 139.153 211.832 139.239 211.826 139.325C211.819 139.411 211.807 139.497 211.792 139.582C211.776 139.667 211.756 139.751 211.731 139.834C211.706 139.917 211.678 139.998 211.644 140.078C211.611 140.158 211.574 140.236 211.533 140.312C211.491 140.388 211.446 140.462 211.397 140.533C211.348 140.604 211.295 140.673 211.239 140.738C210.483 141.618 209.594 141.696 208.517 141.754C208.498 142.274 208.496 142.818 208.317 143.312C208.014 144.15 207.439 144.582 206.657 144.958C205.923 145.142 205.13 145.137 204.469 144.732C203.477 144.126 203.232 142.93 202.999 141.883C202.265 141.764 201.6 141.653 200.981 141.205C200.373 140.766 199.933 140.153 199.83 139.399C199.819 139.314 199.812 139.228 199.809 139.141C199.806 139.055 199.808 138.969 199.814 138.883C199.82 138.797 199.83 138.711 199.844 138.626C199.859 138.541 199.878 138.457 199.9 138.374C199.923 138.291 199.95 138.209 199.982 138.128C200.013 138.048 200.048 137.969 200.087 137.892C200.126 137.816 200.169 137.741 200.216 137.668C200.262 137.596 200.312 137.526 200.366 137.458C201.068 136.564 201.959 136.41 203.012 136.275ZM205.482 133.708C204.914 133.979 204.254 134.271 204.011 134.9C203.709 135.684 204.1 136.297 203.367 136.962C202.413 137.332 201.242 136.949 200.736 138.101C200.535 138.556 200.335 139.372 200.539 139.859C200.727 140.307 201.088 140.56 201.534 140.723C202.241 140.983 203.289 140.993 203.708 141.691C204.281 142.645 203.647 143.717 205.01 144.22C205.392 144.361 205.695 144.402 206.099 144.391C206.663 144.15 207.273 143.894 207.524 143.288C207.829 142.553 207.472 141.853 208.126 141.201C209.08 140.951 210.202 141.152 210.775 140.178C211.074 139.671 211.14 139.035 210.972 138.473C210.82 137.966 210.476 137.533 209.99 137.312C209.375 137.032 208.493 137.064 207.814 137.004C207.784 136.077 207.814 134.931 207.066 134.249C206.649 133.869 206.039 133.693 205.482 133.708Z" fill="black"/>
<path d="M206.099 144.39C205.695 144.401 205.392 144.361 205.01 144.22C203.647 143.717 204.281 142.645 203.708 141.69C203.289 140.993 202.241 140.982 201.534 140.723C201.088 140.56 200.727 140.306 200.539 139.859C200.335 139.372 200.535 138.556 200.736 138.101C201.242 136.949 202.413 137.332 203.367 136.962C204.1 136.296 203.709 135.683 204.011 134.9C204.254 134.27 204.914 133.978 205.482 133.708C206.039 133.693 206.649 133.868 207.066 134.249C207.814 134.931 207.784 136.077 207.814 137.004C208.493 137.064 209.374 137.032 209.99 137.312C210.476 137.533 210.82 137.966 210.971 138.473C211.14 139.035 211.074 139.671 210.775 140.178C210.202 141.152 209.08 140.951 208.126 141.2C207.472 141.853 207.829 142.553 207.524 143.288C207.273 143.894 206.663 144.15 206.099 144.39Z" fill="white"/>
<path d="M162.81 137.252C165.916 137.787 169.258 136.856 172.402 136.862C170.424 138.192 167.184 138.223 164.885 138.447C164.168 138.517 163.174 138.73 162.48 138.593C162.243 138.546 162.068 138.434 161.871 138.301L162.81 137.252Z" fill="#97EBFE"/>
<path d="M105.407 139.413C107.863 141.655 110.211 144.033 112.606 146.341C113.83 147.519 115.338 148.709 116.389 150.027C116.4 151.894 118.245 159.191 117.806 160.287L117.672 160.371C117.424 160.149 117.323 160.099 116.989 160.084C114.919 159.992 112.691 160.316 110.618 160.466C105.878 160.807 101.122 161.25 96.3731 161.414C95.5479 157.501 95.0672 153.461 94.391 149.514C93.9527 146.957 92.9328 142.508 92.8774 140.055C96.8077 140.019 101.45 139.737 105.407 139.413Z" fill="white"/>
<path d="M95.8527 162.01C95.463 159.606 92.2171 140.875 92.3533 140.315L92.8774 140.055C92.9327 142.509 93.9527 146.957 94.3909 149.515C95.0671 153.461 95.5478 157.502 96.3731 161.414C101.122 161.251 105.878 160.807 110.618 160.466C112.691 160.317 114.919 159.992 116.988 160.085C117.323 160.1 117.423 160.15 117.672 160.371C116.456 160.811 113.445 160.786 112.007 160.893C106.625 161.3 101.24 161.673 95.8527 162.01Z" fill="black"/>
<path d="M175.704 157.499C170.537 157.896 165.326 158.034 160.149 158.273L135.02 159.548C131.341 159.754 127.611 159.851 123.945 160.192C123.711 160.213 123.567 160.197 123.346 160.101L123.178 159.827C125.318 159.329 174.451 156.812 175.505 157.121L175.704 157.499Z" fill="black"/>
<path d="M126.521 182.638C126.124 180.574 125.782 178.501 125.497 176.419C133.593 176.041 141.67 175.435 149.755 174.895L168.56 173.787C172.364 173.548 176.174 173.217 179.979 173.021C180.134 175.457 180.711 177.976 181.119 180.387L183.809 195.578C175.246 195.791 166.679 196.684 158.137 197.267C153.478 197.585 148.8 197.625 144.141 197.937C139.202 198.267 134.232 198.795 129.283 198.855C129.135 198.284 128.948 197.705 128.907 197.115C130.693 197.131 132.557 196.889 134.343 196.764L144.935 196.014L174.793 193.992C176.082 193.902 181.623 193.724 182.324 193.41L182.336 193.187L182.168 193.036C179.474 193.082 176.753 193.367 174.062 193.536L157.083 194.655L139.71 195.834C136.32 196.065 132.887 196.215 129.51 196.586C129.236 196.616 129.074 196.638 128.85 196.814C128.254 192.216 127.208 187.658 126.572 183.056C130.515 183.005 134.549 182.525 138.489 182.25L160.17 180.799L174.061 179.895C175.518 179.796 178.007 179.811 179.318 179.54C179.641 179.473 179.672 179.428 179.831 179.168L179.715 179.012C173.558 179.586 127.235 182.216 126.521 182.638Z" fill="#F0F0F3"/>
<path d="M98.036 179.779C97.9768 179.272 97.8005 178.815 97.7222 178.32C97.677 178.036 97.7243 177.888 97.8938 177.668L98.5313 177.624C104.526 177.252 110.516 176.824 116.502 176.34C118.037 176.21 119.586 176.17 121.115 176.002C121.902 181.094 122.927 186.183 123.874 191.249C124.338 193.73 124.945 196.252 125.198 198.762C120.525 199.061 115.852 199.332 111.176 199.576C108.834 199.713 106.487 199.994 104.138 200.019C103.41 200.092 102.326 200.36 101.668 200.01C101.018 198.064 100.808 195.7 100.456 193.668L98.3447 181.484L98.036 179.779Z" fill="white"/>
<path d="M126.521 182.638C127.235 182.216 173.557 179.586 179.715 179.012L179.831 179.168C179.672 179.428 179.641 179.474 179.317 179.541C178.007 179.812 175.518 179.796 174.061 179.896L160.17 180.799L138.489 182.25C134.549 182.525 130.515 183.005 126.572 183.056L126.521 182.638Z" fill="black"/>
<path d="M67.853 191.315C72.4917 193.553 78.2833 195.954 83.3958 196.722C83.838 199.267 84.0152 201.885 84.5334 204.41C73.6877 202.571 63.0265 198.893 54.0933 192.303C56.2575 192.19 66.7167 192.043 67.6528 191.633C67.8276 191.556 67.8007 191.481 67.853 191.315Z" fill="#15ADFF"/>
<path d="M128.85 196.814C129.074 196.639 129.236 196.616 129.51 196.586C132.887 196.216 136.32 196.066 139.71 195.835L157.083 194.655L174.062 193.537C176.753 193.367 179.474 193.082 182.168 193.037L182.336 193.188L182.324 193.41C181.623 193.724 176.082 193.903 174.793 193.992L144.935 196.014L134.343 196.764C132.557 196.89 130.693 197.132 128.907 197.116L128.85 196.814Z" fill="black"/>
<path d="M36.1896 208.101C34.8943 208.341 33.5775 208.176 32.4284 207.508C32.3528 207.463 32.2783 207.416 32.205 207.368C32.1318 207.319 32.0596 207.269 31.9887 207.217C31.9178 207.165 31.8482 207.111 31.7801 207.056C31.7118 207.001 31.645 206.943 31.5795 206.885C31.514 206.826 31.45 206.766 31.3875 206.704C31.325 206.642 31.264 206.579 31.2045 206.514C31.1451 206.449 31.0873 206.383 31.0311 206.315C30.9748 206.248 30.9203 206.179 30.8675 206.109C30.8146 206.038 30.7636 205.967 30.7142 205.894C30.665 205.821 30.6175 205.747 30.5717 205.672C30.5259 205.597 30.482 205.521 30.44 205.444C30.3981 205.367 30.358 205.288 30.3197 205.209C30.2816 205.13 30.2454 205.05 30.211 204.969C30.1768 204.888 30.1445 204.806 30.1142 204.724C30.0839 204.641 30.0556 204.558 30.0293 204.474C30.0031 204.39 29.9789 204.306 29.9569 204.221C29.9333 204.131 29.9121 204.04 29.8932 203.949C29.8741 203.858 29.8574 203.767 29.843 203.675C29.8286 203.583 29.8166 203.491 29.8069 203.398C29.7972 203.306 29.7898 203.213 29.7846 203.12C29.7796 203.028 29.777 202.935 29.7767 202.842C29.7762 202.749 29.7782 202.656 29.7825 202.563C29.7868 202.47 29.7934 202.377 29.8025 202.285C29.8114 202.192 29.8227 202.1 29.8364 202.008C29.85 201.916 29.866 201.825 29.8843 201.733C29.9025 201.642 29.9231 201.552 29.9459 201.462C29.9687 201.371 29.9938 201.282 30.0211 201.193C30.0485 201.104 30.078 201.016 30.1097 200.929C30.1414 200.841 30.1754 200.755 30.2117 200.669C30.2478 200.583 30.2861 200.499 30.3265 200.415C30.3668 200.331 30.4093 200.249 30.4538 200.167C30.4985 200.086 30.5451 200.005 30.5937 199.926C31.4663 198.515 32.6773 197.875 34.2286 197.482C35.3656 197.391 36.3943 197.414 37.4496 197.917C38.765 198.542 39.8234 199.729 40.2621 201.121C40.2895 201.209 40.3146 201.298 40.3374 201.388C40.3604 201.477 40.3811 201.567 40.3995 201.658C40.4179 201.748 40.4341 201.839 40.448 201.931C40.4619 202.022 40.4736 202.114 40.4832 202.206C40.4925 202.298 40.4997 202.39 40.5047 202.482C40.5096 202.574 40.5121 202.667 40.5125 202.759C40.5128 202.852 40.5108 202.944 40.5066 203.036C40.5024 203.128 40.4959 203.221 40.4871 203.313C40.4784 203.405 40.4674 203.496 40.4541 203.588C40.4407 203.679 40.4251 203.77 40.4075 203.861C40.3896 203.952 40.3696 204.042 40.3472 204.132C40.325 204.221 40.3007 204.31 40.2741 204.399C40.2474 204.487 40.2186 204.575 40.1876 204.662C40.1567 204.749 40.1236 204.836 40.0882 204.921C40.0531 205.006 40.0157 205.091 39.9762 205.174C39.9368 205.258 39.8954 205.341 39.852 205.422C39.0544 206.889 37.7454 207.657 36.1896 208.101ZM34.4391 198.18C33.0104 198.587 31.8612 199.263 31.1368 200.621C30.5492 201.723 30.3914 203.05 30.7657 204.248C30.7886 204.321 30.8133 204.393 30.84 204.465C30.8666 204.537 30.895 204.608 30.9251 204.679C30.9554 204.749 30.9875 204.819 31.0212 204.887C31.055 204.956 31.0904 205.024 31.1276 205.091C31.1648 205.158 31.2037 205.224 31.2443 205.289C31.285 205.354 31.3272 205.418 31.3711 205.481C31.4149 205.544 31.4603 205.606 31.5073 205.666C31.5543 205.727 31.6029 205.786 31.6529 205.844C31.7029 205.902 31.7543 205.959 31.8073 206.014C31.8601 206.07 31.9144 206.124 31.9702 206.176C32.0258 206.229 32.0828 206.28 32.1411 206.33C32.1993 206.38 32.2589 206.428 32.3196 206.475C32.3804 206.522 32.4423 206.567 32.5053 206.611C32.5684 206.654 32.6325 206.696 32.6977 206.736C32.7629 206.777 32.829 206.815 32.8962 206.852C32.9634 206.889 33.0314 206.924 33.1004 206.958C34.0296 207.402 35.0175 207.482 36.0268 207.342C37.3882 206.88 38.5414 206.252 39.2255 204.916C39.7953 203.802 39.8651 202.471 39.4725 201.289C39.4489 201.216 39.4234 201.143 39.3959 201.071C39.3686 200.999 39.3394 200.928 39.3085 200.857C39.2774 200.787 39.2446 200.717 39.21 200.648C39.1754 200.579 39.139 200.512 39.1011 200.445C39.0629 200.378 39.0232 200.312 38.9818 200.247C38.9404 200.182 38.8973 200.118 38.8526 200.055C38.8079 199.993 38.7617 199.931 38.7139 199.871C38.6659 199.81 38.6165 199.751 38.5657 199.693C38.5148 199.636 38.4625 199.579 38.4087 199.524C38.355 199.469 38.2999 199.415 38.2435 199.362C38.1869 199.31 38.1291 199.259 38.07 199.21C38.0108 199.16 37.9504 199.113 37.8889 199.066C37.8275 199.02 37.7648 198.976 37.7009 198.932C37.637 198.889 37.5721 198.848 37.5061 198.808C37.4402 198.768 37.3733 198.73 37.3055 198.694C37.2375 198.657 37.1687 198.623 37.099 198.59C36.2274 198.185 35.3839 198.132 34.4391 198.18Z" fill="black"/>
<path d="M36.0267 207.342C35.0175 207.482 34.0296 207.402 33.1003 206.958C33.0314 206.925 32.9633 206.889 32.8961 206.852C32.8289 206.815 32.7628 206.777 32.6976 206.737C32.6325 206.696 32.5683 206.654 32.5052 206.611C32.4422 206.567 32.3803 206.522 32.3196 206.475C32.2588 206.429 32.1993 206.38 32.141 206.33C32.0827 206.281 32.0257 206.229 31.9701 206.177C31.9143 206.124 31.86 206.07 31.8072 206.014C31.7543 205.959 31.7028 205.902 31.6528 205.844C31.6028 205.786 31.5543 205.727 31.5072 205.666C31.4602 205.606 31.4148 205.544 31.3711 205.481C31.3271 205.418 31.2849 205.354 31.2443 205.289C31.2036 205.224 31.1647 205.158 31.1275 205.091C31.0903 205.024 31.0549 204.956 31.0211 204.888C30.9874 204.819 30.9554 204.749 30.925 204.679C30.8949 204.608 30.8665 204.537 30.84 204.465C30.8132 204.393 30.7885 204.321 30.7657 204.248C30.3914 203.051 30.5491 201.723 31.1367 200.621C31.8611 199.263 33.0103 198.588 34.439 198.18C35.3838 198.132 36.2273 198.185 37.0989 198.59C37.1686 198.623 37.2375 198.658 37.3054 198.694C37.3732 198.73 37.4401 198.768 37.5061 198.808C37.572 198.848 37.6369 198.889 37.7008 198.933C37.7647 198.976 37.8274 199.02 37.8888 199.067C37.9503 199.113 38.0107 199.161 38.07 199.21C38.129 199.259 38.1868 199.31 38.2434 199.363C38.2998 199.415 38.3549 199.469 38.4086 199.524C38.4624 199.579 38.5147 199.636 38.5657 199.694C38.6164 199.751 38.6658 199.81 38.7138 199.871C38.7616 199.931 38.8078 199.993 38.8525 200.055C38.8972 200.118 38.9403 200.182 38.9817 200.247C39.0231 200.312 39.0628 200.378 39.101 200.445C39.1389 200.512 39.1753 200.58 39.21 200.648C39.2445 200.717 39.2773 200.787 39.3084 200.857C39.3393 200.928 39.3685 200.999 39.3958 201.071C39.4233 201.143 39.4489 201.216 39.4725 201.289C39.865 202.471 39.7952 203.803 39.2254 204.916C38.5413 206.252 37.3882 206.88 36.0267 207.342Z" fill="white"/>
<path d="M101.853 200.01C101.463 197.606 98.2171 178.875 98.3533 178.315L98.8774 178.055C98.9327 180.509 99.9527 184.957 100.391 187.515C101.067 191.461 101.548 195.502 102.373 199.414C107.122 199.251 111.878 198.807 116.618 198.466C118.691 198.317 120.919 197.992 122.988 198.085C123.323 198.1 123.423 198.15 123.672 198.371C122.456 198.811 119.445 198.786 118.007 198.893C112.625 199.3 107.24 199.673 101.853 200.01Z" fill="black"/>
</g>
<defs>
<clipPath id="clip0_99_1577">
<rect width="240" height="240" fill="white"/>
</clipPath>
</defs>
</svg>
