<svg width="33" height="32" viewBox="0 0 33 32" fill="none" xmlns="http://www.w3.org/2000/svg">
<g clip-path="url(#clip0_99_998)">
<circle cx="16.5" cy="16" r="16" fill="#009CF0"/>
<path fill-rule="evenodd" clip-rule="evenodd" d="M22.2752 9.59124C22.4798 9.50968 22.7031 9.4821 22.9223 9.51133C23.1416 9.54056 23.3488 9.62554 23.5228 9.75757C23.6969 9.88961 23.8314 10.0639 23.9127 10.2627C23.994 10.4615 24.0191 10.6776 23.9855 10.8888C23.5005 13.9344 22.6114 19.5153 22.1394 22.4778C22.1068 22.6828 22.0199 22.8761 21.8872 23.0392C21.7545 23.2023 21.5805 23.3296 21.382 23.4088C21.1835 23.4879 20.9672 23.5163 20.754 23.4911C20.5408 23.4659 20.3379 23.388 20.165 23.265C18.4954 22.0771 15.9922 20.2961 14.7213 19.3916C14.6232 19.3218 14.5422 19.232 14.484 19.1287C14.4258 19.0253 14.3917 18.9109 14.3843 18.7935C14.3769 18.676 14.3963 18.5585 14.4411 18.4491C14.4859 18.3396 14.555 18.2411 14.6436 18.1603C15.8081 17.0982 18.1275 14.9829 19.7234 13.5274C19.761 13.4929 19.7839 13.446 19.7876 13.3961C19.7913 13.3462 19.7755 13.2967 19.7434 13.2573C19.7113 13.218 19.6652 13.1917 19.614 13.1835C19.5629 13.1753 19.5104 13.1859 19.4669 13.2131C17.4207 14.5018 14.287 16.4753 12.7511 17.4426C12.4633 17.6239 12.1398 17.7458 11.8009 17.8008C11.462 17.8558 11.115 17.8426 10.7816 17.7621C9.93594 17.5579 8.71609 17.2634 7.63052 17.0014C7.46056 16.9603 7.30834 16.8686 7.19553 16.7392C7.08272 16.6097 7.01508 16.4492 7.00224 16.2805C6.9894 16.1118 7.03202 15.9435 7.12403 15.7995C7.21604 15.6556 7.35274 15.5433 7.51467 15.4787C11.2937 13.9714 18.6891 11.0218 22.2752 9.59124Z" fill="white"/>
</g>
<defs>
<clipPath id="clip0_99_998">
<rect width="32" height="32" fill="white" transform="translate(0.5)"/>
</clipPath>
</defs>
</svg>
