<svg width="33" height="32" viewBox="0 0 33 32" fill="none" xmlns="http://www.w3.org/2000/svg">
<g clip-path="url(#clip0_99_999)">
<circle cx="16.5" cy="16" r="16" fill="#009CF0"/>
<path d="M26 11.2314C25.3306 11.525 24.6174 11.7196 23.8737 11.8141C24.6388 11.3574 25.2226 10.6396 25.4971 9.7745C24.7839 10.1997 23.9964 10.5001 23.1571 10.6678C22.4799 9.94663 21.5146 9.5 20.4616 9.5C18.4186 9.5 16.7739 11.1583 16.7739 13.1911C16.7739 13.4836 16.7986 13.7649 16.8594 14.0326C13.7915 13.883 11.0769 12.4126 9.25325 10.1728C8.93487 10.7251 8.74813 11.3574 8.74813 12.038C8.74813 13.316 9.40625 14.4489 10.3872 15.1047C9.79437 15.0935 9.21275 14.9214 8.72 14.6502C8.72 14.6615 8.72 14.6761 8.72 14.6907C8.72 16.484 9.99912 17.9735 11.6765 18.3166C11.3761 18.3988 11.0487 18.4381 10.709 18.4381C10.4727 18.4381 10.2342 18.4246 10.0104 18.3751C10.4885 19.8365 11.8453 20.9109 13.4585 20.9457C12.203 21.9279 10.6089 22.5196 8.88313 22.5196C8.5805 22.5196 8.29025 22.5061 8 22.469C9.63462 23.5231 11.5719 24.125 13.661 24.125C20.4515 24.125 24.164 18.5 24.164 13.6242C24.164 13.4611 24.1584 13.3036 24.1505 13.1473C24.8829 12.6275 25.4982 11.9784 26 11.2314Z" fill="white"/>
</g>
<defs>
<clipPath id="clip0_99_999">
<rect width="32" height="32" fill="white" transform="translate(0.5)"/>
</clipPath>
</defs>
</svg>
