<svg width="189" height="190" viewBox="0 0 189 190" fill="none" xmlns="http://www.w3.org/2000/svg">
<g clip-path="url(#clip0_214_2994)">
<path d="M80.7252 21.7643C81.9613 18.8672 83.4021 16.0382 84.7155 13.1723C85.5713 11.3046 86.8013 8.13846 87.8904 6.49187C88.3439 5.80624 88.9334 5.59107 89.7086 5.43278C90.3736 5.4124 90.9534 5.66472 91.5477 5.9316C94.6018 7.30352 97.5903 8.87074 100.592 10.3583L123.42 21.8964C128.329 24.3539 133.261 26.78 138.14 29.2963C140.337 30.43 142.781 31.4899 144.806 32.8957C144.883 32.9492 144.964 32.9969 145.039 33.0531C145.417 33.3364 145.547 33.9197 145.604 34.3661C145.67 34.8818 145.647 35.3819 145.467 35.8729C145.1 36.878 144.542 37.8657 144.069 38.8258L141.546 43.9472L139.089 48.9782C138.576 50.0274 138.094 51.2528 137.375 52.1723C138.317 53.9527 139.312 55.7059 140.261 57.4831C141.479 59.7634 142.659 62.0716 143.952 64.3103C146.189 64.3538 148.261 65.049 150.085 66.3431C153.011 68.4187 154.479 71.6398 155.082 75.0861C156.025 75.6311 156.854 76.1904 157.634 76.9554C158.746 78.0459 159.627 79.2469 160.366 80.6178C162.296 84.1946 162.153 87.3013 162.121 91.2196C162.086 93.9091 162.072 96.5986 162.077 99.2881C163.355 99.8726 164.488 100.701 165.196 101.943C165.665 102.766 165.804 103.46 165.869 104.4C165.941 105.441 165.879 106.506 165.865 107.549C165.846 109.131 165.838 110.713 165.842 112.295L165.842 123.901C165.841 125.55 166.058 129.83 165.633 131.21C165.122 132.87 164 134.179 162.504 135.021C162.466 137.671 162.497 140.327 162.492 142.978C162.488 144.891 162.562 146.853 162.218 148.741C162.123 149.253 162.004 149.759 161.863 150.26C161.721 150.761 161.557 151.254 161.37 151.74C161.183 152.225 160.974 152.702 160.744 153.168C160.513 153.635 160.262 154.09 159.99 154.533C158.359 157.163 155.956 159.395 153.125 160.67C150.426 161.886 147.267 162.321 144.384 162.963L132.055 165.684C128.087 166.563 124.124 167.464 120.165 168.385L100.126 172.901C95.542 173.797 90.9809 174.951 86.4248 175.987L67.8315 180.164L59.9518 181.984C58.0076 182.432 55.9336 183.044 53.9345 183.11C51.5604 183.189 48.9544 182.464 46.9343 181.222C44.7866 179.902 42.8634 177.991 40.9003 176.405C38.7517 174.669 35.1831 172.31 33.543 170.267C32.1399 168.52 31.2515 166.496 30.7526 164.317C30.2477 162.11 30.3719 159.848 30.3748 157.601L30.3743 150.826L30.3684 126.25L30.3512 102.671L30.339 95.104C30.337 93.6072 30.2722 92.0722 30.3927 90.5804C30.5214 88.9879 31.2382 87.3226 32.0845 85.9863C32.2937 85.6619 32.5152 85.3462 32.749 85.0391C32.9826 84.732 33.2279 84.4345 33.4847 84.1465C33.7414 83.8585 34.0091 83.5809 34.2875 83.3138C34.5659 83.0467 34.8541 82.7907 35.1522 82.5461C38.3084 79.9165 41.4756 79.2253 45.3413 78.3614L61.8562 19.9751C62.1613 18.8764 62.3898 17.8614 63.4936 17.2884C64.012 17.0193 64.7317 17.0728 65.2891 17.1611C67.1532 17.4562 69.0501 18.1832 70.8557 18.7353L80.7252 21.7643ZM162.427 109.666L162.297 109.71C160.48 110.311 158.485 110.616 156.615 111.017L147.876 112.944C146.079 113.341 144.178 113.636 142.426 114.186C138.766 115.335 135.619 118.128 133.886 121.543C132.267 124.733 131.729 128.518 132.878 131.949C133.703 134.414 135.316 136.455 137.672 137.598C137.848 137.684 138.027 137.764 138.209 137.838C138.39 137.913 138.574 137.983 138.759 138.047C138.944 138.111 139.132 138.169 139.32 138.222C139.509 138.276 139.7 138.323 139.891 138.365C140.083 138.407 140.275 138.443 140.469 138.474C140.663 138.505 140.857 138.53 141.053 138.549C141.248 138.568 141.443 138.582 141.639 138.589C141.835 138.597 142.031 138.599 142.228 138.596C144.723 138.542 148.344 137.464 150.862 136.914C154.358 136.149 158.838 135.396 162.169 134.245C162.258 134.215 162.345 134.181 162.432 134.147C162.834 133.941 163.198 133.66 163.517 133.342C164.168 132.692 164.67 131.887 164.858 130.979C165.209 129.276 165.003 125.26 165.002 123.306L165.022 107.414C164.307 108.459 163.57 109.126 162.427 109.666ZM89.4582 5.88975C89.0748 6.03686 88.6811 6.17458 88.4093 6.49955C87.6834 7.36705 87.2064 8.78316 86.7304 9.80682C85.5178 12.4156 84.3799 15.0669 83.132 17.6573C87.5727 19.8526 91.996 22.0825 96.4021 24.347L110.017 31.242L119.348 36.0266C121.038 36.8915 122.716 37.8613 124.458 38.612C125.639 37.9885 126.807 37.5305 128.152 37.9532C129.108 38.2533 129.972 38.9466 130.6 39.7159C131.675 41.0327 132.405 42.7773 133.191 44.2844L136.478 50.481C136.626 50.7554 136.968 51.5978 137.228 51.7175C137.322 51.5636 137.408 51.4258 137.48 51.2606L143.111 39.7298C143.761 38.3796 144.754 36.885 145.144 35.4481C145.268 34.9884 145.194 34.3783 145.036 33.9352C144.858 33.4374 144.439 33.0653 143.999 32.7986C142.274 31.7541 140.322 30.9275 138.528 29.9945C133.264 27.2584 127.935 24.6427 122.643 21.9605C115.979 18.5538 109.295 15.1861 102.591 11.8575C98.8873 10.0025 95.1812 8.00004 91.3886 6.34041C90.7284 6.05146 90.1907 5.83832 89.4582 5.88975ZM64.3513 17.4655C63.7132 17.6254 63.0476 17.9819 62.7145 18.5769C62.1571 19.5729 61.716 21.9531 61.3935 23.1684C60.7335 25.6823 60.0446 28.1882 59.3269 30.6862C61.2104 31.3787 63.1506 31.9348 65.0663 32.5312L74.123 35.3308L74.6662 34.2656L80.5392 22.1296C77.1065 21.1987 73.6972 20.0826 70.2955 19.0392C68.5779 18.5123 66.0761 17.5509 64.3513 17.4655ZM82.9484 18.0441C79.8953 24.4827 76.797 30.8993 73.6532 37.2939L63.4461 58.4068L57.6414 70.2898C56.7064 72.2255 55.6506 74.1521 54.8835 76.1604C55.7532 75.9564 56.6624 75.7826 57.5013 75.4737C59.1239 74.8758 60.68 73.9613 62.1953 73.1344L68.5141 69.6597L81.9892 62.284L109.467 47.0498C114.331 44.3771 119.175 41.6681 123.998 38.923C116.213 34.8658 108.399 30.867 100.554 26.9267C94.7088 23.956 88.8831 20.8295 82.9484 18.0441ZM59.1999 31.1667C56.1648 41.2373 53.4323 51.418 50.5711 61.5406L47.5436 72.1543C46.9745 74.1417 46.2984 76.1471 45.8872 78.1725C48.7075 77.5838 51.5182 76.9528 54.3195 76.2796C54.8086 75.199 55.3207 74.1296 55.8559 73.0711L66.9877 50.1321L71.3234 41.1524C72.1973 39.3503 73.1259 37.5627 73.9388 35.7325L59.1999 31.1667ZM126.708 38.1833C124.746 38.599 121.301 40.92 119.418 41.9725L107.175 48.8162L81.9543 62.7191C74.9121 66.6622 67.8418 70.5541 60.7435 74.3948C56.5397 76.6492 52.3213 78.8758 48.0882 81.0747C45.8913 82.1975 43.5334 83.1081 41.4273 84.3955C40.9274 84.7011 40.4778 85.1076 40.1576 85.6015C39.7492 86.2312 39.6074 86.9435 39.7744 87.6774C39.8582 88.0455 39.9843 88.393 40.1281 88.7409L41.9369 87.8518C49.8167 83.8344 57.5332 79.4475 65.3011 75.2154C78.4615 68.1502 91.5557 60.9634 104.584 53.655L121.002 44.4855L126.687 41.2242C127.726 40.6351 128.774 39.9756 129.872 39.5046C128.932 38.6873 127.997 38.1382 126.708 38.1833ZM130.003 39.8141L68.8956 73.7334L51.6394 83.1153C47.9168 85.1342 44.2108 87.251 40.4059 89.1091C41.6451 91.7829 43.0594 94.458 44.4797 97.0402C44.682 97.0674 44.5952 97.09 44.7453 97.0019C65.8385 85.8564 86.782 74.4351 107.576 62.738L126.647 52.0522L131.411 49.3706C132.41 48.806 133.41 48.1857 134.469 47.7393C133.924 46.6151 130.762 40.0357 130.085 39.8274C130.059 39.8193 130.031 39.8186 130.003 39.8141ZM134.553 48.1337C132.603 49.0622 130.758 50.2383 128.878 51.3009L118.965 56.847L86.3059 75.0251L54.4865 92.3368C52.3914 93.4582 50.2893 94.5665 48.1803 95.6614C47.3084 96.1104 45.4206 96.8809 44.7929 97.4563C44.8414 97.6272 44.947 97.7599 45.1067 97.8481C45.3553 97.9854 45.6427 98.0011 45.9186 97.965C46.7778 97.8522 47.6593 97.5813 48.5024 97.3771C50.0286 97.013 51.5525 96.6398 53.0742 96.2575C56.1443 95.4916 59.2534 94.8426 62.3123 94.0393C69.0462 92.3963 75.7918 90.8035 82.5492 89.261C82.8328 85.2226 84.1605 81.974 87.2481 79.2708C87.4162 79.1228 87.5878 78.979 87.7629 78.8394C87.9381 78.6998 88.1167 78.5647 88.2985 78.4341C88.4803 78.3033 88.6652 78.1772 88.8533 78.0556C89.0414 77.9341 89.2323 77.8173 89.4261 77.7052C89.6199 77.5931 89.8163 77.4858 90.0154 77.3835C90.2145 77.2811 90.416 77.1837 90.6199 77.0913C90.8238 76.999 91.0298 76.9117 91.238 76.8296C91.4462 76.7474 91.6563 76.6705 91.8683 76.5987C92.0803 76.527 92.2939 76.4606 92.5091 76.3994C92.7245 76.3383 92.9411 76.2825 93.1592 76.232C93.3772 76.1816 93.5964 76.1366 93.8166 76.097C94.0369 76.0574 94.2579 76.0233 94.4798 75.9947C94.7018 75.966 94.9243 75.9429 95.1474 75.9253C95.3703 75.9076 95.5937 75.8956 95.8174 75.889C96.0411 75.8825 96.2648 75.8815 96.4885 75.8861C96.7122 75.8906 96.9356 75.9007 97.1588 75.9164C100.731 76.1699 104.012 77.7531 106.361 80.48C107.083 81.3182 107.725 82.2924 108.185 83.2999C110.243 82.8461 112.286 82.3168 114.342 81.8482L136.132 76.8401C138.465 76.2993 140.794 75.7449 143.121 75.1768C144.954 74.7324 146.839 74.1994 148.718 74.015C146.982 71.2441 135.144 48.4839 134.553 48.1337ZM144.478 65.1237C144.796 65.7583 145.1 66.4032 145.486 66.9992C147.734 67.7285 149.633 69.1399 150.727 71.2879C151.151 72.1199 151.397 73.0241 151.514 73.9488C152.412 74.096 153.379 74.3371 154.228 74.6654C153.607 71.6043 152.135 68.6548 149.487 66.8832C147.906 65.8256 146.341 65.3825 144.478 65.1237ZM145.918 68.0284C146.515 69.5354 148.143 72.5588 149.046 73.9317L150.729 73.9121C150.648 72.1062 149.518 70.4852 148.216 69.2995C147.542 68.6853 146.819 68.2275 145.918 68.0284ZM150.058 74.646C147.9 74.7705 145.82 75.3364 143.726 75.8383L136.747 77.5166L112.947 83.027L73.3118 92.2852C67.4599 93.6141 61.6189 94.9896 55.7889 96.4116L50.78 97.5978C49.704 97.8446 48.5958 98.0459 47.5419 98.3717C45.9234 98.8719 44.3689 99.7695 43.2361 101.045C42.2588 102.145 41.6224 103.466 41.449 104.935C41.2935 106.255 41.3427 107.609 41.3437 108.937L41.3496 114.645L41.3446 133.056L41.3477 158.956L41.3339 166.845C41.3239 168.527 41.2486 170.241 41.3547 171.921C41.5319 174.732 42.7383 176.971 44.8173 178.831C44.8845 178.891 44.9537 178.949 45.0225 179.007C43.8084 176.468 43.5565 174.965 43.5655 172.128L43.658 126.079L43.6635 112.452C43.663 110.584 43.4664 107.795 43.7254 106.027C43.907 104.787 44.7178 103.403 45.5925 102.521C46.5133 101.593 47.7148 100.809 48.9751 100.442C50.5349 99.9869 52.1611 99.7314 53.7438 99.3636L65.2211 96.7133L106.849 87.0319L139.142 79.5552L145.88 77.9812C147.781 77.5342 149.77 76.9113 151.735 76.916C154.224 76.9217 156.354 77.6417 158.418 79.0102C156.707 76.6725 154.216 75.1875 151.36 74.7339C150.928 74.6653 150.496 74.6529 150.058 74.646ZM95.8617 76.3081C92.1169 76.5624 88.7367 77.9788 86.2319 80.8418C86.1052 80.9844 85.9816 81.1298 85.8611 81.2779C85.7408 81.4259 85.6237 81.5765 85.5098 81.7296C85.396 81.8829 85.2857 82.0386 85.1787 82.1966C85.0718 82.3547 84.9684 82.5151 84.8685 82.6778C84.7686 82.8404 84.6723 83.0052 84.5796 83.1721C84.487 83.3391 84.3981 83.508 84.3129 83.6788C84.2276 83.8496 84.1462 84.0222 84.0685 84.1966C83.9909 84.371 83.9171 84.5471 83.8472 84.7248C83.7774 84.9025 83.7113 85.0816 83.6492 85.2622C83.5872 85.4428 83.5292 85.6246 83.4752 85.8078C83.4211 85.9909 83.3711 86.1752 83.3251 86.3606C83.2792 86.5459 83.2374 86.7322 83.1996 86.9194C83.1618 87.1067 83.1282 87.2946 83.0986 87.4833C83.0691 87.672 83.0438 87.8613 83.0226 88.0511C83.0014 88.2409 82.9844 88.4311 82.9716 88.6218C82.9587 88.8124 82.95 89.0031 82.9456 89.194C86.1867 88.4128 89.4539 87.7125 92.6832 86.8869C97.7281 85.7664 102.761 84.5929 107.781 83.3665C106.136 80.2783 103.511 77.9298 100.14 76.8862C98.7511 76.4562 97.3124 76.2927 95.8617 76.3081ZM54.8751 76.9589C52.4636 77.4452 50.0659 78.0531 47.6624 78.5854C41.9603 79.8482 36.4955 80.7225 32.9769 86.0338C32.035 87.4557 31.2178 89.1681 31.0564 90.8886C30.9404 92.1281 30.9946 93.4013 30.9972 94.6454L31.0116 100.734L31.0653 121.529L31.0814 150.815L31.0834 157.8C31.0812 159.896 30.9619 162.04 31.3929 164.102C31.7264 165.697 32.3499 167.143 33.1729 168.543C33.5539 169.081 33.9463 169.599 34.368 170.107C33.5958 167.16 33.8095 164.165 33.8387 161.147C33.8608 158.786 33.8687 156.425 33.8625 154.064L33.8866 127.832L33.9088 102.397L33.9086 94.9791C33.9021 93.5241 33.8235 92.0426 33.9143 90.5904C33.9963 89.2791 34.2298 88.0542 34.8974 86.9098C36.2405 84.6073 39.0146 83.1044 41.5251 82.4745C42.392 82.2571 43.2744 82.0597 44.1524 81.8924C44.7757 81.7737 45.4328 81.7173 46.0388 81.5302C46.8431 81.2821 54.5449 77.4192 54.9243 76.9641L54.8751 76.9589ZM150.781 77.7862C148.764 78.0465 146.744 78.6152 144.763 79.0743L134.989 81.3189L99.3196 89.6019L65.5201 97.4555L54.0284 100.087C52.4299 100.459 50.7364 100.722 49.1763 101.215C47.7588 101.662 46.5535 102.49 45.6355 103.665C45.2355 104.178 44.9465 104.715 44.6735 105.303C45.299 105.155 46.2492 104.801 46.864 105.024L46.9555 105.16L46.89 105.404C46.2745 105.736 45.2143 105.796 44.509 105.982C44.342 107.331 44.3955 108.718 44.3942 110.075L44.3905 116.036L44.3586 135.894L44.3012 162.519L44.2922 170.072C44.2888 171.622 44.2093 173.223 44.3767 174.764C44.4004 174.975 44.4315 175.184 44.4697 175.392C44.5079 175.6 44.5532 175.807 44.6058 176.012C44.6583 176.216 44.7178 176.419 44.7842 176.62C44.8508 176.821 44.9242 177.019 45.0044 177.215C45.0846 177.41 45.1715 177.603 45.265 177.793C45.3586 177.983 45.4585 178.169 45.565 178.351C45.6714 178.534 45.784 178.713 45.9029 178.888C46.0217 179.063 46.1463 179.233 46.2768 179.4C47.7477 181.278 49.9701 182.055 52.2778 182.309C52.7119 182.357 53.1474 182.38 53.5842 182.377C54.0209 182.374 54.456 182.346 54.8895 182.293C56.8247 182.063 58.7507 181.518 60.6506 181.082L70.1715 178.889L85.5599 175.393L131.114 165.127L144.677 162.142C147.276 161.565 150.147 161.161 152.591 160.116C155.382 158.922 157.792 156.661 159.4 154.106C161.826 150.252 161.723 146.567 161.737 142.218L161.756 135.253C160.557 135.582 159.35 135.878 158.135 136.142C157.967 136.382 157.862 136.642 157.584 136.747C157.444 136.628 157.349 136.509 157.243 136.359C156.432 136.324 154.268 136.97 153.379 137.164L147.392 138.476C142.98 139.479 140.107 140.189 136.006 137.624C134.794 136.866 133.707 136.061 132.736 135.004C132.596 134.855 132.461 134.702 132.329 134.547C132.198 134.391 132.07 134.232 131.946 134.069C131.823 133.907 131.703 133.742 131.588 133.573C131.473 133.405 131.362 133.234 131.255 133.059C131.149 132.885 131.047 132.709 130.949 132.529C130.852 132.35 130.758 132.169 130.67 131.985C130.582 131.801 130.498 131.614 130.419 131.426C130.34 131.238 130.266 131.048 130.197 130.856C130.128 130.664 130.063 130.47 130.004 130.275C129.944 130.079 129.89 129.883 129.84 129.684C129.791 129.486 129.746 129.287 129.707 129.087C129.667 128.886 129.633 128.685 129.604 128.483C129.575 128.281 129.551 128.078 129.532 127.875C129.513 127.671 129.499 127.468 129.49 127.264C129.482 127.06 129.478 126.856 129.48 126.651C129.482 126.447 129.489 126.243 129.501 126.039C129.708 121.915 131.857 117.96 134.912 115.243C136.26 114.044 137.761 113.029 139.434 112.346C141.733 111.407 144.311 111.062 146.728 110.519C149.852 109.817 152.99 109.004 156.146 108.468C156.138 107.771 155.911 105.73 156.329 105.255L156.504 105.244C156.98 105.753 156.727 107.592 156.736 108.316C158.227 107.962 159.74 107.671 161.222 107.282L161.291 93.2157C161.305 90.6899 161.572 87.0861 161.049 84.7074C160.684 83.0428 159.89 81.4814 158.68 80.2744C156.797 78.3965 154.105 77.7057 151.513 77.7411C151.269 77.7443 151.025 77.7593 150.781 77.7862ZM42.4138 83.0365C39.7589 83.7608 37.1026 84.8856 35.6539 87.3906C34.9354 88.6333 34.7021 89.998 35.081 91.3999C35.6391 93.4642 37.1676 94.9296 38.9767 95.9589C39.7139 96.3719 40.4804 96.72 41.2763 97.0032C42.2957 97.3318 43.3103 97.6032 44.356 97.8339C43.2322 95.5674 42.0251 93.3367 40.8549 91.0934C40.3311 90.089 39.5349 88.9332 39.2719 87.8291C39.1517 87.3246 39.2054 86.7459 39.3789 86.2605C39.9044 84.7899 41.5186 83.7515 42.8605 83.107L42.8501 83.0208L42.4138 83.0365ZM34.6244 92.8953L34.5897 145.758L34.5801 160.36C34.5725 162.796 34.3896 165.336 34.6135 167.756C34.7471 169.2 35.0535 170.684 36.0993 171.756C36.8396 172.515 37.8208 173.144 38.6618 173.793C39.7174 174.607 40.7617 175.499 41.8656 176.243C41.3462 175.12 41.0028 174.056 40.7589 172.842C40.5769 171.162 40.6323 169.448 40.6312 167.76L40.629 160.073L40.6633 132.738L40.6436 114.185L40.6321 108.526C40.6307 107.343 40.5808 106.136 40.7015 104.959C40.8592 103.422 41.4782 102.047 42.4437 100.848C43.1299 99.9958 43.9372 99.3488 44.8603 98.7727C41.7183 98.1672 38.4898 97.3005 36.1594 94.9458C35.5661 94.3464 35.2264 93.4335 34.6244 92.8953ZM162.065 100.191L162.065 101.671C163.019 102.193 163.728 102.945 164.039 104.012C164.261 104.777 164.21 105.598 163.801 106.292C163.109 107.464 161.658 108 160.398 108.297C156.284 109.265 152.13 110.105 148 111.01C144.736 111.727 141.228 112.173 138.255 113.77C135.887 115.042 133.91 117.016 132.494 119.293C130.622 122.302 129.766 125.915 130.593 129.411C130.937 130.869 131.625 132.217 132.429 133.47L132.517 133.392C131.04 129.044 131.026 125.523 133.094 121.329C133.149 121.215 133.206 121.102 133.265 120.99C133.323 120.878 133.383 120.766 133.444 120.656C133.505 120.545 133.568 120.435 133.632 120.325C133.695 120.216 133.76 120.108 133.827 120C133.894 119.892 133.961 119.786 134.031 119.68C134.1 119.574 134.17 119.469 134.242 119.364C134.313 119.26 134.387 119.157 134.461 119.055C134.535 118.952 134.611 118.851 134.688 118.75C134.764 118.65 134.842 118.55 134.921 118.451C135.001 118.353 135.081 118.255 135.163 118.159C135.244 118.062 135.327 117.966 135.411 117.872C135.495 117.777 135.58 117.684 135.667 117.591C135.753 117.499 135.84 117.408 135.929 117.317C136.017 117.227 136.107 117.138 136.198 117.05C136.288 116.962 136.38 116.875 136.473 116.789C136.566 116.703 136.66 116.618 136.755 116.535C136.85 116.451 136.946 116.369 137.043 116.288C137.14 116.207 137.238 116.127 137.337 116.048C137.436 115.97 137.536 115.892 137.636 115.816C137.737 115.74 137.839 115.665 137.942 115.591C138.044 115.517 138.148 115.445 138.253 115.374C138.357 115.303 138.462 115.233 138.569 115.164C138.675 115.096 138.782 115.029 138.89 114.963C138.998 114.897 139.106 114.832 139.216 114.769C139.325 114.706 139.435 114.644 139.546 114.584C139.657 114.523 139.769 114.464 139.882 114.406C139.994 114.349 140.107 114.293 140.221 114.238C140.335 114.183 140.449 114.129 140.564 114.077C140.679 114.025 140.795 113.975 140.912 113.925C141.028 113.876 141.145 113.828 141.262 113.782C141.38 113.736 141.498 113.691 141.617 113.648C141.735 113.604 141.855 113.562 141.974 113.522C143.811 112.911 145.788 112.597 147.678 112.184L157.235 110.092C158.884 109.737 160.841 109.557 162.367 108.823C162.483 108.768 162.596 108.707 162.707 108.642C162.818 108.577 162.926 108.508 163.031 108.434C163.136 108.36 163.238 108.282 163.336 108.199C163.435 108.117 163.53 108.03 163.621 107.94C163.713 107.85 163.8 107.756 163.884 107.658C163.968 107.561 164.047 107.46 164.123 107.356C164.198 107.252 164.269 107.144 164.335 107.034C164.402 106.924 164.464 106.812 164.521 106.696C165.088 105.574 165.229 104.269 164.802 103.077C164.304 101.683 163.309 100.872 162.065 100.191ZM162.052 102.673L162.051 106.93L162.725 106.244C163.173 105.567 163.391 104.88 163.203 104.063C163.09 103.571 162.801 103.1 162.369 102.828C162.268 102.765 162.161 102.72 162.052 102.673Z" fill="black"/>
<path d="M83.1321 17.6573C84.38 15.0669 85.5178 12.4156 86.7305 9.80681C87.2065 8.78316 87.6834 7.36704 88.4093 6.49954C88.6812 6.17457 89.0749 6.03686 89.4582 5.88975C90.1908 5.83832 90.7284 6.05145 91.3886 6.3404C95.1812 8.00004 98.8874 10.0025 102.592 11.8575C109.295 15.1861 115.979 18.5538 122.643 21.9605C127.935 24.6427 133.264 27.2584 138.528 29.9945C140.322 30.9275 142.274 31.754 143.999 32.7986C144.439 33.0653 144.858 33.4374 145.036 33.9352C145.194 34.3783 145.268 34.9884 145.144 35.4481C144.754 36.885 143.761 38.3796 143.111 39.7297L137.48 51.2606C137.408 51.4258 137.322 51.5636 137.228 51.7175C136.968 51.5978 136.626 50.7553 136.478 50.481L133.191 44.2844C132.405 42.7772 131.675 41.0327 130.6 39.7159C129.972 38.9466 129.108 38.2533 128.152 37.9532C126.807 37.5305 125.639 37.9885 124.458 38.612C122.716 37.8612 121.038 36.8915 119.348 36.0266L110.017 31.242L96.4021 24.347C91.9961 22.0825 87.5727 19.8526 83.1321 17.6573Z" fill="white"/>
<path d="M59.3269 30.6862C60.0446 28.1882 60.7335 25.6823 61.3935 23.1684C61.716 21.9531 62.1571 19.5729 62.7145 18.5768C63.0477 17.9819 63.7132 17.6254 64.3513 17.4655C66.0761 17.5509 68.5779 18.5123 70.2955 19.0392C73.6972 20.0826 77.1066 21.1987 80.5392 22.1296L74.6662 34.2656L74.123 35.3308L65.0663 32.5312C63.1506 31.9348 61.2104 31.3787 59.3269 30.6862Z" fill="#15ADFF"/>
<path d="M54.8835 76.1604C55.6506 74.1521 56.7064 72.2255 57.6414 70.2898L63.4461 58.4067L73.6532 37.2939C76.797 30.8993 79.8953 24.4827 82.9484 18.0441C88.8831 20.8295 94.7088 23.9559 100.554 26.9267C108.399 30.867 116.213 34.8658 123.998 38.923C119.175 41.6681 114.331 44.3771 109.467 47.0498L81.9892 62.284L68.5141 69.6597L62.1953 73.1344C60.68 73.9613 59.1239 74.8758 57.5013 75.4737C56.6624 75.7826 55.7532 75.9564 54.8835 76.1604Z" fill="white"/>
<path d="M45.8872 78.1725C46.2984 76.1471 46.9745 74.1417 47.5435 72.1542L50.571 61.5406C53.4323 51.418 56.1648 41.2373 59.1999 31.1667L73.9388 35.7325C73.1259 37.5627 72.1973 39.3503 71.3234 41.1524L66.9877 50.1321L55.8559 73.0711C55.3207 74.1295 54.8086 75.199 54.3195 76.2795C51.5182 76.9528 48.7074 77.5838 45.8872 78.1725Z" fill="white"/>
<path d="M40.1281 88.7409C39.9843 88.3929 39.8582 88.0455 39.7744 87.6774C39.6074 86.9435 39.7491 86.2312 40.1576 85.6015C40.4778 85.1075 40.9274 84.7011 41.4273 84.3955C43.5334 83.1081 45.8913 82.1975 48.0882 81.0747C52.3213 78.8758 56.5397 76.6492 60.7435 74.3948C67.8418 70.554 74.9121 66.6622 81.9543 62.7191L107.175 48.8162L119.418 41.9725C121.301 40.92 124.746 38.599 126.708 38.1833C127.997 38.1382 128.932 38.6873 129.872 39.5046C128.774 39.9756 127.726 40.6351 126.687 41.2242L121.002 44.4855L104.584 53.655C91.5557 60.9634 78.4615 68.1502 65.3011 75.2154C57.5332 79.4475 49.8167 83.8344 41.9369 87.8518L40.1281 88.7409Z" fill="#75FBA0"/>
<path d="M40.406 89.1091C44.2109 87.2509 47.9169 85.1342 51.6395 83.1153L68.8957 73.7334L130.003 39.8141C130.031 39.8185 130.059 39.8193 130.086 39.8274C130.762 40.0357 133.924 46.6151 134.469 47.7393C133.411 48.1857 132.41 48.806 131.412 49.3706L126.647 52.0522L107.576 62.738C86.7821 74.4351 65.8386 85.8564 44.7454 97.0019C44.5954 97.09 44.6821 97.0674 44.4798 97.0402C43.0596 94.458 41.6452 91.7829 40.406 89.1091Z" fill="white"/>
<path d="M62.3124 94.0393C59.2535 94.8426 56.1444 95.4916 53.0743 96.2575C51.5525 96.6398 50.0286 97.013 48.5025 97.3771C47.6593 97.5813 46.7778 97.8522 45.9187 97.965C45.6427 98.0011 45.3554 97.9853 45.1067 97.8481C44.9471 97.7598 44.8415 97.6272 44.793 97.4563C45.4207 96.8809 47.3085 96.1104 48.1804 95.6614C50.2894 94.5664 52.3915 93.4582 54.4866 92.3368L86.306 75.0251L118.965 56.847L128.878 51.3009C130.758 50.2383 132.603 49.0622 134.553 48.1337C135.144 48.4839 146.982 71.244 148.718 74.015C146.84 74.1994 144.954 74.7324 143.121 75.1768C140.794 75.7448 138.465 76.2993 136.132 76.8401L114.342 81.8482C112.286 82.3168 110.243 82.8461 108.185 83.2999C107.725 82.2924 107.083 81.3182 106.361 80.48C104.012 77.7531 100.731 76.1698 97.1589 75.9164C96.9357 75.9007 96.7122 75.8906 96.4885 75.886C96.2648 75.8815 96.0411 75.8825 95.8174 75.889C95.5937 75.8955 95.3704 75.9076 95.1474 75.9253C94.9244 75.9429 94.7018 75.966 94.4799 75.9946C94.258 76.0233 94.0369 76.0574 93.8167 76.0969C93.5964 76.1365 93.3773 76.1816 93.1592 76.232C92.9412 76.2824 92.7245 76.3382 92.5092 76.3994C92.294 76.4606 92.0804 76.527 91.8684 76.5987C91.6564 76.6704 91.4463 76.7474 91.2381 76.8295C91.0299 76.9117 90.8238 76.9989 90.6199 77.0913C90.416 77.1837 90.2146 77.2811 90.0155 77.3834C89.8164 77.4858 89.6199 77.593 89.4261 77.7051C89.2323 77.8173 89.0414 77.9341 88.8534 78.0555C88.6653 78.1771 88.4803 78.3033 88.2986 78.434C88.1167 78.5647 87.9382 78.6998 87.763 78.8394C87.5879 78.979 87.4163 79.1228 87.2482 79.2708C84.1605 81.974 82.8329 85.2226 82.5492 89.261C75.7919 90.8035 69.0462 92.3963 62.3124 94.0393Z" fill="#75FBA0"/>
<path d="M27.2097 52.8862C27.1091 52.8582 27.025 52.8051 26.9332 52.7558C26.6575 51.9939 26.7315 49.5392 26.9314 48.7231L27.2154 48.8556C27.482 49.5175 27.4061 52.1765 27.2097 52.8862Z" fill="black"/>
<path d="M23.3017 54.1375C23.1227 54.1416 23.0456 54.1543 22.892 54.0585C22.3224 53.7024 20.7248 52.2376 20.6201 51.5662C20.8041 51.5956 20.9042 51.6163 21.0653 51.7188C21.5935 52.0551 23.1829 53.5268 23.3017 54.1375Z" fill="black"/>
<path d="M31.3029 54.0078C31.1567 54.0463 31.151 54.0112 31.0209 53.9479L31.0183 53.7701C31.549 52.9472 32.3607 52.2233 33.0514 51.5327C33.257 51.5738 33.2398 51.5368 33.3858 51.7129C33.2911 52.3604 31.8177 53.5625 31.3029 54.0078Z" fill="black"/>
<path d="M27.3596 58.47L26.9829 58.3415C26.829 58.0969 26.8725 57.9989 26.8906 57.7161C27.0772 57.7439 27.1931 57.7858 27.3572 57.8785C27.4428 58.1245 27.4054 58.2183 27.3596 58.47Z" fill="black"/>
<path d="M21.7456 58.2124C20.9911 58.4109 18.6347 58.4437 17.9041 58.2089C17.7064 58.1454 17.724 58.079 17.6301 57.9057C18.3679 57.797 20.8768 57.7002 21.5337 57.9186C21.686 57.9692 21.6845 58.0766 21.7456 58.2124Z" fill="black"/>
<path d="M36.1536 58.2783C35.4413 58.3747 32.8171 58.4851 32.3219 58.1648L32.2708 57.8861C33.043 57.861 35.617 57.6312 36.1261 57.9994L36.1536 58.2783Z" fill="black"/>
<path d="M33.4166 64.3395C33.1759 64.2572 33.002 64.1167 32.8141 63.9506C32.2375 63.4406 31.0585 62.4882 31.0105 61.6969C31.6434 61.844 32.9974 63.3033 33.3664 63.8601C33.5053 64.0697 33.4692 64.106 33.4166 64.3395Z" fill="black"/>
<path d="M21.0156 64.3933L20.8409 64.4292L20.6829 64.3197C20.7641 63.7621 22.3647 62.3143 22.8571 61.8072C23.0526 61.8409 23.0206 61.8142 23.1851 61.9687C23.0858 62.5041 21.483 63.9123 21.0156 64.3933Z" fill="black"/>
<path d="M27.2847 67.01L26.9727 66.8918C26.6732 66.2245 26.8552 64.0383 26.9319 63.2493C27.037 63.282 27.1388 63.3309 27.2404 63.3733C27.5916 64.2215 27.3823 66.0831 27.2847 67.01Z" fill="black"/>
<path d="M145.486 66.9992C145.1 66.4032 144.796 65.7583 144.479 65.1237C146.341 65.3825 147.906 65.8256 149.487 66.8832C152.135 68.6548 153.607 71.6043 154.228 74.6654C153.379 74.3371 152.412 74.096 151.515 73.9488C151.397 73.0241 151.151 72.1198 150.727 71.2879C149.633 69.1399 147.734 67.7285 145.486 66.9992Z" fill="white"/>
<path d="M172.164 76.4016C171.01 76.5014 169.692 76.7554 168.546 76.6758C168.031 76.6401 167.617 76.5056 167.284 76.0929C166.964 75.6974 166.868 75.169 166.944 74.6736C167.096 73.6971 169.979 69.0207 170.724 68.0667C170.905 67.8343 171.13 67.6626 171.37 67.4947C171.775 67.4712 172.177 67.436 172.549 67.6312C173.083 67.9111 176.644 73.8142 176.737 74.5491C176.775 74.8504 176.519 75.3076 176.332 75.5338C175.511 76.5252 173.337 76.3173 172.164 76.4016ZM171.556 67.9205C170.794 68.5974 167.298 74.138 167.332 75.06C167.345 75.4023 167.477 75.6933 167.737 75.9155C168.509 76.5757 170.789 76.0352 171.8 75.9782C172.836 75.8803 175.314 76.0046 175.975 75.1651C176.138 74.9583 176.215 74.7829 176.182 74.5163C176.099 73.8425 172.757 68.2724 172.285 67.9943C172.11 67.8911 171.755 67.9183 171.556 67.9205Z" fill="black"/>
<path d="M171.8 75.9782C170.789 76.0352 168.509 76.5757 167.737 75.9155C167.477 75.6933 167.345 75.4023 167.332 75.06C167.298 74.138 170.794 68.5974 171.556 67.9205C171.756 67.9183 172.11 67.8911 172.285 67.9944C172.757 68.2724 176.099 73.8426 176.182 74.5163C176.215 74.7829 176.138 74.9583 175.975 75.1651C175.314 76.0046 172.836 75.8803 171.8 75.9782Z" fill="white"/>
<path d="M149.046 73.9317C148.144 72.5588 146.515 69.5354 145.918 68.0284C146.819 68.2274 147.542 68.6853 148.216 69.2995C149.519 70.4852 150.648 72.1061 150.729 73.9121L149.046 73.9317Z" fill="#2B63ED"/>
<path d="M45.0227 179.007C44.9538 178.949 44.8846 178.891 44.8174 178.831C42.7384 176.971 41.5321 174.732 41.3549 171.921C41.2488 170.241 41.3241 168.527 41.334 166.845L41.3479 158.956L41.3447 133.056L41.3497 114.645L41.3438 108.937C41.3429 107.609 41.2936 106.255 41.4492 104.935C41.6225 103.466 42.2589 102.145 43.2362 101.045C44.3691 99.7695 45.9236 98.8719 47.5421 98.3716C48.596 98.0458 49.7041 97.8446 50.7802 97.5978L55.789 96.4116C61.6191 94.9895 67.4601 93.6141 73.3119 92.2851L112.947 83.027L136.747 77.5166L143.726 75.8383C145.82 75.3364 147.9 74.7705 150.058 74.646C150.496 74.6528 150.928 74.6652 151.361 74.7339C154.216 75.1875 156.707 76.6725 158.418 79.0101C156.355 77.6417 154.224 76.9217 151.735 76.9159C149.771 76.9113 147.781 77.5342 145.88 77.9812L139.143 79.5551L106.85 87.0319L65.2213 96.7133L53.744 99.3636C52.1613 99.7314 50.535 99.9869 48.9752 100.442C47.715 100.809 46.5134 101.593 45.5926 102.521C44.7179 103.403 43.9071 104.787 43.7255 106.027C43.4666 107.795 43.6631 110.584 43.6637 112.452L43.6581 126.079L43.5657 172.128C43.5566 174.965 43.8086 176.468 45.0227 179.007Z" fill="white"/>
<path d="M82.9458 89.194C82.9502 89.0031 82.9589 88.8124 82.9718 88.6218C82.9846 88.4311 83.0016 88.2409 83.0228 88.0511C83.0439 87.8613 83.0693 87.672 83.0988 87.4833C83.1283 87.2946 83.162 87.1067 83.1998 86.9194C83.2375 86.7322 83.2794 86.5459 83.3253 86.3606C83.3713 86.1752 83.4213 85.9909 83.4753 85.8078C83.5294 85.6246 83.5874 85.4428 83.6494 85.2622C83.7115 85.0817 83.7775 84.9025 83.8474 84.7248C83.9173 84.5471 83.9911 84.371 84.0687 84.1966C84.1464 84.0222 84.2278 83.8496 84.3131 83.6788C84.3982 83.5079 84.4872 83.339 84.5798 83.1721C84.6725 83.0052 84.7687 82.8404 84.8687 82.6778C84.9686 82.5151 85.072 82.3547 85.1789 82.1966C85.2858 82.0386 85.3962 81.8829 85.51 81.7296C85.6239 81.5765 85.7409 81.4259 85.8613 81.2779C85.9817 81.1298 86.1053 80.9844 86.2321 80.8418C88.7369 77.9788 92.1171 76.5624 95.8618 76.308C97.3126 76.2927 98.7513 76.4562 100.14 76.8862C103.511 77.9298 106.136 80.2783 107.781 83.3665C102.761 84.5929 97.7283 85.7664 92.6834 86.8869C89.4541 87.7125 86.1869 88.4128 82.9458 89.194Z" fill="white"/>
<path d="M33.173 168.543C32.35 167.143 31.7266 165.697 31.393 164.102C30.9621 162.04 31.0813 159.896 31.0835 157.8L31.0815 150.815L31.0654 121.529L31.0117 100.734L30.9973 94.6454C30.9947 93.4012 30.9405 92.1281 31.0566 90.8886C31.2179 89.1681 32.0352 87.4557 32.977 86.0338C36.4957 80.7225 41.9604 79.8482 47.6625 78.5854C50.066 78.0531 52.4638 77.4452 54.8752 76.9589L54.9245 76.964C54.545 77.4191 46.8432 81.2821 46.0389 81.5302C45.4329 81.7172 44.7759 81.7737 44.1526 81.8924C43.2746 82.0597 42.3921 82.2571 41.5252 82.4744C39.0147 83.1044 36.2406 84.6073 34.8975 86.9098C34.2299 88.0542 33.9964 89.2791 33.9145 90.5904C33.8236 92.0426 33.9023 93.5241 33.9087 94.9791L33.9089 102.397L33.8868 127.832L33.8626 154.064C33.869 156.425 33.8611 158.786 33.8388 161.147C33.8096 164.165 33.5959 167.16 34.3681 170.106C33.9464 169.599 33.554 169.081 33.173 168.543Z" fill="white"/>
<path d="M44.6736 105.303C44.9466 104.715 45.2356 104.178 45.6356 103.665C46.5536 102.49 47.7589 101.662 49.1764 101.215C50.7366 100.722 52.43 100.459 54.0285 100.087L65.5203 97.4555L99.3197 89.6019L134.989 81.3189L144.763 79.0743C146.744 78.6152 148.764 78.0465 150.781 77.7862C151.025 77.7593 151.269 77.7442 151.514 77.741C154.105 77.7057 156.797 78.3965 158.68 80.2744C159.89 81.4813 160.684 83.0427 161.049 84.7074C161.572 87.0861 161.306 90.6899 161.291 93.2157L161.222 107.282C159.74 107.671 158.227 107.962 156.736 108.316C156.727 107.592 156.98 105.753 156.504 105.244L156.329 105.255C155.911 105.73 156.138 107.771 156.146 108.468C152.991 109.004 149.852 109.817 146.728 110.519C144.311 111.061 141.733 111.407 139.434 112.346C137.761 113.029 136.26 114.044 134.912 115.243C131.857 117.96 129.708 121.915 129.501 126.039C129.489 126.243 129.482 126.447 129.48 126.651C129.478 126.856 129.482 127.06 129.49 127.264C129.499 127.468 129.513 127.671 129.532 127.875C129.551 128.078 129.575 128.281 129.604 128.483C129.633 128.685 129.667 128.886 129.707 129.087C129.746 129.287 129.791 129.486 129.84 129.684C129.89 129.883 129.944 130.079 130.004 130.275C130.063 130.47 130.128 130.663 130.197 130.855C130.266 131.048 130.34 131.238 130.419 131.426C130.498 131.614 130.582 131.801 130.67 131.985C130.759 132.169 130.852 132.35 130.949 132.529C131.047 132.709 131.149 132.885 131.256 133.059C131.362 133.234 131.473 133.405 131.588 133.573C131.703 133.742 131.823 133.907 131.946 134.069C132.07 134.232 132.198 134.391 132.329 134.547C132.461 134.702 132.597 134.855 132.736 135.004C133.707 136.061 134.794 136.866 136.006 137.624C140.107 140.189 142.981 139.479 147.392 138.476L153.38 137.164C154.268 136.97 156.432 136.324 157.243 136.359C157.349 136.509 157.444 136.628 157.584 136.747C157.862 136.642 157.967 136.382 158.135 136.142C159.35 135.878 160.557 135.582 161.756 135.253L161.737 142.218C161.723 146.567 161.826 150.252 159.4 154.106C157.792 156.661 155.383 158.922 152.591 160.116C150.147 161.161 147.277 161.565 144.677 162.142L131.114 165.127L85.56 175.392L70.1716 178.889L60.6507 181.082C58.7508 181.518 56.8248 182.063 54.8896 182.293C54.4561 182.346 54.021 182.374 53.5843 182.377C53.1475 182.379 52.712 182.357 52.2779 182.309C49.9702 182.055 47.7478 181.278 46.277 179.4C46.1464 179.233 46.0218 179.063 45.903 178.888C45.7842 178.713 45.6715 178.534 45.5651 178.351C45.4586 178.169 45.3587 177.983 45.2651 177.793C45.1716 177.603 45.0848 177.41 45.0045 177.215C44.9243 177.019 44.8509 176.821 44.7843 176.62C44.7179 176.419 44.6584 176.216 44.6059 176.011C44.5533 175.807 44.508 175.6 44.4698 175.392C44.4316 175.184 44.4006 174.975 44.3768 174.764C44.2094 173.223 44.289 171.622 44.2923 170.072L44.3013 162.519L44.3587 135.894L44.3907 116.036L44.3943 110.075C44.3956 108.718 44.3421 107.331 44.5091 105.982C45.2144 105.796 46.2746 105.736 46.8901 105.404L46.9556 105.16L46.8641 105.024C46.2493 104.801 45.2991 105.155 44.6736 105.303ZM148.299 81.7533C147.573 81.8908 146.005 82.0055 145.463 82.484C145.429 82.6988 145.469 82.6905 145.575 82.8681L145.857 82.9077C146.663 82.7151 148.177 82.6837 148.796 82.1838L148.86 82.0188C148.741 81.8434 148.726 81.8118 148.534 81.7289L148.299 81.7533ZM151.644 82.3385C151.59 82.5656 151.519 82.6848 151.605 82.9097C152.153 83.2089 153.522 84.1333 154.056 84.1973C154.109 84.054 154.217 83.8986 154.161 83.7467C153.937 83.1486 152.699 82.6576 152.132 82.4624C151.971 82.4071 151.811 82.3677 151.644 82.3385ZM142.247 82.9591C141.317 83.1478 139.45 83.3428 138.713 83.9113C138.704 84.1426 138.744 84.1196 138.887 84.2858L139.002 84.3289C139.92 84.1315 141.731 83.9313 142.469 83.3948C142.531 83.1967 142.511 83.3027 142.52 83.0755L142.247 82.9591ZM135.325 84.5174C134.715 84.6687 132.477 84.9962 132.127 85.4172C132.138 85.6324 132.149 85.6264 132.297 85.7852L132.55 85.7774C133.296 85.6111 135.387 85.3678 135.797 84.8461L135.714 84.5584C135.559 84.4928 135.491 84.4846 135.325 84.5174ZM155.517 85.8486C155.481 86.2604 156.062 88.4662 156.314 88.7603C156.409 88.871 156.586 88.8395 156.721 88.8508C156.914 88.1097 156.577 86.9159 156.215 86.2569C156.081 86.0133 155.998 85.9228 155.721 85.8694C155.657 85.857 155.583 85.8533 155.517 85.8486ZM128.906 86.0127C128.096 86.1705 125.696 86.4932 125.135 86.989C125.101 87.2441 125.15 87.2389 125.278 87.4481C126.33 87.2341 128.144 87.0474 129.045 86.5526L129.128 86.4068C129.069 86.1959 129.069 86.1535 128.906 86.0127ZM122.115 87.5884C121.389 87.7304 118.984 88.1078 118.529 88.5522C118.531 88.7972 118.536 88.7988 118.689 88.991C119.369 88.8382 121.976 88.3994 122.288 87.9463C122.262 87.7378 122.265 87.7345 122.115 87.5884ZM115.05 89.1396C114.275 89.3344 112.267 89.618 111.712 90.1234L111.678 90.3016C111.853 90.4668 111.867 90.506 112.119 90.4818C112.184 90.4755 112.266 90.452 112.33 90.4355C113.033 90.2705 115.297 89.943 115.638 89.4291C115.524 89.251 115.496 89.1422 115.265 89.1176C115.205 89.1111 115.111 89.1296 115.05 89.1396ZM108.583 90.7245C107.873 90.8614 105.677 91.1975 105.267 91.6658L105.353 91.9769C105.542 92.0511 105.46 92.0493 105.592 92.0335C106.33 91.8624 108.409 91.571 108.873 91.1167C108.892 91.0055 108.876 90.945 108.854 90.836C108.756 90.7805 108.698 90.7249 108.583 90.7245ZM156.21 91.6641C156.192 92.6144 155.941 94.1298 156.331 94.9765C156.524 95.0603 156.609 95.062 156.814 95.0657C156.846 94.2173 157.11 92.4568 156.671 91.7745C156.513 91.719 156.376 91.6837 156.21 91.6641ZM101.743 92.2859C100.638 92.5414 99.4397 92.7105 98.3786 93.096L98.2854 93.2625C98.3695 93.4541 98.3933 93.4911 98.558 93.6188L98.857 93.5844C99.6246 93.4277 101.969 93.1683 102.379 92.5699C102.296 92.3756 102.289 92.3652 102.109 92.255L101.743 92.2859ZM94.9016 93.8654C94.1386 94.0288 92.0563 94.2348 91.6098 94.8009C91.6211 95.0331 91.6122 95.0204 91.7802 95.1798C91.888 95.1724 92.0144 95.1726 92.1203 95.1539C92.9814 94.9637 94.72 94.7386 95.3998 94.2974L95.4904 94.1333C95.409 93.925 95.455 93.9276 95.239 93.8217L94.9016 93.8654ZM88.3906 95.3589C87.6161 95.5069 85.3084 95.8434 84.7889 96.3135C84.7575 96.4911 84.7309 96.5753 84.878 96.7177C84.9109 96.7495 84.954 96.7686 84.9921 96.7939C86.0076 96.5603 87.8446 96.3368 88.6872 95.7659C88.7016 95.5424 88.6656 95.5652 88.5338 95.3996L88.3906 95.3589ZM81.5358 96.9074C80.6954 97.1168 78.6022 97.3978 78.0201 97.8986C77.9657 98.1298 77.9956 98.1265 78.1164 98.3355L78.2879 98.3561C79.0469 98.1655 81.4913 97.7765 81.8704 97.2764L81.808 97.0013C81.6958 96.9395 81.6672 96.9049 81.5358 96.9074ZM74.8154 98.4057C73.7818 98.6478 72.129 98.8202 71.2611 99.4211L71.189 99.6183C71.2399 99.7158 71.2846 99.8231 71.354 99.9084C72.1351 99.714 74.5254 99.3229 74.9767 98.8523C74.9776 98.6206 74.9483 98.5997 74.8154 98.4057ZM156.192 98.4064C156.145 99.0739 155.919 101.498 156.293 101.947C156.445 101.965 156.597 101.987 156.749 101.999C156.871 101.081 157.043 99.4217 156.69 98.5673C156.532 98.4279 156.394 98.4299 156.192 98.4064ZM67.8263 100.063C67.0742 100.222 64.8017 100.529 64.3067 101.003L64.3366 101.318L64.1904 101.212L64.2576 101.113L64.3946 101.355L64.6207 101.396C65.3429 101.245 67.7704 100.891 68.205 100.483L68.1572 100.163C67.9985 100.057 68.0352 100.047 67.8263 100.063ZM61.1044 101.545C60.2718 101.757 58.1683 102.077 57.6042 102.569C57.5983 102.765 57.6122 102.838 57.7766 102.963C57.8074 102.986 57.8475 102.994 57.8829 103.01C58.5771 102.843 61.0029 102.424 61.3519 101.972C61.346 101.736 61.318 101.721 61.1325 101.559C61.1245 101.552 61.1136 101.55 61.1044 101.545ZM53.9599 103.204C53.0937 103.4 50.7845 103.739 50.1817 104.202L50.1288 104.481C50.2341 104.593 50.2227 104.631 50.3851 104.637C50.5625 104.644 50.4948 104.646 50.6863 104.606C51.623 104.389 53.8078 104.114 54.4955 103.535L54.5625 103.271C54.3394 103.157 54.2011 103.183 53.9599 103.204ZM157.3 140.051C157.221 140.976 157.012 142.363 157.36 143.233C157.513 143.366 157.635 143.365 157.831 143.386C157.895 142.42 158.116 141.093 157.792 140.174C157.59 140.039 157.535 140.064 157.3 140.051ZM156.91 146.679C156.779 147.107 156.649 147.541 156.476 147.954C156.254 148.485 155.342 149.99 155.363 150.463C155.477 150.545 155.561 150.609 155.694 150.657C156.437 149.772 157.269 148.151 157.337 146.984L157.248 146.777L156.91 146.679ZM153.342 153.383C152.866 153.885 150.717 155.557 150.563 155.849L150.634 156.071C150.683 156.095 150.797 156.162 150.849 156.168C151.638 155.728 153.446 154.577 153.709 153.675C153.589 153.46 153.575 153.472 153.342 153.383ZM147.302 157.203L147.165 157.267C146.536 157.554 144.299 157.989 144.065 158.492C144.125 158.667 144.087 158.696 144.293 158.768C144.315 158.776 144.34 158.77 144.363 158.77C145.349 158.535 146.869 158.299 147.609 157.585L147.619 157.376C147.48 157.229 147.527 157.237 147.302 157.203ZM140.179 159.077C139.204 159.306 137.919 159.384 137.091 159.922L136.963 160.158C137.102 160.311 137.02 160.276 137.22 160.286C137.421 160.295 137.34 160.299 137.524 160.268C138.271 160.118 140.362 159.938 140.748 159.384L140.752 159.204C140.571 159.044 140.539 159.044 140.286 159.061C140.25 159.063 140.215 159.072 140.179 159.077ZM133.627 160.556C132.853 160.728 130.705 161.009 130.322 161.604C130.455 161.805 130.461 161.798 130.692 161.87C131.414 161.706 133.532 161.437 133.927 160.908C133.903 160.698 133.941 160.723 133.772 160.565L133.627 160.556ZM126.95 162.032C126.209 162.2 124.074 162.504 123.623 162.948C123.663 163.161 123.679 163.16 123.844 163.304L124.051 163.312C124.689 163.171 126.678 162.874 127.119 162.649C127.183 162.616 127.208 162.536 127.252 162.48C127.212 162.254 127.198 162.221 127.05 162.048L126.95 162.032ZM120.337 163.517C119.509 163.714 117.655 163.97 117.012 164.452C116.964 164.66 116.992 164.629 117.093 164.801L117.224 164.868C117.965 164.702 119.965 164.423 120.503 164.025C120.587 163.817 120.571 163.818 120.496 163.603L120.337 163.517ZM113.53 165.096C112.568 165.29 111.124 165.402 110.303 165.938L110.245 166.09C110.411 166.289 110.43 166.283 110.686 166.341C111.475 166.151 113.489 165.907 114.02 165.455L114.051 165.304C113.923 165.191 113.834 165.126 113.672 165.072L113.53 165.096ZM106.925 166.569C106.165 166.732 103.918 166.997 103.511 167.557L103.523 167.549L103.749 167.845C103.757 167.843 103.765 167.84 103.774 167.839C103.858 167.833 103.943 167.831 104.028 167.827C104.637 167.693 107.004 167.311 107.333 166.919C107.303 166.695 107.314 166.696 107.145 166.549L106.925 166.569ZM99.9818 168.134C99.2115 168.317 97.3071 168.607 96.721 168.949L96.6455 169.14C96.7435 169.328 96.7547 169.333 96.9441 169.428L97.1678 169.4C97.8965 169.235 100.033 168.932 100.458 168.476C100.432 168.261 100.428 168.274 100.263 168.132L99.9818 168.134ZM93.3262 169.619C92.4476 169.819 90.299 170.102 89.7052 170.614C89.7374 170.814 89.7433 170.87 89.9277 170.987C89.9494 171.001 89.976 171.005 90.0002 171.014C90.7451 170.845 93.2095 170.455 93.5849 169.989C93.5401 169.769 93.5583 169.758 93.381 169.627L93.3262 169.619ZM86.3409 171.191C85.318 171.428 84.1248 171.583 83.1705 172.009L83.0611 172.2C83.1417 172.413 83.1351 172.422 83.3302 172.536L83.5375 172.478C84.32 172.284 86.2315 172.05 86.7944 171.564L86.8306 171.38L86.6993 171.193L86.3409 171.191ZM79.8379 172.686C78.9295 172.861 76.9974 173.054 76.3102 173.638C76.2726 173.893 76.3038 173.894 76.4448 174.115C77.2104 173.941 79.6118 173.606 80.0184 173.03C79.9675 172.849 79.9834 172.819 79.8379 172.686ZM72.9904 174.245C72.3281 174.42 69.9774 174.855 69.5677 175.181C69.4619 175.391 69.4477 175.378 69.5158 175.6C69.5729 175.626 69.6818 175.69 69.7423 175.696C70.3662 175.531 72.8924 175.037 73.2157 174.674L73.2497 174.452C73.1508 174.327 73.1537 174.27 72.9904 174.245ZM65.9415 175.901C65.0751 176.12 63.3063 176.313 62.6954 176.91L62.633 177.079C62.7379 177.262 62.7272 177.251 62.9307 177.309L63.1469 177.248C64.009 177.014 65.8728 176.765 66.5302 176.239L66.574 176.087C66.4553 175.934 66.4272 175.873 66.2152 175.868C66.1448 175.866 66.0144 175.889 65.9415 175.901ZM59.511 177.497C58.7294 177.664 56.5125 177.96 56.0042 178.468C55.9848 178.655 56.0016 178.754 56.0671 178.929C56.806 178.752 59.2934 178.369 59.6352 177.849C59.6046 177.706 59.609 177.608 59.511 177.497ZM52.3353 179.056C51.7393 179.191 49.6109 179.474 49.3126 179.955C49.2353 180.08 49.2912 180.127 49.3314 180.255C49.5607 180.345 49.6171 180.337 49.8635 180.303C50.604 180.111 52.537 179.848 52.977 179.354L53.0027 179.195C52.8676 179.039 52.8096 179.025 52.5979 179.02C52.5204 179.019 52.4136 179.041 52.3353 179.056Z" fill="#15ADFF"/>
<path d="M145.857 82.9088L145.575 82.8692C145.469 82.6914 145.429 82.6998 145.463 82.4848C146.005 82.0057 147.573 81.8909 148.299 81.7534L148.534 81.7289C148.726 81.8119 148.741 81.8435 148.86 82.0191L148.796 82.1843C148.177 82.6846 146.663 82.7161 145.857 82.9088Z" fill="black"/>
<path d="M154.056 84.1973C153.522 84.1333 152.153 83.2089 151.605 82.9097C151.519 82.6848 151.59 82.5656 151.644 82.3384C151.811 82.3677 151.971 82.4071 152.132 82.4624C152.699 82.6576 153.937 83.1486 154.161 83.7467C154.217 83.8985 154.109 84.0539 154.056 84.1973Z" fill="black"/>
<path d="M139.002 84.3289L138.887 84.2858C138.744 84.1196 138.704 84.1426 138.713 83.9113C139.45 83.3428 141.317 83.1478 142.247 82.9591L142.52 83.0755C142.511 83.3027 142.531 83.1967 142.469 83.3948C141.731 83.9313 139.92 84.1315 139.002 84.3289Z" fill="black"/>
<path d="M41.2763 97.0032C40.4804 96.72 39.7139 96.3719 38.9767 95.9589C37.1675 94.9295 35.6391 93.4642 35.081 91.3999C34.7021 89.998 34.9354 88.6333 35.6539 87.3906C37.1026 84.8855 39.7589 83.7607 42.4138 83.0365L42.8501 83.0208L42.8604 83.107C41.5186 83.7515 39.9044 84.7899 39.3789 86.2605C39.2054 86.7459 39.1517 87.3246 39.2718 87.8291C39.5348 88.9332 40.3311 90.089 40.8549 91.0934C42.0251 93.3367 43.2322 95.5674 44.356 97.8339C43.3102 97.6032 42.2956 97.3318 41.2763 97.0032Z" fill="#2B63ED"/>
<path d="M132.55 85.7786L132.297 85.7864C132.149 85.6275 132.138 85.6334 132.127 85.4181C132.477 84.9966 134.715 84.6689 135.326 84.5174C135.491 84.4846 135.559 84.4928 135.714 84.5585L135.797 84.8464C135.387 85.3686 133.296 85.6121 132.55 85.7786Z" fill="black"/>
<path d="M156.721 88.8508C156.586 88.8396 156.409 88.871 156.314 88.7604C156.062 88.4662 155.481 86.2605 155.518 85.8487C155.583 85.8533 155.657 85.857 155.721 85.8694C155.998 85.9228 156.081 86.0133 156.215 86.257C156.577 86.9159 156.914 88.1097 156.721 88.8508Z" fill="black"/>
<path d="M125.278 87.4481C125.15 87.2389 125.101 87.2441 125.135 86.989C125.696 86.4932 128.096 86.1705 128.906 86.0127C129.069 86.1535 129.069 86.1959 129.128 86.4068L129.045 86.5526C128.144 87.0474 126.33 87.2341 125.278 87.4481Z" fill="black"/>
<path d="M118.689 88.991C118.536 88.7988 118.53 88.7972 118.529 88.5522C118.984 88.1079 121.389 87.7305 122.115 87.5884C122.265 87.7345 122.262 87.7379 122.288 87.9464C121.976 88.3994 119.369 88.8382 118.689 88.991Z" fill="black"/>
<path d="M112.33 90.4355C112.266 90.452 112.183 90.4755 112.119 90.4818C111.867 90.506 111.853 90.4668 111.677 90.3016L111.711 90.1234C112.267 89.618 114.275 89.3344 115.049 89.1396C115.111 89.1296 115.205 89.1111 115.265 89.1176C115.496 89.1422 115.524 89.251 115.638 89.4291C115.297 89.9431 113.033 90.2705 112.33 90.4355Z" fill="black"/>
<path d="M105.592 92.0335C105.46 92.0493 105.542 92.0511 105.353 91.9769L105.267 91.6658C105.677 91.1975 107.873 90.8614 108.583 90.7245C108.698 90.7249 108.756 90.7805 108.854 90.836C108.876 90.945 108.892 91.0055 108.872 91.1167C108.409 91.571 106.33 91.8624 105.592 92.0335Z" fill="black"/>
<path d="M156.813 95.0657C156.609 95.062 156.523 95.0603 156.331 94.9765C155.94 94.1298 156.192 92.6145 156.21 91.6641C156.376 91.6837 156.513 91.7191 156.671 91.7746C157.11 92.4568 156.846 94.2173 156.813 95.0657Z" fill="black"/>
<path d="M98.857 93.5844L98.558 93.6188C98.3934 93.4912 98.3696 93.4542 98.2854 93.2625L98.3786 93.096C99.4397 92.7105 100.638 92.5414 101.743 92.2859L102.11 92.255C102.289 92.3653 102.296 92.3756 102.379 92.5699C101.969 93.1683 99.6247 93.4277 98.857 93.5844Z" fill="black"/>
<path d="M41.8658 176.243C40.7619 175.499 39.7176 174.607 38.662 173.793C37.8209 173.144 36.8397 172.515 36.0994 171.756C35.0537 170.684 34.7473 169.2 34.6136 167.756C34.3898 165.336 34.5727 162.796 34.5802 160.36L34.5898 145.758L34.6245 92.8953C35.2266 93.4335 35.5662 94.3464 36.1596 94.9458C38.49 97.3005 41.7185 98.1672 44.8604 98.7727C43.9374 99.3488 43.1301 99.9958 42.4439 100.848C41.4784 102.047 40.8593 103.422 40.7017 104.959C40.581 106.136 40.6308 107.343 40.6323 108.526L40.6437 114.185L40.6635 132.738L40.6292 160.073L40.6314 167.76C40.6325 169.448 40.5771 171.162 40.7591 172.842C41.0029 174.056 41.3464 175.12 41.8658 176.243Z" fill="white"/>
<path d="M92.1204 95.154C92.0144 95.1726 91.888 95.1725 91.7802 95.1799C91.6123 95.0204 91.6211 95.0332 91.6099 94.801C92.0563 94.2349 94.1387 94.0288 94.9017 93.8654L95.2391 93.8218C95.455 93.9276 95.4091 93.925 95.4905 94.1333L95.3998 94.2974C94.7201 94.7386 92.9814 94.9638 92.1204 95.154Z" fill="black"/>
<path d="M84.9922 96.794C84.9541 96.7686 84.9109 96.7496 84.8781 96.7177C84.731 96.5753 84.7576 96.4911 84.7889 96.3135C85.3085 95.8434 87.6162 95.5069 88.3906 95.3589L88.5339 95.3996C88.6657 95.5652 88.7017 95.5424 88.6873 95.7659C87.8447 96.3368 86.0077 96.5603 84.9922 96.794Z" fill="black"/>
<path d="M78.2878 98.3561L78.1164 98.3356C77.9955 98.1265 77.9656 98.1298 78.02 97.8986C78.6022 97.3978 80.6954 97.1168 81.5357 96.9074C81.6671 96.905 81.6958 96.9396 81.808 97.0014L81.8704 97.2764C81.4913 97.7765 79.0468 98.1656 78.2878 98.3561Z" fill="black"/>
<path d="M71.354 99.9084C71.2846 99.8231 71.2399 99.7158 71.189 99.6183L71.2611 99.4211C72.129 98.8202 73.7818 98.6478 74.8154 98.4057C74.9483 98.5997 74.9776 98.6206 74.9767 98.8523C74.5254 99.3229 72.1351 99.714 71.354 99.9084Z" fill="black"/>
<path d="M156.749 101.999C156.597 101.987 156.445 101.965 156.293 101.947C155.919 101.498 156.145 99.0739 156.192 98.4064C156.394 98.4299 156.532 98.4279 156.69 98.5674C157.043 99.4217 156.871 101.081 156.749 101.999Z" fill="black"/>
<path d="M64.6207 101.396L64.3946 101.355L64.2576 101.113L64.1904 101.212L64.3366 101.318L64.3067 101.003C64.8017 100.529 67.0742 100.222 67.8263 100.063C68.0352 100.047 67.9985 100.057 68.1572 100.163L68.205 100.483C67.7704 100.891 65.3429 101.245 64.6207 101.396Z" fill="black"/>
<path d="M162.065 101.671L162.065 100.191C163.309 100.872 164.304 101.683 164.802 103.077C165.229 104.269 165.088 105.574 164.521 106.696C164.464 106.812 164.402 106.924 164.335 107.034C164.269 107.144 164.198 107.251 164.123 107.356C164.047 107.46 163.968 107.561 163.884 107.658C163.8 107.756 163.713 107.85 163.621 107.94C163.53 108.03 163.435 108.117 163.336 108.199C163.238 108.282 163.136 108.36 163.031 108.434C162.926 108.508 162.818 108.577 162.707 108.642C162.596 108.707 162.483 108.768 162.367 108.823C160.841 109.557 158.884 109.737 157.235 110.092L147.678 112.184C145.788 112.597 143.811 112.911 141.974 113.522C141.855 113.562 141.735 113.604 141.617 113.648C141.498 113.691 141.38 113.736 141.262 113.782C141.145 113.828 141.028 113.876 140.912 113.925C140.795 113.974 140.679 114.025 140.564 114.077C140.449 114.129 140.335 114.183 140.221 114.238C140.107 114.293 139.994 114.349 139.882 114.406C139.769 114.464 139.657 114.523 139.546 114.584C139.435 114.644 139.325 114.706 139.216 114.769C139.106 114.832 138.998 114.897 138.89 114.963C138.782 115.029 138.675 115.096 138.569 115.164C138.462 115.233 138.357 115.303 138.253 115.374C138.148 115.445 138.044 115.517 137.942 115.591C137.839 115.665 137.737 115.74 137.636 115.816C137.536 115.892 137.436 115.97 137.337 116.048C137.238 116.127 137.14 116.207 137.043 116.288C136.946 116.369 136.85 116.451 136.755 116.535C136.66 116.618 136.566 116.703 136.473 116.789C136.38 116.875 136.288 116.962 136.198 117.05C136.107 117.138 136.017 117.227 135.929 117.317C135.84 117.408 135.753 117.499 135.666 117.591C135.58 117.684 135.495 117.777 135.411 117.872C135.327 117.966 135.244 118.062 135.163 118.159C135.081 118.255 135.001 118.353 134.921 118.451C134.842 118.55 134.764 118.65 134.688 118.75C134.611 118.851 134.535 118.952 134.461 119.055C134.387 119.157 134.314 119.26 134.242 119.364C134.17 119.469 134.1 119.574 134.03 119.68C133.961 119.786 133.894 119.892 133.827 120C133.76 120.108 133.695 120.216 133.632 120.325C133.568 120.435 133.505 120.545 133.444 120.656C133.383 120.766 133.323 120.878 133.265 120.99C133.206 121.102 133.149 121.215 133.094 121.329C131.026 125.523 131.04 129.044 132.517 133.392L132.429 133.47C131.625 132.217 130.937 130.869 130.593 129.411C129.767 125.915 130.622 122.302 132.494 119.293C133.91 117.016 135.887 115.042 138.255 113.77C141.228 112.173 144.736 111.727 148 111.01C152.13 110.104 156.284 109.265 160.398 108.297C161.658 108 163.109 107.464 163.801 106.292C164.21 105.598 164.261 104.777 164.039 104.012C163.728 102.945 163.019 102.193 162.065 101.671Z" fill="white"/>
<path d="M57.8828 103.01C57.8474 102.994 57.8073 102.986 57.7765 102.963C57.612 102.838 57.5982 102.765 57.6041 102.569C58.1681 102.077 60.2717 101.757 61.1043 101.545C61.1135 101.55 61.1244 101.552 61.1323 101.559C61.3178 101.721 61.3459 101.736 61.3518 101.972C61.0028 102.424 58.577 102.843 57.8828 103.01Z" fill="black"/>
<path d="M162.051 106.93L162.052 102.673C162.161 102.72 162.268 102.765 162.369 102.828C162.801 103.1 163.09 103.57 163.204 104.063C163.391 104.88 163.173 105.567 162.725 106.244L162.051 106.93Z" fill="#2B63ED"/>
<path d="M50.6863 104.606C50.4947 104.646 50.5624 104.644 50.385 104.637C50.2226 104.631 50.2341 104.593 50.1287 104.481L50.1816 104.202C50.7844 103.739 53.0936 103.4 53.9598 103.204C54.201 103.183 54.3393 103.157 54.5624 103.271L54.4954 103.535C53.8077 104.114 51.6229 104.389 50.6863 104.606Z" fill="black"/>
<path d="M162.427 109.666C163.57 109.126 164.307 108.459 165.022 107.414L165.002 123.306C165.003 125.26 165.209 129.276 164.858 130.979C164.67 131.887 164.168 132.692 163.518 133.342C163.199 133.66 162.834 133.941 162.432 134.147C162.261 126.001 162.423 117.816 162.427 109.666Z" fill="#F0F0F3"/>
<path d="M162.432 134.147C162.345 134.181 162.258 134.215 162.169 134.245C158.838 135.396 154.359 136.149 150.862 136.914C148.344 137.464 144.723 138.542 142.228 138.596C142.032 138.599 141.835 138.597 141.639 138.589C141.444 138.582 141.248 138.568 141.053 138.549C140.858 138.53 140.663 138.505 140.469 138.474C140.276 138.443 140.083 138.407 139.891 138.365C139.7 138.323 139.509 138.276 139.321 138.222C139.132 138.169 138.944 138.111 138.759 138.047C138.574 137.983 138.39 137.913 138.209 137.838C138.027 137.764 137.848 137.684 137.672 137.598C135.316 136.455 133.703 134.414 132.878 131.949C131.729 128.518 132.267 124.733 133.886 121.543C135.619 118.128 138.766 115.335 142.426 114.186C144.178 113.636 146.079 113.341 147.876 112.944L156.615 111.017C158.485 110.616 160.48 110.311 162.297 109.71L162.427 109.666C162.423 117.816 162.261 126.001 162.432 134.147ZM143.666 120.967C142.022 121.372 140.753 122.255 139.881 123.72C139.071 125.079 138.698 126.83 139.095 128.383C139.365 129.437 140.008 130.414 140.959 130.965C141.817 131.462 142.857 131.572 143.821 131.4C145.522 130.944 146.752 130.08 147.63 128.534C148.403 127.174 148.73 125.539 148.311 124.01C148.021 122.953 147.378 122.002 146.417 121.452C145.548 120.956 144.643 120.859 143.666 120.967Z" fill="#62F3F4"/>
<path d="M143.821 131.4C142.857 131.572 141.817 131.462 140.959 130.965C140.008 130.414 139.365 129.438 139.095 128.383C138.697 126.83 139.071 125.079 139.881 123.72C140.753 122.255 142.022 121.372 143.666 120.967C144.643 120.859 145.548 120.956 146.417 121.452C147.378 122.002 148.021 122.953 148.311 124.01C148.73 125.539 148.403 127.174 147.63 128.534C146.752 130.08 145.522 130.944 143.821 131.4ZM144.077 121.709C142.677 121.978 141.569 122.667 140.76 123.853C139.964 125.021 139.528 126.549 139.816 127.952C139.995 128.822 140.434 129.659 141.189 130.157C141.871 130.609 142.633 130.713 143.432 130.65C144.847 130.364 145.986 129.604 146.782 128.397C147.517 127.283 147.901 125.812 147.608 124.496C147.4 123.559 146.859 122.709 146.025 122.217C145.878 122.131 145.726 122.055 145.569 121.99C145.412 121.924 145.251 121.87 145.086 121.827C144.921 121.784 144.754 121.753 144.585 121.733C144.416 121.714 144.247 121.706 144.077 121.709Z" fill="black"/>
<path d="M143.433 130.65C142.633 130.713 141.871 130.609 141.189 130.157C140.434 129.659 139.995 128.822 139.816 127.952C139.528 126.549 139.964 125.021 140.761 123.853C141.569 122.667 142.677 121.978 144.077 121.709C144.247 121.706 144.416 121.714 144.586 121.733C144.755 121.753 144.921 121.784 145.086 121.827C145.251 121.87 145.412 121.924 145.569 121.99C145.726 122.055 145.878 122.131 146.025 122.217C146.859 122.709 147.4 123.559 147.608 124.496C147.901 125.812 147.517 127.283 146.782 128.397C145.986 129.604 144.847 130.364 143.433 130.65Z" fill="white"/>
<path d="M157.831 143.386C157.635 143.365 157.513 143.366 157.36 143.233C157.012 142.363 157.221 140.976 157.301 140.051C157.535 140.064 157.59 140.039 157.792 140.174C158.116 141.093 157.895 142.42 157.831 143.386Z" fill="black"/>
<path d="M155.694 150.657C155.561 150.609 155.477 150.545 155.363 150.463C155.342 149.99 156.254 148.485 156.476 147.954C156.649 147.541 156.779 147.107 156.91 146.679L157.248 146.777L157.337 146.984C157.27 148.151 156.437 149.772 155.694 150.657Z" fill="black"/>
<path d="M150.849 156.168C150.796 156.162 150.683 156.095 150.634 156.071L150.563 155.849C150.717 155.557 152.866 153.885 153.342 153.383C153.574 153.472 153.589 153.46 153.709 153.675C153.446 154.577 151.638 155.728 150.849 156.168Z" fill="black"/>
<path d="M144.363 158.77C144.34 158.77 144.315 158.776 144.293 158.768C144.087 158.696 144.125 158.667 144.064 158.492C144.299 157.989 146.536 157.554 147.165 157.267L147.302 157.203C147.526 157.237 147.48 157.229 147.619 157.376L147.609 157.585C146.869 158.299 145.349 158.535 144.363 158.77Z" fill="black"/>
<path d="M137.524 160.27C137.34 160.3 137.421 160.296 137.219 160.287C137.02 160.277 137.102 160.312 136.963 160.159L137.091 159.923C137.919 159.385 139.204 159.307 140.179 159.077C140.214 159.072 140.25 159.064 140.286 159.061C140.539 159.044 140.571 159.044 140.752 159.204L140.748 159.384C140.362 159.939 138.271 160.119 137.524 160.27Z" fill="black"/>
<path d="M130.692 161.87C130.461 161.798 130.455 161.805 130.322 161.604C130.705 161.009 132.853 160.728 133.627 160.556L133.772 160.565C133.941 160.723 133.903 160.698 133.927 160.908C133.532 161.437 131.414 161.706 130.692 161.87Z" fill="black"/>
<path d="M124.051 163.313L123.844 163.305C123.679 163.161 123.663 163.162 123.623 162.949C124.073 162.504 126.209 162.2 126.95 162.032L127.05 162.048C127.198 162.221 127.212 162.254 127.252 162.48C127.207 162.536 127.183 162.617 127.119 162.65C126.678 162.875 124.689 163.172 124.051 163.313Z" fill="black"/>
<path d="M117.224 164.868L117.093 164.801C116.991 164.629 116.964 164.66 117.012 164.452C117.655 163.97 119.508 163.714 120.337 163.517L120.496 163.603C120.571 163.818 120.587 163.817 120.503 164.025C119.965 164.423 117.965 164.702 117.224 164.868Z" fill="black"/>
<path d="M110.686 166.342C110.43 166.284 110.411 166.29 110.245 166.091L110.303 165.939C111.124 165.402 112.568 165.291 113.53 165.096L113.672 165.072C113.834 165.126 113.923 165.192 114.051 165.304L114.02 165.455C113.489 165.908 111.475 166.152 110.686 166.342Z" fill="black"/>
<path d="M104.028 167.827C103.943 167.831 103.858 167.833 103.774 167.839C103.765 167.84 103.757 167.843 103.749 167.845L103.523 167.549L103.511 167.557C103.919 166.997 106.165 166.732 106.925 166.569L107.145 166.549C107.314 166.696 107.303 166.695 107.333 166.919C107.004 167.311 104.637 167.693 104.028 167.827Z" fill="black"/>
<path d="M97.1678 169.4L96.9441 169.428C96.7548 169.333 96.7435 169.328 96.6455 169.14L96.721 168.949C97.3072 168.607 99.2116 168.317 99.9818 168.134L100.263 168.132C100.428 168.274 100.432 168.261 100.458 168.476C100.033 168.932 97.8965 169.235 97.1678 169.4Z" fill="black"/>
<path d="M90.0003 171.014C89.9761 171.005 89.9495 171.001 89.9277 170.987C89.7433 170.87 89.7374 170.814 89.7053 170.614C90.2991 170.102 92.4477 169.819 93.3262 169.619L93.381 169.627C93.5584 169.758 93.5401 169.769 93.585 169.989C93.2096 170.455 90.7452 170.845 90.0003 171.014Z" fill="black"/>
<path d="M83.5374 172.478L83.3301 172.536C83.135 172.422 83.1417 172.413 83.061 172.2L83.1705 172.009C84.1247 171.583 85.318 171.428 86.3409 171.191L86.6993 171.193L86.8305 171.38L86.7943 171.564C86.2314 172.05 84.32 172.285 83.5374 172.478Z" fill="black"/>
<path d="M76.4447 174.115C76.3036 173.894 76.2725 173.893 76.3101 173.638C76.9973 173.054 78.9293 172.861 79.8378 172.686C79.9832 172.819 79.9674 172.849 80.0183 173.03C79.6117 173.606 77.2103 173.941 76.4447 174.115Z" fill="black"/>
<path d="M69.7422 175.696C69.6817 175.69 69.5728 175.626 69.5158 175.6C69.4476 175.378 69.4619 175.391 69.5676 175.181C69.9774 174.855 72.3281 174.42 72.9903 174.245C73.1536 174.27 73.1507 174.327 73.2496 174.452L73.2157 174.674C72.8923 175.037 70.3661 175.531 69.7422 175.696Z" fill="black"/>
<path d="M63.1469 177.248L62.9308 177.309C62.7272 177.251 62.7379 177.262 62.6331 177.079L62.6954 176.91C63.3064 176.313 65.0751 176.12 65.9415 175.901C66.0144 175.889 66.1449 175.866 66.2152 175.868C66.4273 175.873 66.4553 175.934 66.574 176.087L66.5303 176.239C65.8728 176.765 64.009 177.014 63.1469 177.248Z" fill="black"/>
<path d="M56.0671 178.929C56.0016 178.754 55.9848 178.655 56.0041 178.468C56.5124 177.96 58.7293 177.664 59.511 177.497C59.609 177.608 59.6046 177.706 59.6352 177.849C59.2934 178.369 56.8059 178.752 56.0671 178.929Z" fill="black"/>
<path d="M49.8635 180.303C49.6171 180.337 49.5607 180.345 49.3314 180.255C49.2912 180.127 49.2353 180.08 49.3126 179.955C49.6109 179.474 51.7393 179.191 52.3353 179.056C52.4136 179.041 52.5204 179.019 52.5979 179.02C52.8096 179.025 52.8676 179.039 53.0027 179.195L52.977 179.354C52.537 179.848 50.604 180.111 49.8635 180.303Z" fill="black"/>
</g>
<defs>
<clipPath id="clip0_214_2994">
<rect width="189" height="189.44" fill="white" transform="translate(0 0.4216)"/>
</clipPath>
</defs>
</svg>
